<?xml version="1.0" encoding="UTF-8"?>
<svg width="24px" height="24px" viewBox="0 0 24 24" version="1.1" xmlns="http://www.w3.org/2000/svg" xmlns:xlink="http://www.w3.org/1999/xlink">
    <!-- Generator: Sketch 64 (93537) - https://sketch.com -->
    <title>icon/area-amount</title>
    <desc>Created with Sketch.</desc>
    <g id="icon/area-amount" stroke="none" stroke-width="1" fill="none" fill-rule="evenodd">
        <g id="Group-2" transform="translate(1.000000, 1.000000)">
            <g id="Group"></g>
            <g id="Group-Copy" transform="translate(13.300000, 21.200000) rotate(-270.000000) translate(-13.300000, -21.200000) translate(11.300000, 13.700000)"></g>
        </g>
        <path d="M9.13793992,20 L9.13836554,21.538 L20.0187912,21.538092 L20.0187912,20 L22.5783655,22 L20.0187912,24 L20.0187912,22.4714253 L9.13836554,22.471 L9.13793992,24 L6.57836554,22 L9.13793992,20 Z M12.5,1.25 L15.7,3.65 L14.8,4.85 L12,2.75 L7.75,2.75 L7.75,16.25 L13.308,16.25 L13.308,10.691 L10.5294118,10.6911765 L10.5294118,9.19117647 L16.7058824,9.19117647 L16.7058824,10.6911765 L14.808,10.691 L14.808,16.25 L21.25,16.25 L21.25,10.691 L19.3529412,10.6911765 L19.3529412,9.19117647 L21.25,9.191 L21.25,2.75 L16.75,2.75 L16.75,1.25 L22.75,1.25 L22.75,17.75 L6.25,17.75 L6.25,1.25 L12.5,1.25 Z M2.0023765,1 L4,3.4 L2.46848865,3.4 L2.468,14.602 L3.99524701,14.6024943 L1.9976235,17.0024943 L1.21502808e-12,14.6024943 L1.536,14.602 L1.53626435,3.4 L0.00475299468,3.4 L2.0023765,1 Z" id="Combined-Shape" fill="#9e9e9e"></path>
    </g>
</svg>