<?xml version="1.0" encoding="UTF-8"?>
<svg width="24px" height="24px" viewBox="0 0 24 24" version="1.1" xmlns="http://www.w3.org/2000/svg" xmlns:xlink="http://www.w3.org/1999/xlink">
    <!-- Generator: Sketch 64 (93537) - https://sketch.com -->
    <title>icon/baths</title>
    <desc>Created with Sketch.</desc>
    <g id="icon/baths" stroke="none" stroke-width="1" fill="none" fill-rule="evenodd">
        <g id="Group" transform="translate(4.000000, 2.000000)" fill="#9e9e9e">
            <path d="M15.073095,11.3100544 C15.2604478,11.3072688 15.434714,11.4128325 15.5291636,11.586379 C15.6236133,11.7599255 15.6236133,11.9745673 15.5291636,12.1481138 C15.434714,12.3216603 15.2604478,12.427224 15.073095,12.4243824 L15.073095,12.4243824 L14.5535883,12.4243824 L14.5535883,14.0957905 C14.5535883,15.6430353 13.6987835,16.9745926 12.4755612,17.604007 L12.4755612,17.604007 L12.4755612,17.9957427 C12.4755612,18.6169148 12.9353569,19.1100148 13.5145748,19.1100148 L13.5145748,19.1100148 L13.5145748,20.2242868 C12.3731862,20.2242868 11.4365477,19.2198051 11.4365477,17.9957427 L11.4365477,17.9957427 L11.4365477,17.9391589 C11.2652882,17.9658936 11.0950063,17.9957427 10.917041,17.9957427 L10.917041,17.9957427 L4.68295989,17.9957427 C4.50499495,17.9957427 4.33471279,17.9658936 4.16345313,17.9391589 L4.16345313,17.9391589 L4.16345313,17.9957427 C4.16345313,19.2198051 3.22681507,20.2242868 2.0854261,20.2242868 L2.0854261,20.2242868 L2.0854261,19.1100148 C2.66464351,19.1100148 3.12443961,18.6169148 3.12443961,17.9957427 L3.12443961,17.9957427 L3.12443961,17.604007 C1.90121773,16.9745926 1.04641258,15.6430353 1.04641258,14.0957905 L1.04641258,14.0957905 L1.04641258,12.4243824 L0.526905827,12.4243824 C0.339553031,12.427224 0.165286854,12.3216603 0.0708372232,12.1481138 C-0.0236124077,11.9745673 -0.0236124077,11.7599255 0.0708372232,11.586379 C0.165286854,11.4128325 0.339553031,11.3072688 0.526905827,11.3100544 L0.526905827,11.3100544 Z M13.5145748,12.4243824 L2.0854261,12.4243824 L2.0854261,14.0957905 C2.0854261,15.6410998 3.24202166,16.8814707 4.68295989,16.8814707 L4.68295989,16.8814707 L10.917041,16.8814707 C12.3579792,16.8814707 13.5145748,15.6410998 13.5145748,14.0957905 L13.5145748,14.0957905 L13.5145748,12.4243824 Z M3.97959206,9.23265357 C4.42356139,9.23265357 4.78346965,9.59256183 4.78346965,10.0365312 C4.78346965,10.4805005 4.42356139,10.8404088 3.97959206,10.8404088 C3.53562272,10.8404088 3.17571446,10.4805005 3.17571446,10.0365312 C3.17571446,9.59256183 3.53562272,9.23265357 3.97959206,9.23265357 Z M6.52653097,9.23265357 C6.97050031,9.23265357 7.33040857,9.59256183 7.33040857,10.0365312 C7.33040857,10.4805005 6.97050031,10.8404088 6.52653097,10.8404088 C6.08256163,10.8404088 5.72265338,10.4805005 5.72265338,10.0365312 C5.72265338,9.59256183 6.08256163,9.23265357 6.52653097,9.23265357 Z M9.07346989,9.23265357 C9.51743922,9.23265357 9.87734748,9.59256183 9.87734748,10.0365312 C9.87734748,10.4805005 9.51743922,10.8404088 9.07346989,10.8404088 C8.62950055,10.8404088 8.26959229,10.4805005 8.26959229,10.0365312 C8.26959229,9.59256183 8.62950055,9.23265357 9.07346989,9.23265357 Z M11.6204088,9.23265357 C12.0643781,9.23265357 12.4242864,9.59256183 12.4242864,10.0365312 C12.4242864,10.4805005 12.0643781,10.8404088 11.6204088,10.8404088 C11.1764395,10.8404088 10.8165312,10.4805005 10.8165312,10.0365312 C10.8165312,9.59256183 11.1764395,9.23265357 11.6204088,9.23265357 Z M4.76326555,6.68571465 C5.20723488,6.68571465 5.56714314,7.04562291 5.56714314,7.48959225 C5.56714314,7.93356159 5.20723488,8.29346984 4.76326555,8.29346984 C4.31929621,8.29346984 3.95938795,7.93356159 3.95938795,7.48959225 C3.95938795,7.04562291 4.31929621,6.68571465 4.76326555,6.68571465 Z M7.31020446,6.68571465 C7.7541738,6.68571465 8.11408206,7.04562291 8.11408206,7.48959225 C8.11408206,7.93356159 7.7541738,8.29346984 7.31020446,8.29346984 C6.86623513,8.29346984 6.50632687,7.93356159 6.50632687,7.48959225 C6.50632687,7.04562291 6.86623513,6.68571465 7.31020446,6.68571465 Z M9.85714338,6.68571465 C10.3011127,6.68571465 10.661021,7.04562291 10.661021,7.48959225 C10.661021,7.93356159 10.3011127,8.29346984 9.85714338,8.29346984 C9.41317404,8.29346984 9.05326578,7.93356159 9.05326578,7.48959225 C9.05326578,7.04562291 9.41317404,6.68571465 9.85714338,6.68571465 Z M7.45714316,3.73034936e-14 L7.62428602,0.167142866 L7.62428602,2.86719551 C7.62422029,3.07648275 7.51546606,3.2673311 7.34405129,3.36077955 L7.26688565,3.39463542 L4.82266412,4.22031357 C4.68676065,4.26619893 4.57089166,4.35730328 4.47627826,4.48830365 L4.40932271,4.59395126 L4.39251453,4.62762883 L11.206372,4.62762883 L11.1906767,4.59395072 C11.1277436,4.48098841 11.0526816,4.38971898 10.9660036,4.32238709 L10.8754725,4.26311752 L10.7773115,4.22030511 L8.33283385,3.39454018 C8.1447014,3.33061506 8.01243883,3.15793697 7.98226243,2.95549557 L7.9757146,2.86714301 L7.9757146,0.167142866 L8.14285746,3.73034936e-14 L8.82857177,3.73034936e-14 L8.99571464,0.167142866 L8.99562907,2.46145728 L11.0811462,3.16380514 C11.6855711,3.36787807 12.1259693,3.91106681 12.2833112,4.55264371 L12.3166808,4.71494837 L12.3378431,4.88051669 C12.3706679,4.93569419 12.39398,4.99648404 12.4070621,5.06145979 L12.418923,5.16188452 L12.4242864,5.18142886 C12.4242864,5.45253412 12.2431128,5.68346958 11.9981441,5.72694562 L11.9142861,5.73429265 L3.66298378,5.73324183 L3.61731726,5.72800461 C3.38977404,5.69470749 3.21849557,5.50466667 3.18265246,5.27091423 L3.17571446,5.18142886 L3.18875884,5.08347229 L3.19275675,5.06119515 L3.19275675,5.06119515 L3.197365,5.0401642 L3.22021526,4.9736595 L3.23963045,4.94950114 C3.32515423,4.15893842 3.75070821,3.49608579 4.38082475,3.21750076 L4.51893141,3.16377911 L6.60325751,2.46145728 L6.60428599,0.167142866 L6.77142885,3.73034936e-14 L7.45714316,3.73034936e-14 Z" id="Combined-Shape"></path>
        </g>
    </g>
</svg>