<?xml version="1.0" encoding="UTF-8"?>
<svg width="24px" height="24px" viewBox="0 0 24 24" version="1.1" xmlns="http://www.w3.org/2000/svg" xmlns:xlink="http://www.w3.org/1999/xlink">
    <!-- Generator: Sketch 64 (93537) - https://sketch.com -->
    <title>icon/beds</title>
    <desc>Created with Sketch.</desc>
    <g id="icon/beds" stroke="none" stroke-width="1" fill="none" fill-rule="evenodd">
        <path d="M5.5,4 C4.34845604,4 3.4,4.95974718 3.4,6.125 L3.4,11.2161458 C2.58935272,11.511487 2,12.2919465 2,13.2083333 L2,15.3333333 L2,16.0416667 L2,18.1666667 L2,20.2916667 L2,21 L3.4,21 L3.4,20.2916667 L3.4,18.1666667 L21.6,18.1666667 L21.6,20.2916667 L21.6,21 L23,21 L23,20.2916667 L23,16.0416667 L23,15.3333333 L23,13.2083333 C23,12.2919465 22.4106476,11.511487 21.6,11.2161458 L21.6,6.125 C21.6,4.95974718 20.6515434,4 19.5,4 L5.5,4 Z M5.5,5.41666667 L19.5,5.41666667 C19.8940566,5.41666667 20.2,5.72625282 20.2,6.125 L20.2,11.0833333 L18.8,11.0833333 L18.8,10.375 C18.8,9.20974718 17.8515434,8.25 16.7,8.25 L13.9,8.25 C13.3622709,8.25 12.8732642,8.46439663 12.5,8.80615231 C12.1267358,8.46439663 11.6377291,8.25 11.1,8.25 L8.3,8.25 C7.14845604,8.25 6.2,9.20974718 6.2,10.375 L6.2,11.0833333 L4.8,11.0833333 L4.8,6.125 C4.8,5.72625282 5.10594396,5.41666667 5.5,5.41666667 Z M8.3,9.66666667 L11.1,9.66666667 C11.494056,9.66666667 11.8,9.97625282 11.8,10.375 L11.8,11.0833333 L7.6,11.0833333 L7.6,10.375 C7.6,9.97625282 7.90594396,9.66666667 8.3,9.66666667 Z M13.9,9.66666667 L16.7,9.66666667 C17.0940566,9.66666667 17.4,9.97625282 17.4,10.375 L17.4,11.0833333 L13.2,11.0833333 L13.2,10.375 C13.2,9.97625282 13.505944,9.66666667 13.9,9.66666667 Z M4.1,12.5 L12.5,12.5 L18.1,12.5 L20.9,12.5 C21.2940566,12.5 21.6,12.8095861 21.6,13.2083333 L21.6,15.3333333 L21.6,16.0416667 L21.6,16.75 L3.4,16.75 L3.4,16.0416667 L3.4,15.3333333 L3.4,13.2083333 C3.4,12.8095861 3.70594396,12.5 4.1,12.5 Z" id="Shape" fill="#9e9e9e"></path>
    </g>
</svg>