<?xml version="1.0" encoding="UTF-8"?>
<svg width="24px" height="24px" viewBox="0 0 24 24" version="1.1" xmlns="http://www.w3.org/2000/svg" xmlns:xlink="http://www.w3.org/1999/xlink">
    <!-- Generator: Sketch 64 (93537) - https://sketch.com -->
    <title>icon/garages</title>
    <desc>Created with Sketch.</desc>
    <g id="icon/garages" stroke="none" stroke-width="1" fill="none" fill-rule="evenodd">
        <path d="M15.7602,9.0432 C16.1202,9.0432 16.4402,9.2422 16.6102,9.4122 C16.8102,9.6222 16.9202,9.8532 17.0202,10.0422 L17.0202,10.0422 L18.2802,13.6332 L18.4802,13.7122 C18.5402,13.7322 18.5802,13.7522 18.6702,13.7922 C18.8202,13.8722 19.0002,13.9732 19.1702,14.1222 C19.3202,14.2732 19.5002,14.4732 19.5002,14.8132 L19.5002,14.8132 L19.5002,20.0022 C19.5002,20.2822 19.2802,20.5022 19.0002,20.5022 L19.0002,20.5022 L18.5002,20.5022 L18.5002,19.0022 L6.0002,19.0022 L6.0002,20.5022 L5.5002,20.5022 C5.2302,20.5022 5.0002,20.2822 5.0002,20.0022 L5.0002,20.0022 L5.0002,14.8132 C5.0002,14.4732 5.1802,14.2732 5.3402,14.1222 C5.5102,13.9732 5.6802,13.8722 5.8402,13.7922 C6.0402,13.6922 6.1502,13.6522 6.3002,13.6032 L6.3002,13.6032 L6.4202,13.5632 L7.4002,10.0632 C7.5102,9.7932 7.6302,9.5722 7.8302,9.3722 C8.0402,9.1722 8.3602,9.0432 8.6602,9.0432 L8.6602,9.0432 Z M12.2501,3.0027 C12.3101,2.9927 12.3801,3.0127 12.4401,3.0427 L12.4401,3.0427 L22.1901,6.9827 C22.3801,7.0527 22.5001,7.2327 22.5001,7.4427 L22.5001,7.4427 L22.5001,20.5027 L21.5001,20.5027 L21.5001,7.7827 L12.2501,4.0427 L3.0001,7.7827 L3.0001,20.5027 L2.0001,20.5027 L2.0001,7.4427 C2.0001,7.2327 2.1301,7.0527 2.3201,6.9827 L2.3201,6.9827 L12.0701,3.0427 C12.1201,3.0127 12.1801,3.0027 12.2501,3.0027 Z M6.7702,14.5022 L6.6702,14.5232 C6.5902,14.5532 6.4602,14.5932 6.3002,14.6832 C6.2102,14.7322 6.1602,14.7632 6.1102,14.8032 L6.1102,14.8032 L6.0002,14.8832 L6.0002,18.0022 L8.0002,18.0022 L8.0002,16.5022 L9.0002,16.5022 L9.0002,18.0022 L15.5002,18.0022 L15.5002,16.5022 L16.5002,16.5022 L16.5002,18.0022 L18.5002,18.0022 L18.5002,15.0022 L18.4902,14.8722 L18.3902,14.7922 C18.3402,14.7632 18.2902,14.7232 18.2102,14.6832 C18.0402,14.5932 17.9102,14.5532 17.8102,14.5232 L17.8102,14.5232 L6.7702,14.5022 Z M15.8302,10.0422 L8.5702,10.0422 L8.4902,10.1332 C8.4502,10.1832 8.3902,10.2922 8.3202,10.4522 L8.3202,10.4522 L7.4702,13.5022 L17.1702,13.5022 L16.1002,10.4522 C16.0402,10.3322 15.9602,10.1922 15.9002,10.1222 L15.9002,10.1222 L15.8302,10.0422 Z" id="Combined-Shape" fill="#9e9e9e"></path>
    </g>
</svg>