<?xml version="1.0" encoding="UTF-8"?>
<svg width="67px" height="67px" viewBox="0 0 67 67" version="1.1" xmlns="http://www.w3.org/2000/svg" xmlns:xlink="http://www.w3.org/1999/xlink">
    <title>maxxi-icon/email</title>
    <g id="maxxi-icon/email" stroke="none" stroke-width="1" fill="none" fill-rule="evenodd">
        <path d="M33.5,0 C52.0015391,0 67,14.9984609 67,33.5 C67,52.0015391 52.0015391,67 33.5,67 C14.9984609,67 0,52.0015391 0,33.5 C0,14.9984609 14.9984609,0 33.5,0 Z M33.5,2 C16.1030304,2 2,16.1030304 2,33.5 C2,50.8969696 16.1030304,65 33.5,65 C50.8969696,65 65,50.8969696 65,33.5 C65,16.1030304 50.8969696,2 33.5,2 Z M46.6923077,21 C48.4554686,21 49.8974136,22.3811464 49.9947616,24.120058 L50,24.3076923 L50,42.7692308 C50,44.5323916 48.6188536,45.9743367 46.879942,46.0716847 L46.6923077,46.0769231 L21.3076923,46.0769231 C19.5445314,46.0769231 18.1025864,44.6957767 18.0052384,42.9568651 L18,42.7692308 L18,24.3076923 C18,22.5445314 19.3811464,21.1025864 21.120058,21.0052384 L21.3076923,21 L46.6923077,21 Z M48,25.06 L34.0000669,34.75474 L20,25.063 L20,42.7692308 C20,43.4456946 20.5151541,44.0031277 21.1740967,44.0701644 L21.3076923,44.0769231 L46.6923077,44.0769231 C47.3687715,44.0769231 47.9262046,43.561769 47.9932413,42.9028264 L48,42.7692308 L48,25.06 Z M46.6923077,23 L21.3076923,23 C21.100006,23 20.9035396,23.0485583 20.7290401,23.1349278 L33.999,32.322 L47.2689647,23.1339424 C47.0949634,23.048189 46.8992028,23 46.6923077,23 Z" id="Combined-Shape" fill="#111112" fill-rule="nonzero"></path>
    </g>
</svg>