<?xml version="1.0" encoding="UTF-8"?>
<svg width="67px" height="67px" viewBox="0 0 67 67" version="1.1" xmlns="http://www.w3.org/2000/svg" xmlns:xlink="http://www.w3.org/1999/xlink">
    <title>maxxi-icon/key-feature-house</title>
    <g id="maxxi-icon/key-feature-house" stroke="none" stroke-width="1" fill="none" fill-rule="evenodd">
        <path d="M33.5,0 C52.0015391,0 67,14.9984609 67,33.5 C67,52.0015391 52.0015391,67 33.5,67 C14.9984609,67 0,52.0015391 0,33.5 C0,14.9984609 14.9984609,0 33.5,0 Z M33.5,2 C16.1030304,2 2,16.1030304 2,33.5 C2,50.8969696 16.1030304,65 33.5,65 C50.8969696,65 65,50.8969696 65,33.5 C65,16.1030304 50.8969696,2 33.5,2 Z M51,17 L51,34 L48.6818182,34 L48.6818182,49.4545455 L19.3181818,49.4545455 L19.3181818,34 L17,34 L17,17 L51,17 Z M34,26.1670808 L29.0150035,34 L20.8636364,34 L20.8636364,47.9090909 L30.1363636,47.9090909 L30.1363636,40.9545455 C30.1363636,38.8299195 31.875374,37.0909091 34,37.0909091 C36.124626,37.0909091 37.8636364,38.8299195 37.8636364,40.9545455 L37.8636364,40.9545455 L37.8636364,47.9090909 L47.1363636,47.9090909 L47.1363636,34 L38.9849965,34 L34,26.1670808 Z M34,38.6363636 C32.7107169,38.6363636 31.6818182,39.6652624 31.6818182,40.9545455 L31.6818182,40.9545455 L31.6818182,47.9090909 L36.3181818,47.9090909 L36.3181818,40.9545455 C36.3181818,39.6652624 35.2892831,38.6363636 34,38.6363636 Z M28.5909091,37.0909091 L28.5909091,44.0454545 L22.4090909,44.0454545 L22.4090909,37.0909091 L28.5909091,37.0909091 Z M45.5909091,37.0909091 L45.5909091,44.0454545 L39.4090909,44.0454545 L39.4090909,37.0909091 L45.5909091,37.0909091 Z M27.0454545,38.6363636 L23.9545455,38.6363636 L23.9545455,42.5 L27.0454545,42.5 L27.0454545,38.6363636 Z M44.0454545,38.6363636 L40.9545455,38.6363636 L40.9545455,42.5 L44.0454545,42.5 L44.0454545,38.6363636 Z M49.4545455,18.5454545 L18.5454545,18.5454545 L18.5454545,32.4545455 L19.967152,32.4545455 C20.0040747,32.4483229 20.0414007,32.4447921 20.0788352,32.4439807 C20.1228239,32.4437589 20.1667512,32.4472933 20.2101385,32.4545455 L20.2101385,32.4545455 L28.1668147,32.4545455 L34,23.2874647 L39.8331853,32.4545455 L47.7868431,32.4545455 C47.8702911,32.440753 47.9554372,32.440753 48.0388851,32.4545455 L48.0388851,32.4545455 L49.4545455,32.4545455 L49.4545455,18.5454545 Z" id="Combined-Shape" fill="#111112" fill-rule="nonzero"></path>
    </g>
</svg>