<?xml version="1.0" encoding="UTF-8"?>
<svg width="67px" height="67px" viewBox="0 0 67 67" version="1.1" xmlns="http://www.w3.org/2000/svg" xmlns:xlink="http://www.w3.org/1999/xlink">
    <title>maxxi-icon/braai</title>
    <g id="maxxi-icon/braai" stroke="none" stroke-width="1" fill="none" fill-rule="evenodd">
        <path d="M33.5,0 C52.0015391,0 67,14.9984609 67,33.5 C67,52.0015391 52.0015391,67 33.5,67 C14.9984609,67 0,52.0015391 0,33.5 C0,14.9984609 14.9984609,0 33.5,0 Z M33.5,2 C16.1030304,2 2,16.1030304 2,33.5 C2,50.8969696 16.1030304,65 33.5,65 C50.8969696,65 65,50.8969696 65,33.5 C65,16.1030304 50.8969696,2 33.5,2 Z M33,17.3167614 L33.7073865,17.9176136 C33.707386,17.9176136 34.8596509,18.8944545 36.0170455,20.2784091 C37.17444,21.6623636 38.4545455,23.4412569 38.4545455,25.4772727 C38.4545455,26.866538 37.912121,28.1249623 37.0482956,29.0909091 L37.0482956,29.0909091 L43.9090909,29.0909091 C44.5115584,29.0909693 45,29.5793507 45,30.1818182 C45,34.4794135 42.7185709,38.2465011 39.3110793,40.3664778 L39.3110793,40.3664778 L42.7031258,47.1463076 C42.9737763,47.6852564 42.7562775,48.3415663 42.2173287,48.6122167 C41.6783799,48.8828672 41.0220701,48.6653684 40.7514196,48.1264196 L40.7514196,48.1264196 L37.3636364,41.346592 C36.3333805,41.7509789 35.2358455,42.0223447 34.0909091,42.1264196 L34.0909091,42.1264196 L34.0909091,47.6363636 C34.096473,48.0297846 33.8897724,48.3957251 33.5499569,48.5940593 C33.2101414,48.7923935 32.7898586,48.7923935 32.4500431,48.5940593 C32.1102276,48.3957251 31.903527,48.0297846 31.9090909,47.6363636 L31.9090909,47.6363636 L31.9090909,42.1264196 C30.7641545,42.0223447 29.6666193,41.7509789 28.6363636,41.346592 L28.6363636,41.346592 L25.2485795,48.1221585 C25.0850572,48.4878147 24.7343143,48.7344627 24.3349006,48.7646723 C23.9354868,48.794882 23.5516359,48.6037948 23.3349758,48.2668937 C23.1183156,47.9299926 23.1036895,47.501458 23.2968751,47.1505687 L23.2968751,47.1505687 L26.6889205,40.3664778 C23.2814284,38.2465011 21,34.4794135 21,30.1818182 C21,29.5793507 21.4884416,29.0909693 22.0909091,29.0909091 L22.0909091,29.0909091 L28.9517044,29.0909091 C28.087879,28.1249623 27.5454545,26.866538 27.5454545,25.4772727 C27.5454545,23.4412569 28.82556,21.6623636 29.9829545,20.2784091 C31.1403491,18.8944545 32.2926135,17.9176136 32.2926135,17.9176136 L32.2926135,17.9176136 L33,17.3167614 Z M42.596592,31.2727273 L23.4034091,31.2727273 C23.9262587,35.8015683 27.3949124,39.3847425 31.9090909,39.8977273 L31.9090909,39.8977273 L31.9090909,36.7272727 C31.9045638,36.4379438 32.0151608,36.1586673 32.2165507,35.9508841 C32.4179405,35.7431009 32.6936254,35.6238326 32.9829545,35.6193182 C33.2781944,35.6146983 33.5626992,35.7299448 33.7714908,35.9387365 C33.9802825,36.1475281 34.0955289,36.4320329 34.0909091,36.7272727 L34.0909091,36.7272727 L34.0909091,39.8977273 C38.6050887,39.3847425 42.0737411,35.8015683 42.596592,31.2727273 L42.596592,31.2727273 Z M33,20.3039772 C32.6162747,20.6582588 32.3247982,20.8775844 31.6534091,21.6803977 C30.6289855,22.9053522 29.7272727,24.4914703 29.7272727,25.4772727 C29.7272727,26.6637834 30.3514948,27.6863324 31.2869319,28.2599431 C31.2814761,28.2037277 31.252841,28.1556647 31.252841,28.0980114 C31.252841,26.8369205 33,24.8252841 33,24.8252841 C33,24.8252841 34.747159,26.8107387 34.747159,28.0980114 C34.747159,28.1556647 34.7185239,28.2037277 34.7130681,28.2599431 C35.6485052,27.6863324 36.2727273,26.6637834 36.2727273,25.4772727 C36.2727273,24.4914703 35.3710145,22.9053522 34.3465909,21.6803977 C33.6752018,20.8775844 33.3837253,20.6582588 33,20.3039772 Z" id="Combined-Shape" fill="#111112" fill-rule="nonzero"></path>
    </g>
</svg>