<?xml version="1.0" encoding="UTF-8"?>
<svg width="67px" height="67px" viewBox="0 0 67 67" version="1.1" xmlns="http://www.w3.org/2000/svg" xmlns:xlink="http://www.w3.org/1999/xlink">
    <title>maxxi-icon/phone</title>
    <g id="maxxi-icon/phone" stroke="none" stroke-width="1" fill="none" fill-rule="evenodd">
        <path d="M33.5,0 C52.0015391,0 67,14.9984609 67,33.5 C67,52.0015391 52.0015391,67 33.5,67 C14.9984609,67 0,52.0015391 0,33.5 C0,14.9984609 14.9984609,0 33.5,0 Z M33.5,2 C16.1030304,2 2,16.1030304 2,33.5 C2,50.8969696 16.1030304,65 33.5,65 C50.8969696,65 65,50.8969696 65,33.5 C65,16.1030304 50.8969696,2 33.5,2 Z M23.7790445,16.171625 L32.5744577,24.9667138 L29.305,28.235 L29.468884,28.517979 C29.6274304,28.785134 29.8123855,29.0799229 30.0185711,29.3928911 L30.0185711,29.3928911 L30.1771102,29.630878 C31.3059213,31.3071525 32.7583753,33.106243 34.1449094,34.4927259 C35.5159959,35.8637619 37.1532637,37.1627039 38.6454551,38.1135071 C39.0348301,38.3616113 39.3949253,38.5727614 39.7029762,38.7364396 L39.7029762,38.7364396 L39.715,38.742 L43.0330661,35.4249364 L51.8284793,44.2200251 L47.2915687,48.7567683 C44.848561,51.1996858 41.065807,51.7129252 38.0938,49.9726871 L38.0938,49.9726871 L36.1655414,48.8366897 L35.7327292,48.5666379 C33.6833,47.2623117 31.7288788,45.629153 28.3849326,42.3375712 L28.3849326,42.3375712 L27.3385785,41.2990144 C22.3900247,36.3506431 20.5780302,34.1483743 18.4998647,30.7037271 L18.4998647,30.7037271 L18.0263503,29.9060337 C16.2879056,26.9348574 16.800306,23.150106 19.2422382,20.708264 L19.2422382,20.708264 L23.7790445,16.171625 Z M23.7790445,19 L20.6564256,22.1225036 C18.8614943,23.9173687 18.4708478,26.7054096 19.7525769,28.8960131 C21.5015498,31.8857528 22.7858321,33.918061 28.752766,39.8847748 L28.752766,39.8847748 L29.0737371,40.2049937 C33.7158869,44.8252776 35.5031855,46.1150197 37.5939768,47.3631687 L37.5939768,47.3631687 L39.1036218,48.2463441 C41.2968594,49.530579 44.0824498,49.1373938 45.8773812,47.3425287 L45.8773812,47.3425287 L49,44.2200251 L43.0330661,38.2533113 L40.2985405,40.987736 C39.9027875,41.3834744 35.9427043,39.1188295 32.7307219,35.9069656 L32.7307219,35.9069656 L32.5304023,35.7044695 C29.3992113,32.505333 26.6239447,28.0886323 27.0114528,27.7011384 L27.0114528,27.7011384 L29.7459784,24.9667138 L23.7790445,19 Z" id="Combined-Shape" fill="#111112" fill-rule="nonzero"></path>
    </g>
</svg>