<?xml version="1.0" encoding="UTF-8"?>
<svg width="67px" height="67px" viewBox="0 0 67 67" version="1.1" xmlns="http://www.w3.org/2000/svg" xmlns:xlink="http://www.w3.org/1999/xlink">
    <title>maxxi-icon/geyser</title>
    <g id="maxxi-icon/geyser" stroke="none" stroke-width="1" fill="none" fill-rule="evenodd">
        <path d="M33.5,0 C52.0015391,0 67,14.9984609 67,33.5 C67,52.0015391 52.0015391,67 33.5,67 C14.9984609,67 0,52.0015391 0,33.5 C0,14.9984609 14.9984609,0 33.5,0 Z M33.5,2 C16.1030304,2 2,16.1030304 2,33.5 C2,50.8969696 16.1030304,65 33.5,65 C50.8969696,65 65,50.8969696 65,33.5 C65,16.1030304 50.8969696,2 33.5,2 Z M29.4831735,21 C32.014424,21 34.0985582,23.0841342 34.0985582,25.6153846 L34.0985582,25.6153846 L34.0985582,36.0288462 C35.180288,37.1826923 35.9230769,38.6754812 35.9230769,40.3846154 C35.9230769,43.9399034 33.0168265,46.8461538 29.4615385,46.8461538 C25.9062505,46.8461538 23,43.9399034 23,40.3846154 C23,38.6538462 23.764424,37.1466351 24.8677889,35.9927889 L24.8677889,35.9927889 L24.8677889,25.6153846 C24.8677889,23.0841342 26.9519231,21 29.4831735,21 Z M29.4831735,22.8461538 C27.9543274,22.8461538 26.7139428,24.0865385 26.7139428,25.6153846 L26.7139428,25.6153846 L26.7139428,36.2668265 C26.7139428,36.5336548 26.5985582,36.7788462 26.4038462,36.9519231 C25.4519231,37.8100966 24.8461538,39.014424 24.8461538,40.3846154 C24.8461538,42.944712 26.9014418,45 29.4615385,45 C32.0216351,45 34.0769231,42.944712 34.0769231,40.3846154 C34.0769231,39.0288462 33.4927889,37.8317317 32.555288,36.9807692 C32.3605778,36.8076923 32.2524043,36.5625009 32.2524043,36.3028855 L32.2524043,36.3028855 L32.2524043,25.6153846 C32.2524043,24.0865385 31.0120197,22.8461538 29.4831735,22.8461538 Z M30.3846154,28.3846154 L30.3846154,37.7812505 C31.4879803,38.1706726 32.2307692,39.2091342 32.2307692,40.3846154 C32.2307692,41.9134615 30.9903846,43.1538462 29.4615385,43.1538462 C27.9326923,43.1538462 26.6923077,41.9134615 26.6923077,40.3846154 C26.6923077,39.2091342 27.4350966,38.1706726 28.5384615,37.7812505 L28.5384615,37.7812505 L28.5384615,28.3846154 L30.3846154,28.3846154 Z M41.4615385,37.6153846 C41.4615385,37.6153846 43.3076923,40.139424 43.3076923,41.3076923 C43.3076923,42.4759625 42.4783649,43.1538462 41.4615385,43.1538462 C40.444712,43.1538462 39.6153846,42.4759625 39.6153846,41.3076923 C39.6153846,40.139424 41.4615385,37.6153846 41.4615385,37.6153846 Z M44.2307692,27.6923077 C44.2307692,27.6923077 47,31.3774043 47,32.9423077 C47,34.5072111 45.7596154,35.7692308 44.2307692,35.7692308 C42.7019231,35.7692308 41.4615385,34.5072111 41.4615385,32.9423077 C41.4615385,31.3774043 44.2307692,27.6923077 44.2307692,27.6923077 Z M39.6153846,21 C39.6153846,21 41.4615385,23.5240394 41.4615385,24.6923077 C41.4615385,25.8605778 40.6322111,26.5384615 39.6153846,26.5384615 C38.5985582,26.5384615 37.7692308,25.8605778 37.7692308,24.6923077 C37.7692308,23.5240394 39.6153846,21 39.6153846,21 Z" id="Combined-Shape" fill="#111112" fill-rule="nonzero"></path>
    </g>
</svg>