<?xml version="1.0" encoding="UTF-8"?>
<svg width="24px" height="24px" viewBox="0 0 24 24" version="1.1" xmlns="http://www.w3.org/2000/svg" xmlns:xlink="http://www.w3.org/1999/xlink">
    <!-- Generator: Sketch 64 (93537) - https://sketch.com -->
    <title>icon / 24px-whatsapp</title>
    <desc>Created with Sketch.</desc>
    <g id="icon-/-24px-whatsapp" stroke="none" stroke-width="1" fill="none" fill-rule="evenodd">
        <path d="M12.0311326,4 C7.63221929,4 4.05750214,7.55343907 4.05750214,11.9261684 C4.05750214,13.5075914 4.57022989,14.9556414 5.37046834,16.1941052 L4,20 L8.26474285,18.8044058 C9.39561833,19.4188741 10.6510812,19.8523367 12.0311326,19.8523367 C16.4300471,19.8523367 20.004763,16.2988989 20.004763,11.9261684 C20.004763,7.55343907 16.4300471,4 12.0311326,4 Z M12.0311326,5.21941052 C15.7639803,5.21941052 18.7780506,8.21553995 18.7780506,11.9261684 C18.7780506,15.6367967 15.7639803,18.6329262 12.0311326,18.6329262 C10.7517096,18.6329262 9.56812475,18.2756767 8.54266926,17.6612084 L8.31745223,17.5230724 L5.95507285,18.1804103 L6.72176808,16.0654951 L6.53488581,15.8082764 C5.7490232,14.7079486 5.28421452,13.3742183 5.28421452,11.9261684 C5.28421452,8.21553995 8.29828485,5.21941052 12.0311326,5.21941052 Z M9.04102117,7.65823155 C8.90205796,7.65823155 8.67204939,7.71539141 8.47558404,7.94403089 C8.28391024,8.16790734 7.73763927,8.71568971 7.73763927,9.83030653 C7.73763927,10.9401603 8.49475142,12.0166718 8.60017141,12.1690981 C8.70559261,12.3215244 10.0904356,14.6031561 12.2084305,15.5843999 C12.7115752,15.8178024 13.1045059,15.9559396 13.411184,16.0607321 C13.9191202,16.2322117 14.3791373,16.2083954 14.7433176,16.1512356 C15.1506241,16.0845484 15.9939889,15.6034532 16.1712868,15.0747241 C16.3437933,14.5459962 16.3485848,14.0934803 16.2910827,13.9982139 C16.2431648,13.9029474 16.0994089,13.8457876 15.8885677,13.7362308 C15.6777265,13.6219111 14.6378964,13.0741287 14.4462226,13.0026798 C14.2545488,12.9217024 14.110794,12.8883601 13.967038,13.1122353 C13.8280748,13.3408748 13.4255598,13.8505506 13.3009713,13.9982139 C13.1763839,14.1506402 13.0565881,14.1696935 12.8457469,14.0553737 C12.6301129,13.941054 11.9496715,13.7028873 11.1446415,12.9312297 C10.5169095,12.3310504 10.0904356,11.5927364 9.97063975,11.3640969 C9.84605116,11.1354575 9.95626391,11.0163735 10.0616839,10.906818 C10.1575208,10.8020243 10.2725251,10.6400719 10.3779463,10.5066989 C10.4833663,10.3780889 10.5169095,10.2780594 10.5887875,10.1303961 C10.6606655,9.97796982 10.6271222,9.8445968 10.5744116,9.73504008 C10.5169095,9.62072035 10.0952271,8.50610353 9.92272069,8.0535876 C9.75021426,7.61536195 9.57291629,7.67252182 9.44353616,7.6677588 C9.32374034,7.65823155 9.17998437,7.65823155 9.04102117,7.65823155 Z" id="Shape" fill="#000000"></path>
    </g>
</svg>