<?xml version="1.0" encoding="utf-8"?>
<!-- Generator: Adobe Illustrator 16.0.0, SVG Export Plug-In . SVG Version: 6.00 Build 0)  -->
<!DOCTYPE svg PUBLIC "-//W3C//DTD SVG 1.1//EN" "http://www.w3.org/Graphics/SVG/1.1/DTD/svg11.dtd">
<svg version="1.1" id="Layer_1" xmlns="http://www.w3.org/2000/svg" xmlns:xlink="http://www.w3.org/1999/xlink" x="0px" y="0px"
	 width="24px" height="24px" viewBox="0 0 24 24" enable-background="new 0 0 24 24" xml:space="preserve">
<title>icon / 24px-whatsapp</title>
<desc>Created with Sketch.</desc>
<g id="icon-_x2F_-24px-whatsapp">
	<path id="Shape" fill="#FFFFFF" d="M12.031,4c-4.399,0-7.974,3.553-7.974,7.926c0,1.582,0.513,3.029,1.313,4.268L4,20l4.265-1.195
		c1.131,0.614,2.386,1.048,3.767,1.048c4.398,0,7.974-3.554,7.974-7.926C20.005,7.553,16.43,4,12.031,4z M12.031,5.219
		c3.732,0,6.746,2.996,6.746,6.707c0,3.71-3.014,6.707-6.746,6.707c-1.279,0-2.463-0.357-3.489-0.972l-0.225-0.138l-2.362,0.657
		l0.767-2.115l-0.187-0.257c-0.786-1.101-1.25-2.435-1.25-3.882C5.284,8.215,8.298,5.219,12.031,5.219z M9.041,7.658
		c-0.139,0-0.369,0.057-0.565,0.286C8.284,8.168,7.738,8.716,7.738,9.83c0,1.11,0.757,2.187,0.862,2.339s1.49,2.435,3.608,3.415
		c0.502,0.234,0.896,0.372,1.203,0.477c0.508,0.172,0.968,0.148,1.332,0.091c0.407-0.067,1.251-0.548,1.429-1.077
		c0.172-0.528,0.177-0.98,0.119-1.076c-0.048-0.096-0.191-0.152-0.402-0.262c-0.211-0.114-1.251-0.662-1.442-0.733
		c-0.192-0.081-0.335-0.114-0.479,0.109c-0.139,0.229-0.541,0.738-0.666,0.886c-0.125,0.152-0.244,0.172-0.455,0.057
		c-0.216-0.113-0.896-0.352-1.701-1.123c-0.627-0.601-1.054-1.339-1.174-1.567c-0.125-0.229-0.015-0.348,0.091-0.458
		c0.096-0.104,0.211-0.267,0.316-0.4c0.105-0.129,0.139-0.229,0.211-0.376c0.072-0.152,0.038-0.286-0.015-0.396
		c-0.057-0.114-0.479-1.229-0.651-1.681C9.75,7.615,9.573,7.672,9.443,7.668C9.324,7.658,9.18,7.658,9.041,7.658z"/>
</g>
</svg>
