<?xml version="1.0" encoding="UTF-8"?>
<svg width="36px" height="36px" viewBox="0 0 36 36" version="1.1" xmlns="http://www.w3.org/2000/svg" xmlns:xlink="http://www.w3.org/1999/xlink">
    <!-- Generator: Sketch 64 (93537) - https://sketch.com -->
    <title>maxxi-icon/easy-enviroment</title>
    <desc>Created with Sketch.</desc>
    <g id="maxxi-icon/easy-enviroment" stroke="none" stroke-width="1" fill="none" fill-rule="evenodd">
        <path d="M5.75642647,8.04704597 L7.70295403,8.50642647 L5.012,19.907 L5.00483285,20.0184112 C4.97452331,20.7855804 5.30056884,21.460146 6.10718045,22.4213586 L6.28742667,22.6318583 L10.6854267,26.7718583 C10.8574972,26.9338347 10.9657048,27.1505431 10.9931096,27.3827731 L11,27.5 L11,30 L9,30 L9,27.932 L4.85038742,24.0196048 C3.52432847,22.508575 2.92833702,21.3559329 3.00777825,19.8941459 L3.0272631,19.6475378 L3.04873622,19.5203097 L5.75642647,8.04704597 Z M10.9999995,16 L11.0018446,17.7275937 C11.0126234,19.5738084 11.0749222,20.0148377 11.2988754,20.3541823 C11.4282381,20.550199 11.660515,20.7534741 12.1285886,21.0630294 L14.2842554,22.4046769 C15.793031,23.358243 16.9111732,25.566086 16.9949522,27.7394449 L16.9999995,28 L16.9999995,30 L14.9999995,30 L14.9999995,28 C14.9999995,26.3971589 14.1708122,24.6989385 13.2156858,24.095286 L11.2105786,22.8501081 C11.1313923,22.8000391 11.0678082,22.7593007 11.0253488,22.7312206 C10.3518355,22.2858001 9.93886209,21.92439 9.62962416,21.4558177 L9.51825316,21.2791314 C9.1184396,20.6100286 9.02371831,19.9965921 9.0044278,18.1080351 L8.99999952,17 L8.99999952,16 L10.9999995,16 Z M30.2455735,8.04704597 L32.9532638,19.5203097 L32.9748664,19.648803 C33.127501,21.1493518 32.6047192,22.3056069 31.2965264,23.8422475 L31.0834267,24.0881417 L26.999,27.932 L27,30 L25,30 L25,27.5 C25,27.2636854 25.0836261,27.0363572 25.2339384,26.857226 L25.3145733,26.7718583 L29.6463874,22.7003952 C30.6498999,21.5569036 31.0308318,20.8334548 30.9964054,20.0074103 L30.989,19.907 L28.299046,8.50642647 L30.2455735,8.04704597 Z M27,16 L26.9990439,17.5855679 L26.9922069,18.3739474 C26.9640162,20.2099609 26.8424702,20.740477 26.3703757,21.4558176 C26.0611378,21.9243899 25.6481644,22.2858 24.9746512,22.7312206 L24.3464041,23.127172 C23.7785628,23.4800453 23.0277501,23.9414076 22.7842554,24.0953231 C21.874667,24.670195 21.0792557,26.2379059 21.0055648,27.7705024 L21,28 L21,30 L19,30 L19,28 C19,25.7447204 20.1466179,23.3963857 21.7156858,22.404714 L23.699503,21.1731668 C23.7744733,21.1258486 23.8335828,21.0880469 23.8714113,21.0630294 L24.1499857,20.8713178 C24.4376368,20.6634881 24.6005089,20.5066398 24.7011243,20.3541824 L24.7557812,20.262813 C24.9433593,19.9131679 24.9926936,19.3684352 24.9992082,17.4992198 L25,16 L27,16 Z M18,5.91793394 L24.9106279,11.9992865 L23.5893721,13.5007135 L22.9997817,12.9819339 L23,17 C23,17.5128358 22.6139598,17.9355072 22.1166211,17.9932723 L22,18 L14,18 C13.4871642,18 13.0644928,17.6139598 13.0067277,17.1166211 L13,17 L12.9997817,12.9809339 L12.4106279,13.5007135 L11.0893721,11.9992865 L18,5.91793394 Z M18,8.581 L14.9997817,11.2209339 L15,16 L21,16 L20.9997817,11.2209339 L18,8.581 Z" id="Combined-Shape" fill="#000000" fill-rule="nonzero"></path>
    </g>
</svg>