<?xml version="1.0" encoding="UTF-8"?>
<svg width="36px" height="36px" viewBox="0 0 36 36" version="1.1" xmlns="http://www.w3.org/2000/svg" xmlns:xlink="http://www.w3.org/1999/xlink">
    <!-- Generator: Sketch 64 (93537) - https://sketch.com -->
    <title>maxxi-icon/family</title>
    <desc>Created with Sketch.</desc>
    <g id="maxxi-icon/family" stroke="none" stroke-width="1" fill="none" fill-rule="evenodd">
        <path d="M19.666,28 L16.333,28 L17.544,23.845 C17.696,23.862 17.844,23.89 18,23.89 C18.156,23.89 18.304,23.862 18.456,23.845 L19.666,28 Z M18,18.042 C19.103,18.042 20,18.905 20,19.966 C20,21.027 19.103,21.89 18,21.89 C16.897,21.89 16,21.027 16,19.966 C16,18.905 16.897,18.042 18,18.042 L18,18.042 Z M5.018,12 C5.58,12 6.036,12.449 6.036,13 C6.036,13.551 5.58,14 5.018,14 C4.457,14 4,13.551 4,13 C4,12.449 4.457,12 5.018,12 L5.018,12 Z M29.232,8 C29.596,8 29.935,8.193 30.116,8.503 C30.294,8.81 30.294,9.19 30.116,9.496 C29.935,9.807 29.596,10 29.232,10 C28.671,10 28.214,9.551 28.214,9 C28.214,8.449 28.671,8 29.232,8 L29.232,8 Z M31.912,10.826 C31.848,10.769 31.774,10.731 31.707,10.68 C31.749,10.618 31.806,10.569 31.844,10.503 C32.384,9.576 32.384,8.424 31.844,7.496 C31.306,6.573 30.305,6 29.232,6 C27.568,6 26.214,7.346 26.214,9 C26.214,9.87 26.595,10.648 27.192,11.197 C26.557,11.99 26.043,13.29 26.02,15.432 L28.006,15.076 C28.088,13.26 28.626,12.1 29.482,11.992 C29.916,11.932 30.268,12.042 30.592,12.326 C31.34,12.984 31.856,14.534 31.976,16.398 L29.936,16.762 L21.583,18.255 C20.932,16.95 19.578,16.042 18,16.042 C15.915,16.042 14.217,17.621 14.036,19.621 L7.198,20.928 L4.018,21.538 C4.168,16.442 5.28,16.162 5.688,16.054 C7.106,15.838 7.788,18.044 7.968,18.744 L9.932,18.368 C9.584,16.878 8.821,15.324 7.588,14.551 C7.867,14.097 8.036,13.569 8.036,13 C8.036,11.346 6.682,10 5.018,10 C3.354,10 2,11.346 2,13 C2,14.024 2.52,14.929 3.311,15.47 C2.392,16.802 2,19.099 2,22.75 L2,23.958 L7.289,22.947 L6.128,25.01 L7.872,25.99 L9.86,22.455 L14.371,21.592 C14.661,22.213 15.109,22.744 15.667,23.14 L14.04,28.72 L14.014,28.833 C13.911,29.434 14.373,30 15,30 L21,30 L21.116,29.993 C21.721,29.925 22.136,29.322 21.96,28.72 L20.333,23.139 C21.272,22.473 21.895,21.418 21.974,20.216 L26.07,19.484 L28.543,21.957 L29.957,20.543 L28.469,19.055 L30.4,18.71 L34,18.068 L34,17.232 C34,15.858 33.796,12.484 31.912,10.826 L31.912,10.826 Z" id="Fill-1" fill="#000000"></path>
    </g>
</svg>