<?xml version="1.0" encoding="UTF-8"?>
<svg width="40px" height="40px" viewBox="0 0 40 40" version="1.1" xmlns="http://www.w3.org/2000/svg" xmlns:xlink="http://www.w3.org/1999/xlink">
    <!-- Generator: Sketch 64 (93537) - https://sketch.com -->
    <title>icon/legend/running</title>
    <desc>Created with Sketch.</desc>
    <g id="icon/legend/running" stroke="none" stroke-width="1" fill="none" fill-rule="evenodd">
        <circle id="Icon" fill="#FFFFFF" cx="20" cy="20" r="20"></circle>
        <path d="M19.0879,11.8518 C20.2239,12.2358 21.3599,12.6248 22.4939,13.0148 C22.5919,13.0488 22.6859,13.0998 22.7709,13.1578 C23.2799,13.5028 23.7779,13.8648 24.2939,14.1958 C24.6219,14.4048 24.8279,14.6908 24.9439,15.0458 C25.2509,15.9828 25.5549,16.9208 25.8519,17.8608 C25.9019,18.0198 25.9819,18.0908 26.1429,18.1288 C27.1309,18.3598 28.1139,18.6158 29.1039,18.8338 C29.5909,18.9408 29.7439,19.1568 29.8879,19.6558 L29.8879,20.0398 C29.8739,20.0768 29.8569,20.1118 29.8469,20.1498 C29.6899,20.8318 29.2199,21.1398 28.5429,20.9708 C27.2819,20.6578 26.2329,20.3308 24.9739,20.0048 C24.5829,19.9038 24.3129,19.6638 24.1919,19.2658 C24.0919,18.9318 23.9779,18.6038 23.8689,18.2728 C23.7749,17.9858 23.6799,17.6978 23.5729,17.3698 C22.8239,18.5838 22.1019,19.7558 21.3799,20.9308 C21.4429,20.9818 21.4849,21.0208 21.5309,21.0548 C22.3459,21.6478 23.1579,22.2498 23.9799,22.8348 C24.5459,23.2378 24.6979,23.9038 24.4419,24.4648 C23.6049,26.3008 22.8199,28.1598 22.0179,30.0118 C21.8879,30.3108 21.6919,30.5448 21.3969,30.6868 C21.3039,30.7318 21.2059,30.7638 21.1099,30.8008 L20.5879,30.8008 C20.1179,30.6488 19.7689,30.3728 19.6419,29.8728 C19.5629,29.5678 19.6099,29.2778 19.7389,28.9928 C20.3899,27.5508 21.0389,26.1068 21.6889,24.6628 C21.7279,24.5738 21.7619,24.4818 21.8029,24.3828 C21.2959,24.0088 20.7979,23.6398 20.2979,23.2728 C19.6069,22.7638 18.8949,22.2798 18.2319,21.7378 C17.7379,21.3338 17.5219,20.7768 17.6499,20.1208 C17.7689,19.5148 18.0759,18.9978 18.4079,18.4928 C19.1159,17.4158 19.8179,16.3378 20.5219,15.2608 C20.6419,15.0778 20.7609,14.8958 20.8949,14.6918 C20.6069,14.5878 20.3469,14.4928 20.0869,14.3998 C19.6989,14.2628 19.3119,14.1208 18.9219,13.9928 C18.8439,13.9678 18.7359,13.9748 18.6619,14.0118 C17.5509,14.5758 16.4429,15.1478 15.3349,15.7188 C15.0009,15.8908 14.6529,15.9268 14.3109,15.7818 C13.9569,15.6308 13.7799,15.3148 13.7329,14.9498 C13.6819,14.5678 13.8419,14.2418 14.1659,14.0428 C14.5899,13.7818 15.0359,13.5558 15.4749,13.3198 C16.3429,12.8528 17.2159,12.3948 18.0789,11.9208 C18.4119,11.7388 18.7459,11.7378 19.0879,11.8518 Z M16.754,21.4069 C17.173,22.1939 17.893,22.6359 18.594,23.1219 C18.244,23.6309 17.897,24.1409 17.546,24.6509 C17.445,24.7979 17.342,24.9449 17.23,25.0859 C17.039,25.3269 16.779,25.4419 16.477,25.4689 C16.356,25.4789 16.234,25.4829 16.112,25.4839 L12.9787407,25.4813074 C12.4565556,25.4817889 11.9343333,25.4835667 11.412,25.4879 C10.709,25.4929 10.18,25.1419 10.027,24.4719 C10.023,24.4559 10.009,24.4429 10,24.4279 L10,24.0449 C10.15,23.5569 10.454,23.2139 10.953,23.0739 C11.096,23.0339 11.251,23.0229 11.401,23.0229 C12.729,23.0189 14.058,23.0179 15.387,23.0239 C15.532,23.0249 15.62,22.9779 15.702,22.8619 C16.005,22.4309 16.316,22.0049 16.624,21.5769 C16.667,21.5169 16.714,21.4589 16.754,21.4069 Z M25.3936,9 C25.5856,9.059 25.7856,9.101 25.9686,9.18 C26.7676,9.522 27.2506,10.126 27.3616,10.989 C27.4706,11.833 27.1956,12.553 26.5176,13.078 C25.1796,14.113 23.3086,13.465 22.8856,11.832 C22.5606,10.582 23.4086,9.267 24.6876,9.038 C24.7376,9.03 24.7856,9.013 24.8366,9 L25.3936,9 Z" id="Combined-Shape" fill="#000000"></path>
    </g>
</svg>