<?xml version="1.0" encoding="UTF-8"?>
<svg width="40px" height="40px" viewBox="0 0 40 40" version="1.1" xmlns="http://www.w3.org/2000/svg" xmlns:xlink="http://www.w3.org/1999/xlink">
    <!-- Generator: Sketch 64 (93537) - https://sketch.com -->
    <title>icon/legend/cycling</title>
    <desc>Created with Sketch.</desc>
    <g id="icon/legend/cycling" stroke="none" stroke-width="1" fill="none" fill-rule="evenodd">
        <circle id="Icon" fill="#FFFFFF" cx="20" cy="20" r="20"></circle>
        <path d="M15.6809391,22.8955304 C14.685113,22.8955304 13.7209391,22.8845739 12.7592,22.906487 C12.6082435,22.9089217 12.4438957,23.0270087 12.3160696,23.1317043 C11.8169391,23.5261391 11.2240696,23.522487 10.8162435,23.1012696 C10.4461565,22.7190087 10.4254609,22.1480522 10.7663304,21.7365739 C11.1327652,21.2970957 11.7487652,21.2557043 12.2625043,21.5917043 C12.4682435,21.7268348 12.7348522,21.8266609 12.9783304,21.8351826 C13.8670261,21.8631826 14.7569391,21.8461391 15.6444174,21.8461391 C15.705287,20.1004 13.7598957,18.3790087 11.7025043,18.3035304 C9.49415652,18.2244 7.50250435,19.9835304 7.41363478,22.0932696 C7.31502609,24.4477043 9.01693913,26.3407478 11.3275478,26.4490957 C13.5626783,26.5562261 15.565287,24.9529217 15.6809391,22.8955304 M25.1230261,19.0570957 C23.3602435,20.1807478 22.8014609,22.4950087 23.8070261,24.3320522 C24.8478957,26.2287478 27.3179826,27.0139652 29.2901565,26.0729217 C31.2805913,25.1233565 32.1802435,22.9016174 31.3792,20.9002261 C30.5598957,18.8489217 28.2712,17.8287478 26.0543304,18.5701391 C26.5072,19.4430087 26.9466783,20.3146609 27.4129391,21.1717043 C27.4738087,21.2861391 27.6637217,21.3445739 27.8049391,21.3993565 C28.3698087,21.618487 28.6656348,22.1419652 28.5098087,22.6727478 C28.3552,23.1937913 27.761113,23.5310087 27.2376348,23.3946609 C26.6618087,23.2461391 26.3501565,22.7226609 26.4682435,22.122487 C26.4950261,21.9885739 26.5425043,21.8193565 26.4889391,21.7134435 C26.0458087,20.822313 25.5819826,19.9433565 25.1230261,19.0570957 M19.1225043,21.058487 C20.3021565,19.3967478 21.3795478,17.798313 22.5494609,16.2717043 C23.0315478,15.6410957 22.9901565,15.1894435 22.6870261,14.4882261 C22.2183304,13.4035304 22.077113,13.0054435 20.3873739,13.0687478 C20.3520696,13.0699652 20.3143304,13.0711826 20.2802435,13.0687478 C19.9369391,13.0529217 19.6618087,12.9153565 19.6642435,12.5428348 C19.6642435,12.1764 19.921113,12.0193565 20.2741565,12.0193565 C20.7392,12.0193565 21.2078957,12.0558783 21.6668522,12.0108348 C22.3084174,11.9450957 22.6675478,12.1837043 22.9548522,12.7753565 C23.7059826,14.3299652 24.5313739,15.8468348 25.3226783,17.3722261 C29.0466783,16.1925739 31.6908522,18.386313 32.4785043,20.5191826 C33.3781565,22.9612696 32.337287,25.7247478 30.013287,26.9896174 C27.6320696,28.2849217 24.6007652,27.6506609 22.9816348,25.5141391 C22.2329391,24.5244 21.853113,23.4007478 21.909113,22.1650957 C21.9906783,20.3280522 22.8696348,18.9134435 24.3938087,17.8604 C24.1503304,17.3917043 23.925113,16.958313 23.6901565,16.510313 C23.6146783,16.5760522 23.5805913,16.594313 23.561113,16.622313 C22.1964174,18.5433565 20.8256348,20.4607478 19.4743304,22.3915304 C19.2466783,22.7153565 18.9946783,22.8772696 18.589287,22.8577913 C18.0244174,22.8297913 17.4583304,22.850487 16.9032,22.850487 C16.3164174,26.490487 13.2510261,27.8856174 10.933113,27.6397043 C8.11241739,27.3402261 6.02215652,25.1075304 6.00002618,22.4134435 C5.97589565,19.7339652 8.00041739,17.4245739 10.6896348,17.0764 C13.3192,16.7355304 16.293287,18.2511826 16.9019826,21.7609217 L18.2313739,21.7609217 C17.7565913,20.1016174 17.2952,18.4934435 16.8338087,16.8828348 C16.5939826,16.0367478 16.5964174,16.0367478 15.7138087,15.9466609 C15.6261565,15.9393565 15.5238957,15.9210957 15.4581565,15.8955304 C15.1818087,15.7847478 14.9943304,15.4852696 15.0040696,15.2892696 C15.0150261,15.0871826 15.3278957,14.7256174 15.4958957,14.7317043 C16.5416348,14.7804 17.5873739,14.8838783 18.6197217,15.0494435 C18.7962435,15.0762261 19.0543304,15.5230087 19.0129391,15.7214435 C18.9715478,15.9198783 18.6562435,16.174313 18.3689391,16.1925739 C18.185113,16.2047478 17.9635478,16.1572696 17.7334609,16.1280522 C17.7687652,16.2911826 17.7858087,16.4129217 17.821113,16.5334435 C18.2435478,18.0052696 18.6672,19.478313 19.1225043,21.058487" id="Fill-1" fill="#000000"></path>
    </g>
</svg>