<?xml version="1.0" encoding="UTF-8"?>
<svg width="40px" height="40px" viewBox="0 0 40 40" version="1.1" xmlns="http://www.w3.org/2000/svg" xmlns:xlink="http://www.w3.org/1999/xlink">
    <!-- Generator: Sketch 64 (93537) - https://sketch.com -->
    <title>icon/legend/gate</title>
    <desc>Created with Sketch.</desc>
    <g id="icon/legend/gate" stroke="none" stroke-width="1" fill="none" fill-rule="evenodd">
        <circle id="Icon" fill="#FFFFFF" cx="20" cy="20" r="20"></circle>
        <path d="M12.2193806,14.9207613 L12.5282839,16.0297935 L12.5282839,18.7448903 L13.2982194,19.0201161 L13.2982194,17.2526323 L13.6071226,16.4571484 L13.9148645,17.4732774 L13.9148645,19.2407613 L14.6848,19.5159871 L14.6848,18.7936645 L14.9937032,18.1015355 L15.3014452,19.0143097 L15.3014452,19.7377935 L16.0713806,20.0130194 L16.0713806,18.2455355 L16.3802839,17.4512129 L16.6891871,18.4661806 L16.6891871,20.2348258 L17.4579613,20.5100516 L17.4579613,17.7961161 L17.7668645,16.907729 L18.0757677,18.0167613 L18.0757677,20.7306968 L18.8445419,21.0070839 L18.8445419,17.0749548 L19.1534452,16.0657935 L19.4623484,17.2967613 L19.4623484,30.8606323 L18.8445419,30.6388258 L18.8445419,29.0885032 L18.0757677,28.8132774 L18.0757677,30.3636 L17.4579613,30.1417935 L17.4579613,28.591471 L16.6891871,28.3162452 L16.6891871,29.8665677 L16.0713806,29.6459226 L16.0713806,28.0956 L15.3014452,27.8192129 L15.3014452,29.3695355 L14.6848,29.1488903 L14.6848,27.5985677 L13.9148645,27.3233419 L13.9148645,28.8736645 L13.2982194,28.6518581 L13.2982194,27.1015355 L12.5282839,26.8263097 L12.5282839,28.3766323 L11.9116387,28.1548258 L11.9116387,15.8091484 L12.2193806,14.9207613 Z M28.468271,14.9196 L28.7771742,15.8091484 L28.7771742,28.1548258 L28.160529,28.375471 L28.160529,26.8251484 L27.3905935,27.1015355 L27.3905935,28.6518581 L26.7739484,28.8725032 L26.7739484,27.3221806 L26.0040129,27.5974065 L26.0040129,29.147729 L25.3873677,29.3695355 L25.3873677,27.8192129 L24.6174323,28.0944387 L24.6174323,29.6447613 L23.9996258,29.8665677 L23.9996258,28.3162452 L23.2296903,28.591471 L23.2296903,30.1417935 L22.6130452,30.3624387 L22.6130452,28.8121161 L21.844271,29.0885032 L21.844271,30.6388258 L21.2264645,30.859471 L21.2264645,17.2956 L21.5353677,16.0646323 L21.844271,17.0749548 L21.844271,21.0059226 L22.6130452,20.7306968 L22.6130452,18.0167613 L22.9219484,16.9065677 L23.2296903,17.7949548 L23.2296903,20.5088903 L23.9996258,20.2336645 L23.9996258,18.4661806 L24.308529,17.4500516 L24.6174323,18.2455355 L24.6174323,20.0130194 L25.3873677,19.7377935 L25.3873677,19.0143097 L25.696271,18.1015355 L26.0040129,18.7936645 L26.0040129,19.5159871 L26.7739484,19.2407613 L26.7739484,17.4732774 L27.0816903,16.4571484 L27.3905935,17.251471 L27.3905935,19.0189548 L28.160529,18.743729 L28.160529,16.0286323 L28.468271,14.9196 Z M18.0757677,27.2141806 L18.0757677,28.3534065 L18.8445419,28.6297935 L18.8445419,27.4894065 L18.0757677,27.2141806 Z M22.6130452,27.2130194 L21.844271,27.4894065 L21.844271,28.6286323 L22.6130452,28.3534065 L22.6130452,27.2130194 Z M16.6891871,26.7171484 L16.6891871,27.8563742 L17.4579613,28.1327613 L17.4579613,26.9935355 L16.6891871,26.7171484 Z M23.9996258,26.7159871 L23.2296903,26.9923742 L23.2296903,28.1316 L23.9996258,27.8563742 L23.9996258,26.7159871 Z M33.3944645,12.2719742 L33.3944645,13.2404903 L32.788271,13.2404903 L32.788271,28.1293935 L29.2521419,28.1293935 L29.2521419,13.2404903 L28.6459484,13.2404903 L28.6459484,12.2719742 L33.3944645,12.2719742 Z M12.043329,12.2719742 L12.043329,13.2404903 L11.4382968,13.2404903 L11.4382968,28.1293935 L7.90100645,28.1293935 L7.90100645,13.2404903 L7.2948129,13.2404903 L7.2948129,12.2719742 L12.043329,12.2719742 Z M15.3014452,26.2201161 L15.3014452,27.3605032 L16.0713806,27.635729 L16.0713806,26.4965032 L15.3014452,26.2201161 Z M25.3873677,26.2201161 L24.6174323,26.4953419 L24.6174323,27.635729 L25.3873677,27.3593419 L25.3873677,26.2201161 Z M13.9148645,25.7230839 L13.9148645,26.863471 L14.6848,27.1386968 L14.6848,25.999471 L13.9148645,25.7230839 Z M26.7739484,25.7230839 L26.0040129,25.999471 L26.0040129,27.1386968 L26.7739484,26.8623097 L26.7739484,25.7230839 Z M18.0757677,22.8663097 L18.0757677,26.7519871 L18.8445419,27.0283742 L18.8445419,23.1426968 L18.0757677,22.8663097 Z M22.6130452,22.8663097 L21.844271,23.1415355 L21.844271,27.0272129 L22.6130452,26.7519871 L22.6130452,22.8663097 Z M12.5282839,25.2272129 L12.5282839,26.3664387 L13.2982194,26.6428258 L13.2982194,25.5024387 L12.5282839,25.2272129 Z M28.160529,25.2260516 L27.3905935,25.5024387 L27.3905935,26.6416645 L28.160529,26.3664387 L28.160529,25.2260516 Z M16.6891871,22.3692774 L16.6891871,26.2561161 L17.4579613,26.5313419 L17.4579613,22.6456645 L16.6891871,22.3692774 Z M23.9996258,22.3681161 L23.2296903,22.6445032 L23.2296903,26.5313419 L23.9996258,26.2549548 L23.9996258,22.3681161 Z M15.3014452,21.8734065 L15.3014452,25.7590839 L16.0713806,26.0343097 L16.0713806,22.1486323 L15.3014452,21.8734065 Z M25.3873677,21.8722452 L24.6174323,22.1486323 L24.6174323,26.0343097 L25.3873677,25.7579226 L25.3873677,21.8722452 Z M13.9148645,21.3763742 L13.9148645,25.2620516 L14.6848,25.5384387 L14.6848,21.6516 L13.9148645,21.3763742 Z M26.7739484,21.3752129 L26.0040129,21.6516 L26.0040129,25.5372774 L26.7739484,25.2620516 L26.7739484,21.3752129 Z M12.5282839,20.8793419 L12.5282839,24.7650194 L13.2982194,25.0414065 L13.2982194,21.155729 L12.5282839,20.8793419 Z M28.160529,20.8781806 L27.3905935,21.1545677 L27.3905935,25.0402452 L28.160529,24.7650194 L28.160529,20.8781806 Z M18.0757677,21.0895355 L18.0757677,21.9756 L18.8445419,22.2508258 L18.8445419,21.3647613 L18.0757677,21.0895355 Z M22.6130452,21.0883742 L21.844271,21.3647613 L21.844271,22.2496645 L22.6130452,21.9744387 L22.6130452,21.0883742 Z M23.9996258,20.5913419 L23.2296903,20.867729 L23.2296903,21.7537935 L23.9996258,21.4785677 L23.9996258,20.5913419 Z M16.6891871,20.5925032 L16.6891871,21.4785677 L17.4579613,21.7537935 L17.4579613,20.8688903 L16.6891871,20.5925032 Z M25.3873677,20.0943097 L24.6174323,20.3706968 L24.6174323,21.2567613 L25.3873677,20.9815355 L25.3873677,20.0943097 Z M15.3014452,20.095471 L15.3014452,20.9815355 L16.0713806,21.2567613 L16.0713806,20.3718581 L15.3014452,20.095471 Z M13.9148645,19.5996 L13.9148645,20.4856645 L14.6848,20.7608903 L14.6848,19.8748258 L13.9148645,19.5996 Z M26.7739484,19.5984387 L26.0040129,19.8748258 L26.0040129,20.759729 L26.7739484,20.4845032 L26.7739484,19.5984387 Z M12.5282839,19.1025677 L12.5282839,19.9886323 L13.2982194,20.2638581 L13.2982194,19.3777935 L12.5282839,19.1025677 Z M28.160529,19.1014065 L27.3905935,19.3777935 L27.3905935,20.2626968 L28.160529,19.987471 L28.160529,19.1014065 Z" id="Combined-Shape" fill="#000000"></path>
    </g>
</svg>