<?xml version="1.0" encoding="UTF-8"?>
<svg width="40px" height="40px" viewBox="0 0 40 40" version="1.1" xmlns="http://www.w3.org/2000/svg" xmlns:xlink="http://www.w3.org/1999/xlink">
    <!-- Generator: Sketch 64 (93537) - https://sketch.com -->
    <title>icon/legend/leisure</title>
    <desc>Created with Sketch.</desc>
    <g id="icon/legend/leisure" stroke="none" stroke-width="1" fill="none" fill-rule="evenodd">
        <circle id="Icon" fill="#FFFFFF" cx="20" cy="20" r="20"></circle>
        <path d="M28.2193333,15.1327167 C28.7198333,15.1327167 29.1246667,15.5247167 29.1246667,16.0077167 L29.1246667,16.31805 C29.1246667,16.80105 28.7198333,17.19305 28.2193333,17.19305 L25.7775,17.19305 L27.3291667,20.9823833 L33.0318333,20.9823833 C33.5311667,20.9823833 33.936,21.3743833 33.936,21.8573833 L33.936,22.1677167 C33.936,22.6507167 33.5311667,23.04155 33.0318333,23.04155 L28.1726667,23.04155 L29.8771667,27.2053833 L28.294,27.2053833 L26.5895,23.04155 L14.518,23.04155 L12.8135,27.2053833 L11.2303333,27.2053833 L12.9348333,23.04155 L8.07566667,23.04155 C7.57633333,23.04155 7.1715,22.6507167 7.1715,22.1677167 L7.1715,21.8573833 C7.1715,21.3743833 7.57633333,20.9823833 8.07566667,20.9823833 L13.7783333,20.9823833 L15.33,17.19305 L12.8881667,17.19305 C12.3888333,17.19305 11.984,16.80105 11.984,16.31805 L11.984,16.0077167 C11.984,15.5247167 12.3888333,15.1327167 12.8881667,15.1327167 L28.2193333,15.1327167 Z M24.1943333,17.19305 L16.9131667,17.19305 L15.3626667,20.9823833 L25.746,20.9823833 L24.1943333,17.19305 Z M7.64773333,14.0001167 C8.00473333,14.0001167 8.29406667,14.3932833 8.29406667,14.8751167 L8.29406667,18.6492833 L10.6367333,18.6492833 C11.1197333,18.6492833 11.5105667,18.9386167 11.5105667,19.2956167 C11.5105667,19.6526167 11.1197333,19.94195 10.6367333,19.94195 L7.87523333,19.94195 L7.73523333,19.9337833 L7.64773333,19.94195 C7.48323333,19.94195 7.3339,19.8602833 7.21956667,19.7237833 C7.08306667,19.60945 7.00023333,19.4601167 7.00023333,19.2956167 L7.00956667,19.20695 L7.00023333,19.0681167 L7.00023333,14.8751167 C7.00023333,14.3932833 7.28956667,14.0001167 7.64773333,14.0001167 Z M32.70645,14.0001167 C33.0646167,14.0001167 33.35395,14.3932833 33.35395,14.8751167 L33.35395,14.8751167 L33.35395,19.0681167 L33.3457833,19.20695 L33.35395,19.2956167 C33.35395,19.4601167 33.2711167,19.60945 33.1346167,19.7237833 C33.02145,19.8602833 32.87095,19.94195 32.70645,19.94195 L32.70645,19.94195 L32.61895,19.9337833 L32.47895,19.94195 L29.71745,19.94195 C29.2356167,19.94195 28.8436167,19.6526167 28.8436167,19.2956167 C28.8436167,18.9386167 29.2356167,18.6492833 29.71745,18.6492833 L29.71745,18.6492833 L32.0601167,18.6492833 L32.0601167,14.8751167 C32.0601167,14.3932833 32.34945,14.0001167 32.70645,14.0001167 Z" id="Combined-Shape" fill="#000000"></path>
    </g>
</svg>