<?xml version="1.0" encoding="UTF-8"?>
<svg width="36px" height="36px" viewBox="0 0 36 36" version="1.1" xmlns="http://www.w3.org/2000/svg" xmlns:xlink="http://www.w3.org/1999/xlink">
    <!-- Generator: Sketch 64 (93537) - https://sketch.com -->
    <title>maxxi-icon/lifestyle</title>
    <desc>Created with Sketch.</desc>
    <g id="maxxi-icon/lifestyle" stroke="none" stroke-width="1" fill="none" fill-rule="evenodd">
        <path d="M19.64,22 L19.94,22.28 C20.26,22.58 20.56,22.92 20.84,23.3 C21.18,23.74 21.48,24.2 21.74,24.7 C22.28,25.64 22.7,26.66 23.04,27.58 L23.04,27.58 L23.04,27.6 C23.38,28.56 23.64,29.42 23.78,30 L23.78,30 L21.72,30 C21.54,29.36 21.28,28.54 20.94,27.68 L20.94,27.68 L20.94,27.66 C20.42,26.36 19.72,24.98 18.84,24 L18.84,24 L17.14,24 C15.54,25.6 14.64,28.42 14.24,30 L14.24,30 L12.2,30 C12.52,28.52 13.38,25.46 15.12,23.28 L15.12,23.28 L15.14,23.28 C15.4,22.9 15.72,22.56 16.08,22.24 L16.08,22.24 L16.38,22 L19.64,22 Z M12.36,16 C12.12,16.62 12,17.3 12,18 L7,18 C6.44,18 6,18.44 6,19 L6,24.58 L8,26.58 L8,30 L6,30 L6,27.42 L4,25.42 L4,19 C4,17.34 5.34,16 7,16 L12.36,16 Z M28,18 L28.32,18.42 C30.48,21.42 32.32,26.72 33,30 L33,30 L30.94,30 C30.32,27.04 28.68,22.64 26.98,20 L26.98,20 L25,20 C24.34,20.94 23.78,22.14 23.3,23.4 C23.06,22.98 22.76,22.52 22.42,22.08 L22.42,22.08 L21.94,21.46 L21.94,21.46 L21.98,21.36 C22.18,20.92 22.38,20.5 22.6,20.1 C22.96,19.48 23.32,18.9 23.72,18.38 L23.72,18.38 L24.02,18 L28,18 Z M17.9999999,13 C19.4290624,13 20.7495705,13.7623957 21.4641017,15 C22.1786329,16.2376043 22.1786329,17.7623957 21.4641017,19 C20.7495705,20.2376043 19.4290624,21 17.9999999,21 C16.5709376,21 15.2504295,20.2376043 14.5358983,19 C13.8213671,17.7623957 13.8213671,16.2376043 14.5358983,15 C15.2504295,13.7623957 16.5709376,13 17.9999999,13 Z M17.9999999,15 C17.2854688,15 16.6252147,15.3811978 16.2679491,16 C15.9106835,16.6188022 15.9106835,17.3811978 16.2679491,18 C16.6252147,18.6188022 17.2854688,19 17.9999999,19 C18.7145312,19 19.3747853,18.6188022 19.7320509,18 C20.0893165,17.3811978 20.0893165,16.6188022 19.7320509,16 C19.3747853,15.3811978 18.7145312,15 17.9999999,15 Z M26,8 C28.209139,8 30,9.790861 30,12 C30,14.209139 28.209139,16 26,16 C23.790861,16 22,14.209139 22,12 C22,9.790861 23.790861,8 26,8 Z M26,10 C24.8954305,10 24,10.8954305 24,12 C24,13.1045695 24.8954305,14 26,14 C27.1045695,14 28,13.1045695 28,12 C28,10.8954305 27.1045695,10 26,10 Z M10,6 C12.209139,6 14,7.790861 14,10 C14,12.209139 12.209139,14 10,14 C7.790861,14 6,12.209139 6,10 C6,7.790861 7.790861,6 10,6 Z M10,8 C8.8954305,8 8,8.8954305 8,10 C8,11.1045695 8.8954305,12 10,12 C11.1045695,12 12,11.1045695 12,10 C12,8.8954305 11.1045695,8 10,8 Z" id="Combined-Shape" fill="#000000" fill-rule="nonzero"></path>
    </g>
</svg>