<?xml version="1.0" encoding="UTF-8"?>
<svg width="36px" height="36px" viewBox="0 0 36 36" version="1.1" xmlns="http://www.w3.org/2000/svg" xmlns:xlink="http://www.w3.org/1999/xlink">
    <!-- Generator: Sketch 64 (93537) - https://sketch.com -->
    <title>maxxi-icon/location</title>
    <desc>Created with Sketch.</desc>
    <g id="maxxi-icon/location" stroke="none" stroke-width="1" fill="none" fill-rule="evenodd">
        <path d="M31,28 L31,30 L5,30 L5,28 L31,28 Z M31,24 L31,26 L5,26 L5,24 L31,24 Z M13.7524808,6.34093266 L13.8320503,6.4452998 L20.106,15.856 L24.2000591,10.3999212 C24.5734184,9.90221085 25.2951436,9.86906446 25.7149091,10.3004501 L25.8,10.4 L31.8,18.4 L30.2,19.6 L24.999,12.666 L21.282,17.621 L21.8320503,18.4452998 L20.1679497,19.5547002 L13,8.803 L5.83205029,19.5547002 L4.16794971,18.4452998 L12.1679497,6.4452998 C12.514294,5.92578337 13.2255615,5.86084381 13.6631366,6.25048114 L13.7524808,6.34093266 Z" id="Shape" fill="#000000" fill-rule="nonzero"></path>
    </g>
</svg>