<?xml version="1.0" encoding="UTF-8"?>
<svg width="191px" height="139px" viewBox="0 0 191 139" version="1.1" xmlns="http://www.w3.org/2000/svg" xmlns:xlink="http://www.w3.org/1999/xlink">
    <title>quotation-marks-image@x2</title>
    <g id="quotation-marks-image" stroke="none" stroke-width="1" fill="none" fill-rule="evenodd">
        <path d="M149.892388,139 C161.923885,139 171.783027,135.416667 179.469816,128.25 C187.156605,121.083333 191,111.833333 191,100.5 C191,88.5 187.32371,79.0833333 179.971129,72.25 C172.618548,65.4166667 163.093613,62 151.396325,62 C139.364829,62 129.672791,66 122.32021,74 C121.317585,71 120.816273,67.8333333 120.816273,64.5 C120.816273,60.8333333 121.317585,57 122.32021,53 C123.657043,44.3333333 127.918198,35.8333333 135.103675,27.5 C142.289151,19.1666667 150.727909,13 160.419948,9 L160.419948,9 L155.908136,0 C138.529309,8 125.411636,19 116.555118,33 C107.6986,47 103.270341,62.6666667 103.270341,80 C103.270341,88 104.272966,95.6666667 106.278215,103 C108.283465,110.333333 110.95713,116.5 114.299213,121.5 C121.651794,133.166667 133.516185,139 149.892388,139 Z M46.6220472,139 C58.6535433,139 68.5126859,135.416667 76.1994751,128.25 C83.8862642,121.083333 87.7296588,111.833333 87.7296588,100.5 C87.7296588,88.5 84.0533683,79.0833333 76.7007874,72.25 C69.3482065,65.4166667 59.8232721,62 48.1259843,62 C36.0944882,62 26.4024497,66 19.0498688,74 C18.0472441,71 17.5459318,67.8333333 17.5459318,64.5 C17.5459318,60.8333333 18.0472441,57 19.0498688,53 C20.3867017,44.3333333 24.6478565,35.8333333 31.8333333,27.5 C39.0188101,19.1666667 47.4575678,13 57.1496063,9 L57.1496063,9 L52.6377953,0 C35.2589676,8 22.1412948,19 13.2847769,33 C4.42825897,47 0,62.6666667 0,80 C0,88 1.00262467,95.6666667 3.00787402,103 C5.01312336,110.333333 7.68678915,116.5 11.0288714,121.5 C18.3814523,133.166667 30.2458443,139 46.6220472,139 Z" id="“" fill="#9e9e9e"></path>
    </g>
</svg>