<?xml version="1.0" encoding="UTF-8"?>
<svg width="36px" height="36px" viewBox="0 0 36 36" version="1.1" xmlns="http://www.w3.org/2000/svg" xmlns:xlink="http://www.w3.org/1999/xlink">
    <!-- Generator: Sketch 64 (93537) - https://sketch.com -->
    <title>maxxi-icon/security</title>
    <desc>Created with Sketch.</desc>
    <g id="maxxi-icon/security" stroke="none" stroke-width="1" fill="none" fill-rule="evenodd">
        <path d="M18,4 C20.4326845,4 23.937828,4.66021365 27.7452168,5.62955228 C29.0730075,5.97124107 30,7.1655849 30,8.536 L30,8.536 L30,15 C30,19.2105546 27.8216369,23.262706 24.2237798,27.036531 C22.9840726,28.3368712 21.6587665,29.5119599 20.3330382,30.5440193 C19.8683244,30.9057919 19.4360215,31.2243478 19.0467892,31.4972855 C18.8889328,31.6079777 18.7598011,31.6961629 18.6625579,31.7611126 L18.6625579,31.7611126 L18.0064445,32.1848875 L17.4681754,31.8468545 C17.3708936,31.7857616 17.1983006,31.672618 16.961073,31.5096333 L16.961073,31.5096333 L16.7221405,31.343549 C16.3968998,31.1148985 16.0454582,30.8575208 15.6732731,30.5725172 C14.3462231,29.5563186 13.0196419,28.3942817 11.7787436,27.1021681 C8.17940532,23.3542754 6,19.2835425 6,15 L6,15 L6,8.536 C6,7.16241533 6.92647803,5.96760829 8.25727729,5.62891388 C12.062172,4.66021365 15.5673155,4 18,4 Z M18,6 C15.788735,6 12.3957361,6.63909059 8.75064201,7.56710666 C8.3070604,7.68000018 8,8.07599222 8,8.536 L8,8.536 L8,15 C8,18.6719575 9.94559468,22.3059746 13.2212564,25.7168319 C14.3866081,26.9302808 15.6381519,28.0265876 16.8892269,28.9846078 C17.1514943,29.185441 17.4022268,29.3712603 17.6390862,29.5415336 L17.6390862,29.5415336 L17.993,29.791 L18.3536716,29.5333467 C18.5117846,29.4175336 18.6760635,29.29477 18.8458155,29.1652289 L18.8458155,29.1652289 L19.1044618,28.9658557 C20.3568585,27.9908839 21.6096774,26.8800663 22.7762202,25.656469 C26.0533631,22.219044 28,18.5979454 28,15 L28,15 L28,8.536 C28,8.07865072 27.6912211,7.68081774 27.2492773,7.56708612 C23.6042639,6.63909059 20.211265,6 18,6 Z M25.2928932,10.5428932 L26.7071068,11.9571068 L16.75,21.9142136 L10.7928932,15.9571068 L12.2071068,14.5428932 L16.75,19.085 L25.2928932,10.5428932 Z" id="Combined-Shape" fill="#000000" fill-rule="nonzero"></path>
    </g>
</svg>