<svg xmlns="http://www.w3.org/2000/svg" width="35" height="35" viewBox="0 0 35 35">
    <path fill-rule="evenodd" d="M17.5.5c9.389 0 17 7.611 17 17s-7.611 17-17 17-17-7.611-17-17 7.611-17 17-17zm-3.641 14.757h-2.655V23.8h2.655v-8.543zm6.76-.212c-1.292 0-2.158.708-2.512 1.38h-.036v-1.168h-2.547V23.8h2.653v-4.226c0-1.115.212-2.194 1.594-2.194 1.361 0 1.38 1.275 1.38 2.266V23.8h2.653v-4.685c0-2.3-.497-4.07-3.185-4.07zm-8.115-4.104c-.855 0-1.548.693-1.548 1.547s.692 1.548 1.548 1.548c.853 0 1.547-.694 1.547-1.548 0-.853-.694-1.547-1.547-1.547z"/>
</svg>
