<?xml version="1.0" encoding="UTF-8"?>
<svg width="70px" height="70px" viewBox="0 0 70 70" version="1.1" xmlns="http://www.w3.org/2000/svg" xmlns:xlink="http://www.w3.org/1999/xlink">
    <!-- Generator: Sketch 64 (93537) - https://sketch.com -->
    <title>icon/social-twitter</title>
    <desc>Created with Sketch.</desc>
    <g id="icon/social-twitter" stroke="none" stroke-width="1" fill="none" fill-rule="evenodd">
        <path d="M55.0298516,22.8309219 C54.0745312,24.2601172 52.9141484,25.5329922 51.5823047,26.6146172 C51.2311484,26.9000313 51.0302031,27.3185234 51.0302031,27.7633125 L51.0302031,27.8955938 C51.0302031,30.6657969 50.4919141,33.5684141 49.4739062,36.28775 C48.4056953,39.1414922 46.8653359,41.7211094 44.8950625,43.9562109 C42.7805547,46.3552031 40.2648203,48.2400781 37.4181172,49.5587734 C34.3128281,50.9976641 30.8745781,51.7268047 27.1989922,51.7268047 C23.000125,51.7268047 18.8654062,50.6121094 15.2409531,48.5026484 C14.9771875,48.3493828 14.8346797,48.0380703 14.9122422,47.743625 C14.9903359,47.4443984 15.2517109,47.2427891 15.5611641,47.2427891 L16.5638984,47.2433203 C19.7804844,47.2433203 22.8712969,46.3035391 25.5252891,44.5218594 C22.3274297,44.0029609 19.6552422,41.7152656 18.660875,38.6113047 C18.5559531,38.2840547 18.8400391,37.9635781 19.1780469,38.0277266 C19.6614844,38.1206953 20.1532891,38.1670469 20.6388516,38.1670469 C20.7006094,38.1670469 20.7622344,38.1665156 20.8239922,38.1650547 C17.7614687,36.7660078 15.7169531,33.6588594 15.7594531,30.1669531 C15.7638359,29.8237656 16.1327891,29.6091406 16.4330781,29.7758203 C17.0535781,30.1206016 17.7212266,30.378125 18.4110547,30.5418828 C16.7708203,28.9266172 15.8259922,26.7114375 15.8259922,24.3610547 C15.8259922,22.8273359 16.232,21.3200469 16.9999219,20.00175 C17.1594297,19.7285547 17.5433906,19.6984063 17.7431406,19.9438438 C21.6653594,24.7559063 27.2151953,27.7205469 33.3694609,28.2925703 C33.3795547,28.2935 33.3901797,28.2940313 33.4002734,28.2940313 C33.4908516,28.2940313 33.5778437,28.2543203 33.6396016,28.1853906 C33.6746641,28.1462109 33.7311094,28.0625391 33.7176953,27.9422109 C33.5989609,26.8971094 33.6677578,25.8225234 33.9230234,24.7496641 C34.6039531,21.8884844 36.7733125,19.5691797 39.5846875,18.6973984 C40.4920625,18.4159688 41.4160391,18.2733281 42.3316484,18.2733281 C44.4469531,18.2733281 46.4845625,19.0421797 48.0684844,20.4383047 C48.2763359,20.6210547 48.5394375,20.7217266 48.8110391,20.7217266 C48.9008203,20.7217266 48.9896719,20.7107031 49.0758672,20.6887891 C50.5648281,20.3118672 51.9911016,19.7231094 53.3155078,18.9375234 C53.6739687,18.7247578 54.1056094,19.0684766 53.9785078,19.4654531 C53.5337187,20.8567969 52.7452109,22.103375 51.696125,23.0998672 C52.648125,22.8736875 53.5756875,22.5611797 54.4693828,22.1646016 C54.8842891,21.9806563 55.2823281,22.4537344 55.0298516,22.8309219 M35,1 C16.2223047,1 1,16.2223047 1,35 C1,53.7776953 16.2223047,69 35,69 C53.7775625,69 69,53.7776953 69,35 C69,16.2223047 53.7775625,1 35,1" id="icn-twitter" fill="#FFFFFF"></path>
    </g>
</svg>