<svg xmlns="http://www.w3.org/2000/svg" width="35" height="35" viewBox="0 0 35 35">
    <path fill-rule="evenodd" d="M17.5.5c9.389 0 17 7.611 17 17s-7.611 17-17 17-17-7.611-17-17 7.611-17 17-17zm1.87 18.075l-1.558.908c-.19.114-.388.114-.596 0l-1.36-.766c-.057-.038-.104-.038-.142 0l-5.187 4.827c-.02.02-.029.057-.029.114 0 .019.02.047.057.085.113.038.189.057.227.057h13.294c.038 0 .076-.019.114-.057 0-.076-.01-.123-.029-.142l-4.648-4.998c-.02-.057-.067-.066-.142-.028zm5.245-3.039h-.113l-3.856 2.3c-.037 0-.056.029-.056.086-.02.018-.01.047.028.085l3.855 4.174c.038.038.066.057.085.057h.057c.057-.057.085-.095.085-.113V15.65c0-.038-.028-.076-.085-.114zm-14.258.114c-.038 0-.057.028-.057.085v6.105c0 .057.028.095.085.114h.057c.038 0 .056-.01.056-.028l4.082-3.777c.02-.02.029-.048.029-.085 0-.057-.02-.086-.057-.086l-4.054-2.328c-.056-.02-.104-.02-.141 0zm13.861-3.55H10.782c-.132 0-.246.043-.34.128-.095.085-.142.203-.142.355v1.505c0 .076.028.113.085.113l7.058 4.033.057.028c.038 0 .066-.01.085-.028l6.832-4.033c.037-.019.066-.028.085-.028.018 0 .047-.01.085-.028.075 0 .113-.038.113-.114v-1.448c0-.152-.047-.27-.142-.355-.094-.085-.208-.128-.34-.128z"/>
</svg>
