<svg xmlns="http://www.w3.org/2000/svg" width="35" height="35" viewBox="0 0 35 35">
    <path fill-rule="evenodd" d="M27.515 11.415c-.478.715-1.058 1.351-1.724 1.892-.175.143-.276.352-.276.575v.066c0 1.385-.269 2.836-.778 4.196-.534 1.427-1.304 2.717-2.29 3.834-1.057 1.2-2.315 2.142-3.738 2.801-1.553.72-3.272 1.084-5.11 1.084-2.099 0-4.166-.557-5.979-1.612-.131-.076-.203-.232-.164-.38.04-.149.17-.25.325-.25h.5c1.61 0 3.155-.47 4.482-1.36-1.6-.26-2.935-1.403-3.433-2.955-.052-.164.09-.324.259-.292.242.046.488.07.73.07l.093-.001c-1.531-.7-2.554-2.254-2.532-4 .002-.171.186-.278.337-.195.31.172.644.301.989.383-.82-.808-1.293-1.915-1.293-3.09 0-.767.203-1.521.587-2.18.08-.137.272-.152.372-.03 1.96 2.407 4.736 3.89 7.813 4.175l.015.001c.045 0 .089-.02.12-.054.017-.02.046-.062.039-.122-.06-.522-.025-1.06.103-1.596.34-1.43 1.425-2.59 2.83-3.026.454-.141.916-.212 1.374-.212 1.057 0 2.076.384 2.868 1.082.104.092.236.142.372.142.044 0 .089-.006.132-.017.744-.188 1.458-.482 2.12-.875.179-.107.395.065.331.264-.222.695-.616 1.319-1.14 1.817.475-.113.939-.27 1.386-.468.207-.092.406.145.28.333M17.5.5C8.111.5.5 8.111.5 17.5s7.611 17 17 17 17-7.611 17-17-7.611-17-17-17"/>
</svg>
