<?xml version="1.0" encoding="UTF-8"?>
<svg width="330px" height="90px" viewBox="0 0 330 90" version="1.1" xmlns="http://www.w3.org/2000/svg" xmlns:xlink="http://www.w3.org/1999/xlink">
    <title>westbrook-logo@x2</title>
    <g id="westbrook-logo" stroke="none" stroke-width="1" fill="none" fill-rule="evenodd">
        <path d="M115.5848,81.1404 C115.9738,81.1404 116.3018,81.1914 116.5678,81.2944 C116.8448,81.3864 117.0448,81.4734 117.1678,81.5554 C117.5978,81.8004 117.9308,82.1084 118.1668,82.4774 C118.4128,82.8364 118.5918,83.2004 118.7048,83.5674 C118.8278,83.9374 118.8988,84.2754 118.9198,84.5834 C118.9398,84.8804 118.9508,85.0904 118.9508,85.2134 C118.9508,85.5414 118.9198,85.8794 118.8578,86.2274 C118.7968,86.5654 118.6988,86.8934 118.5658,87.2114 C118.4428,87.5184 118.2738,87.8104 118.0588,88.0874 C117.8538,88.3544 117.6078,88.5794 117.3218,88.7634 C117.1468,88.8764 116.9678,88.9684 116.7838,89.0394 C116.6088,89.1014 116.4448,89.1474 116.2918,89.1784 C116.1378,89.2184 115.9998,89.2454 115.8768,89.2554 C115.7538,89.2654 115.6558,89.2704 115.5848,89.2704 C115.4618,89.2704 115.2568,89.2494 114.9698,89.2084 C114.6928,89.1784 114.3958,89.0754 114.0788,88.9014 C113.7398,88.7174 113.4528,88.4914 113.2178,88.2254 C112.9818,87.9494 112.7878,87.6464 112.6338,87.3174 C112.4908,86.9904 112.3828,86.6474 112.3108,86.2884 C112.2498,85.9204 112.2188,85.5564 112.2188,85.1974 C112.2188,84.8594 112.2498,84.5224 112.3108,84.1834 C112.3728,83.8454 112.4648,83.5224 112.5878,83.2154 C112.7208,82.9084 112.8898,82.6204 113.0948,82.3544 C113.2998,82.0784 113.5508,81.8424 113.8478,81.6474 C113.9908,81.5554 114.2068,81.4484 114.4938,81.3254 C114.7908,81.2014 115.1538,81.1404 115.5848,81.1404 Z M184.8202,81.1561 C185.0462,81.1651 185.2862,81.2121 185.5432,81.2941 C185.8092,81.3761 186.0652,81.5091 186.3112,81.6931 C186.5572,81.8781 186.7412,82.1391 186.8642,82.4771 C186.9362,82.6821 186.9772,82.9021 186.9872,83.1381 C187.0082,83.3741 187.0232,83.7121 187.0332,84.1521 L187.0332,87.7331 C187.0442,87.9281 187.0542,88.1071 187.0642,88.2721 C187.0852,88.4251 187.1052,88.5681 187.1262,88.7021 C187.1562,88.8261 187.1972,88.9481 187.2492,89.0711 L186.1572,89.0711 C186.1272,88.9581 186.1012,88.8601 186.0812,88.7781 C186.0592,88.6981 186.0452,88.6251 186.0342,88.5631 C186.0242,88.4921 186.0152,88.4151 186.0042,88.3331 C185.9932,88.2511 185.9832,88.1531 185.9732,88.0411 C185.9012,88.1741 185.8302,88.2871 185.7582,88.3791 C185.6862,88.4711 185.5942,88.5681 185.4812,88.6711 C185.3272,88.8141 185.1122,88.9481 184.8362,89.0711 C184.5592,89.2031 184.1852,89.2701 183.7142,89.2701 C183.3142,89.2701 182.9862,89.2241 182.7302,89.1321 C182.4842,89.0391 182.2902,88.9481 182.1452,88.8551 C182.0542,88.7941 181.9512,88.7171 181.8392,88.6251 C181.7362,88.5221 181.6392,88.3991 181.5472,88.2561 C181.4552,88.1121 181.3782,87.9431 181.3162,87.7481 C181.2552,87.5441 181.2242,87.3081 181.2242,87.0421 C181.2242,86.9391 181.2342,86.8111 181.2552,86.6591 C181.2752,86.4941 181.3212,86.3251 181.3932,86.1501 C181.4652,85.9761 181.5672,85.7971 181.7002,85.6141 C181.8442,85.4281 182.0332,85.2591 182.2692,85.1051 C182.4942,84.9521 182.7612,84.8181 183.0682,84.7051 C183.3862,84.5931 183.7092,84.4951 184.0362,84.4131 C184.3752,84.3321 184.7082,84.2601 185.0352,84.2001 C185.3632,84.1371 185.6552,84.0861 185.9112,84.0451 L185.9112,83.7061 C185.9112,83.4811 185.9062,83.3231 185.8962,83.2301 C185.8872,83.1281 185.8602,83.0201 185.8192,82.9091 C185.7072,82.5901 185.5072,82.3801 185.2212,82.2771 C184.9432,82.1641 184.6562,82.1081 184.3592,82.1081 C184.2662,82.1081 184.1342,82.1191 183.9602,82.1391 C183.7852,82.1491 183.6062,82.1961 183.4222,82.2771 C183.2482,82.3491 183.0842,82.4721 182.9312,82.6461 C182.7862,82.8111 182.6892,83.0511 182.6392,83.3691 L181.5012,83.3691 C181.5012,83.3171 181.5122,83.2251 181.5312,83.0921 C181.5522,82.9491 181.5932,82.8001 181.6542,82.6461 C181.7262,82.4621 181.8292,82.2831 181.9622,82.1081 C182.0952,81.9241 182.2692,81.7601 182.4842,81.6181 C182.6992,81.4731 182.9612,81.3601 183.2682,81.2781 C183.5862,81.1861 183.9602,81.1401 184.3902,81.1401 C184.4512,81.1401 184.5962,81.1451 184.8202,81.1561 Z M193.6129,78.1585 L193.6129,82.4775 C193.6739,82.3745 193.7559,82.2465 193.8579,82.0925 C193.9709,81.9385 194.1139,81.7955 194.2889,81.6625 C194.4729,81.5185 194.6879,81.3945 194.9339,81.2935 C195.1799,81.1905 195.4719,81.1405 195.8099,81.1405 C195.9229,81.1405 196.1019,81.1605 196.3479,81.2015 C196.5939,81.2315 196.8499,81.3245 197.1159,81.4775 C197.3209,81.6005 197.5209,81.7645 197.7159,81.9705 C197.9209,82.1645 198.1049,82.4155 198.2689,82.7235 C198.4329,83.0195 198.5609,83.3735 198.6529,83.7835 C198.7559,84.1925 198.8069,84.6655 198.8069,85.1975 C198.8069,85.3105 198.7969,85.5195 198.7769,85.8275 C198.7659,86.1245 198.7149,86.4365 198.6229,86.7655 C198.5299,87.1235 198.3969,87.4565 198.2229,87.7635 C198.0489,88.0605 197.8389,88.3225 197.5929,88.5475 C197.3469,88.7725 197.0599,88.9475 196.7319,89.0705 C196.4149,89.2035 196.0659,89.2695 195.6869,89.2695 C195.3489,89.2695 195.0569,89.2245 194.8109,89.1315 C194.5739,89.0395 194.3759,88.9265 194.2119,88.7935 C194.0479,88.6495 193.9149,88.5075 193.8119,88.3635 C193.7099,88.2205 193.6279,88.0925 193.5659,87.9785 C193.5659,88.0715 193.5609,88.2205 193.5509,88.4255 C193.5409,88.6195 193.4999,88.8355 193.4279,89.0705 L192.3369,89.0705 C192.4079,88.8045 192.4489,88.5125 192.4599,88.1935 C192.468471,87.9217857 192.473369,87.5626429 192.474594,87.1173309 L192.4749,78.1585 L193.6129,78.1585 Z M206.6598,81.1394 C207.0598,81.1394 207.4078,81.2014 207.7038,81.3244 C208.0028,81.4374 208.2538,81.5754 208.4588,81.7394 C208.6738,81.9014 208.8428,82.0774 208.9658,82.2624 C209.0988,82.4364 209.2008,82.5844 209.2728,82.7074 C209.4578,83.0654 209.5858,83.4604 209.6568,83.8904 C209.7388,84.3104 209.7798,84.7154 209.7798,85.1054 L209.7798,85.4124 L204.5088,85.4124 C204.5088,85.4634 204.5138,85.5964 204.5238,85.8124 C204.5338,86.0264 204.5748,86.2734 204.6468,86.5504 C204.7188,86.8154 204.8308,87.0874 204.9848,87.3644 C205.1388,87.6304 205.3588,87.8454 205.6458,88.0094 C205.8718,88.1424 206.0918,88.2254 206.3068,88.2554 C206.5218,88.2764 206.6708,88.2864 206.7528,88.2864 C206.8348,88.2864 206.9508,88.2804 207.1058,88.2714 C207.2598,88.2504 207.4288,88.1994 207.6128,88.1174 C207.7668,88.0454 207.8948,87.9634 207.9978,87.8714 C208.0998,87.7794 208.1868,87.6874 208.2588,87.5954 C208.3308,87.4924 208.3868,87.4004 208.4278,87.3174 C208.4788,87.2364 208.5148,87.1694 208.5348,87.1184 L209.5958,87.2564 C209.5648,87.3484 209.5138,87.4774 209.4418,87.6404 C209.3688,87.7944 209.2728,87.9584 209.1498,88.1334 C209.0268,88.3074 208.8678,88.4754 208.6738,88.6394 C208.4888,88.8034 208.2588,88.9374 207.9818,89.0394 C207.8678,89.0904 207.7038,89.1414 207.4898,89.1924 C207.2848,89.2444 207.0288,89.2694 206.7218,89.2694 C206.6088,89.2694 206.4538,89.2594 206.2608,89.2384 C206.0658,89.2184 205.8508,89.1724 205.6148,89.1004 C205.3898,89.0294 205.1538,88.9214 204.9078,88.7774 C204.6608,88.6244 204.4318,88.4144 204.2168,88.1484 C204.1138,88.0254 204.0118,87.8764 203.9088,87.7024 C203.8068,87.5264 203.7088,87.3284 203.6168,87.1034 C203.5348,86.8674 203.4688,86.6004 203.4168,86.3044 C203.3658,86.0064 203.3408,85.6734 203.3408,85.3044 C203.3408,85.2024 203.3458,85.0024 203.3558,84.7054 C203.3768,84.4084 203.4378,84.0754 203.5398,83.7064 C203.6428,83.3274 203.8068,82.9484 204.0318,82.5684 C204.2578,82.1904 204.5748,81.8674 204.9848,81.6004 C205.3328,81.3754 205.6598,81.2424 205.9688,81.2014 C206.2848,81.1604 206.5168,81.1394 206.6598,81.1394 Z M134.0117,79.126 L133.9647,81.354 L135.8097,81.354 L135.7947,82.276 L133.9497,82.276 L133.8887,86.196 C133.8787,86.38 133.8727,86.565 133.8727,86.75 L133.8727,87.317 C133.8837,87.575 133.9137,87.744 133.9647,87.826 C134.0067,87.927 134.0627,88.004 134.1347,88.055 C134.2167,88.107 134.2937,88.148 134.3647,88.179 C134.4467,88.2 134.5187,88.214 134.5797,88.224 L134.7337,88.224 C134.8257,88.224 134.9747,88.209 135.1797,88.179 C135.3947,88.148 135.6197,88.077 135.8557,87.963 L135.8407,88.978 C135.5947,89.06 135.3687,89.122 135.1637,89.163 C134.9697,89.204 134.7387,89.223 134.4727,89.223 C133.9607,89.223 133.5757,89.136 133.3197,88.962 C133.0737,88.778 132.9047,88.579 132.8127,88.364 C132.7717,88.261 132.7407,88.133 132.7207,87.979 C132.6997,87.826 132.6897,87.63 132.6897,87.395 C132.6897,87.189 132.6947,86.985 132.7047,86.781 C132.7157,86.576 132.7257,86.371 132.7357,86.166 L132.8277,82.276 L131.6597,82.276 L131.6757,81.354 L132.8437,81.354 L132.8897,79.126 L134.0117,79.126 Z M216.4033,79.126 L216.3563,81.354 L218.2013,81.354 L218.1863,82.276 L216.3423,82.276 L216.2803,86.196 C216.2703,86.38 216.2643,86.565 216.2643,86.75 L216.2643,87.317 C216.2753,87.575 216.3053,87.744 216.3563,87.826 C216.3983,87.927 216.4553,88.004 216.5263,88.055 C216.6083,88.107 216.6853,88.148 216.7573,88.179 C216.8393,88.2 216.9103,88.214 216.9723,88.224 L217.1263,88.224 C217.2183,88.224 217.3663,88.209 217.5713,88.179 C217.7863,88.148 218.0123,88.077 218.2483,87.963 L218.2323,88.978 C217.9863,89.06 217.7613,89.122 217.5563,89.163 C217.3613,89.204 217.1313,89.223 216.8643,89.223 C216.3523,89.223 215.9683,89.136 215.7123,88.962 C215.4663,88.778 215.2973,88.579 215.2053,88.364 C215.1643,88.261 215.1333,88.133 215.1123,87.979 C215.0923,87.826 215.0823,87.63 215.0823,87.395 C215.0823,87.189 215.0873,86.985 215.0973,86.781 C215.1073,86.576 215.1173,86.371 215.1283,86.166 L215.2203,82.276 L214.0523,82.276 L214.0673,81.354 L215.2353,81.354 L215.2813,79.126 L216.4033,79.126 Z M159.9547,78.1593 L159.9547,89.0713 L158.7557,89.0713 L158.7557,78.1593 L159.9547,78.1593 Z M177.045,81.354 L177.045,82.184 L172.603,88.118 L176.952,88.118 L176.952,89.071 L171.266,89.071 L171.266,88.179 L175.631,82.292 L171.604,82.292 L171.604,81.354 L177.045,81.354 Z M127.0956,81.139 C127.2696,81.139 127.4286,81.161 127.5726,81.202 C127.7156,81.243 127.8646,81.303 128.0176,81.385 L128.0176,82.523 C127.9666,82.502 127.8386,82.446 127.6336,82.353 C127.4286,82.262 127.2086,82.215 126.9726,82.215 C126.7576,82.215 126.5626,82.266 126.3886,82.37 C126.2246,82.461 126.0816,82.569 125.9586,82.691 C125.8456,82.815 125.7536,82.937 125.6816,83.061 C125.6106,83.174 125.5636,83.25 125.5436,83.291 C125.3596,83.661 125.2516,84.04 125.2206,84.429 C125.1906,84.818 125.1696,85.212 125.1596,85.613 L125.1596,89.071 L124.0066,89.071 L124.0066,83.077 C124.0066,82.84 124.0016,82.636 123.9916,82.461 C123.9806,82.288 123.9656,82.124 123.9456,81.969 C123.9356,81.805 123.9146,81.6 123.8836,81.354 L124.9596,81.354 C125.0516,81.754 125.0976,82.144 125.0976,82.523 L125.0976,82.769 C125.0976,82.84 125.0926,82.917 125.0826,83 C125.3796,82.313 125.6876,81.832 126.0046,81.554 C126.3326,81.278 126.6966,81.139 127.0956,81.139 Z M103.0285,78.2205 C103.4075,78.2205 103.7405,78.2255 104.0275,78.2345 C104.3245,78.2345 104.5855,78.2455 104.8105,78.2665 C105.0465,78.2865 105.2565,78.3165 105.4415,78.3575 C105.6355,78.3895 105.8205,78.4355 105.9945,78.4965 C106.6605,78.7315 107.1475,79.1225 107.4545,79.6645 C107.7725,80.1975 107.9305,80.8015 107.9305,81.4785 C107.9305,81.5905 107.9205,81.7545 107.9005,81.9705 C107.8795,82.1855 107.8235,82.4265 107.7315,82.6915 C107.6385,82.9485 107.5005,83.2095 107.3165,83.4765 C107.1315,83.7315 106.8705,83.9525 106.5325,84.1375 C106.2965,84.2705 106.0405,84.3725 105.7635,84.4435 C105.4875,84.5065 105.2055,84.5525 104.9185,84.5835 C104.6315,84.6135 104.3445,84.6345 104.0585,84.6445 L102.4905,84.6445 L102.4905,89.0705 L101.2305,89.0705 L101.2305,78.2205 L103.0285,78.2205 Z M224.1183,78.1587 L224.1183,82.2457 C224.1593,82.1937 224.2063,82.1337 224.2573,82.0617 C224.3183,81.9907 224.3953,81.9087 224.4873,81.8157 C224.6313,81.6917 224.8513,81.5497 225.1483,81.3857 C225.4453,81.2217 225.8453,81.1387 226.3473,81.1387 C226.4193,81.1387 226.5363,81.1497 226.7003,81.1707 C226.8753,81.1797 227.0643,81.2217 227.2693,81.2937 C227.4743,81.3537 227.6793,81.4527 227.8853,81.5857 C228.0983,81.7187 228.2833,81.9017 228.4373,82.1377 C228.5293,82.2827 228.6013,82.4297 228.6523,82.5847 C228.7043,82.7387 228.7393,82.9127 228.7603,83.1067 C228.7913,83.3017 228.8063,83.5267 228.8063,83.7837 C228.8163,84.0297 228.8213,84.3157 228.8213,84.6437 L228.8213,89.0707 L227.6843,89.0707 L227.6843,84.1367 C227.6743,83.6347 227.6123,83.2557 227.5003,82.9997 C227.3973,82.7437 227.2333,82.5437 227.0083,82.3997 C226.8233,82.2757 226.6443,82.2057 226.4703,82.1837 C226.3063,82.1637 226.1883,82.1547 226.1163,82.1547 C225.8813,82.1547 225.6763,82.1837 225.5023,82.2457 C225.3273,82.3067 225.1753,82.3797 225.0413,82.4617 C224.9183,82.5437 224.8153,82.6367 224.7333,82.7387 C224.6513,82.8307 224.5853,82.9127 224.5333,82.9827 C224.3483,83.2707 224.2363,83.5667 224.1953,83.8747 C224.1543,84.1817 224.1293,84.5007 224.1183,84.8287 L224.1183,89.0707 L222.9813,89.0707 L222.9813,78.1587 L224.1183,78.1587 Z M153.6838,78.2194 L153.6838,79.2644 L148.9348,79.2644 L148.9348,82.9224 L153.3458,82.9224 L153.3458,83.9834 L148.9348,83.9834 L148.9348,88.0094 L153.7918,88.0094 L153.7918,89.0704 L147.7208,89.0704 L147.7208,78.2194 L153.6838,78.2194 Z M166.6243,81.3539 L166.6243,89.0699 L165.4253,89.0699 L165.4253,81.3539 L166.6243,81.3539 Z M185.9112,84.8901 C185.3072,85.0031 184.8102,85.1101 184.4212,85.2131 C184.0422,85.3151 183.7292,85.4231 183.4832,85.5361 C183.4322,85.5561 183.3452,85.6021 183.2222,85.6741 C183.1092,85.7351 182.9912,85.8241 182.8682,85.9351 C182.7452,86.0481 182.6392,86.1911 182.5462,86.3671 C182.4542,86.5301 182.4072,86.7291 182.4072,86.9651 C182.4072,87.4071 182.5512,87.7441 182.8382,87.9801 C183.1352,88.2051 183.4882,88.3171 183.8982,88.3171 C184.2262,88.3171 184.5332,88.2511 184.8202,88.1181 C185.1172,87.9741 185.3582,87.7591 185.5432,87.4721 C185.6762,87.2571 185.7672,87.0211 185.8192,86.7651 C185.8702,86.5091 185.9012,86.1401 185.9112,85.6601 L185.9112,84.8901 Z M115.5848,82.1084 C115.2878,82.1084 115.0418,82.1604 114.8468,82.2624 C114.6518,82.3544 114.5088,82.4374 114.4168,82.5084 C114.1608,82.7134 113.9608,82.9594 113.8168,83.2464 C113.6838,83.5224 113.5818,83.7994 113.5098,84.0754 C113.4488,84.3424 113.4128,84.5834 113.4018,84.7984 C113.3918,85.0134 113.3868,85.1514 113.3868,85.2134 C113.3868,85.2744 113.3918,85.4134 113.4018,85.6284 C113.4128,85.8324 113.4488,86.0674 113.5098,86.3354 C113.5818,86.6014 113.6838,86.8784 113.8168,87.1644 C113.9608,87.4414 114.1608,87.6824 114.4168,87.8874 C114.4988,87.9594 114.6368,88.0464 114.8318,88.1484 C115.0368,88.2514 115.2878,88.3024 115.5848,88.3024 C115.6968,88.3024 115.8458,88.2874 116.0298,88.2564 C116.2148,88.2254 116.4148,88.1384 116.6298,87.9954 C116.7628,87.9024 116.8958,87.7794 117.0298,87.6264 C117.1728,87.4624 117.3008,87.2674 117.4138,87.0424 C117.5258,86.8064 117.6128,86.5404 117.6748,86.2424 C117.7468,85.9354 117.7828,85.5874 117.7828,85.1974 C117.7828,85.1264 117.7768,84.9884 117.7668,84.7834 C117.7568,84.5674 117.7158,84.3274 117.6438,84.0604 C117.5828,83.7844 117.4798,83.5074 117.3368,83.2304 C117.1928,82.9544 116.9938,82.7134 116.7368,82.5084 C116.6448,82.4264 116.5068,82.3394 116.3218,82.2464 C116.1378,82.1544 115.8918,82.1084 115.5848,82.1084 Z M195.7179,82.1235 C195.6359,82.1235 195.5229,82.1335 195.3799,82.1545 C195.2359,82.1755 195.0769,82.2305 194.9029,82.3235 C194.5549,82.4975 194.2479,82.8205 193.9809,83.2925 C193.7249,83.7635 193.5969,84.4135 193.5969,85.2435 L193.5969,85.6115 C193.6069,85.7865 193.6329,85.9855 193.6739,86.2115 C193.7249,86.4365 193.7919,86.6725 193.8739,86.9185 C193.9659,87.1645 194.0989,87.3945 194.2729,87.6095 C194.5189,87.9175 194.7649,88.1065 195.0109,88.1795 C195.2569,88.2405 195.4569,88.2705 195.6099,88.2705 C195.8769,88.2705 196.0919,88.2295 196.2559,88.1475 C196.4299,88.0655 196.5579,87.9945 196.6399,87.9335 C196.8959,87.7385 197.0909,87.4925 197.2239,87.1955 C197.3669,86.8975 197.4699,86.6105 197.5309,86.3345 C197.5929,86.0585 197.6239,85.8115 197.6239,85.5965 C197.6339,85.3815 197.6389,85.2495 197.6389,85.1975 C197.6389,84.5615 197.5669,84.0495 197.4239,83.6605 C197.2909,83.2615 197.1369,82.9535 196.9629,82.7385 C196.6449,82.3385 196.2299,82.1335 195.7179,82.1235 Z M206.6138,82.0924 C206.1638,82.0924 205.8048,82.2104 205.5378,82.4454 C205.2718,82.6714 205.0668,82.9284 204.9238,83.2144 C204.7798,83.5014 204.6828,83.7734 204.6318,84.0294 C204.5908,84.2854 204.5648,84.4434 204.5548,84.5054 L208.5968,84.5054 C208.5658,84.1774 208.5048,83.8594 208.4108,83.5524 C208.3308,83.2344 208.1768,82.9484 207.9508,82.6914 C207.8588,82.5794 207.7038,82.4514 207.4898,82.3074 C207.2848,82.1644 206.9928,82.0924 206.6138,82.0924 Z M103.0745,79.2655 L102.4445,79.2655 L102.4445,83.5845 L103.2125,83.5845 C103.8685,83.5845 104.3915,83.5635 104.7805,83.5225 C105.1795,83.4805 105.5125,83.3795 105.7795,83.2155 C105.8615,83.1645 105.9485,83.0975 106.0405,83.0155 C106.1435,82.9335 106.2505,82.8055 106.3635,82.6315 C106.4145,82.5275 106.4765,82.3845 106.5475,82.2005 C106.6195,82.0065 106.6555,81.7655 106.6555,81.4785 C106.6555,81.4175 106.6505,81.3185 106.6395,81.1865 C106.6295,81.0535 106.5985,80.9045 106.5475,80.7415 C106.5065,80.5655 106.4345,80.3925 106.3325,80.2185 C106.2305,80.0345 106.0865,79.8745 105.9025,79.7425 C105.7585,79.6395 105.5955,79.5575 105.4105,79.4965 C105.2365,79.4245 105.0365,79.3725 104.8105,79.3425 C104.5855,79.3115 104.3295,79.2915 104.0425,79.2805 C103.7655,79.2705 103.4435,79.2655 103.0745,79.2655 Z M166.2233,78.0819 C166.2963,78.1019 166.3433,78.1179 166.3623,78.1279 C166.5883,78.2199 166.7263,78.3579 166.7773,78.5429 C166.8293,78.7159 166.8543,78.8389 166.8543,78.9119 C166.8543,79.1469 166.7723,79.3409 166.6083,79.4959 C166.4553,79.6489 166.2603,79.7249 166.0243,79.7249 C165.9113,79.7249 165.7993,79.7059 165.6863,79.6649 C165.5833,79.6249 165.4963,79.5619 165.4253,79.4799 C165.3233,79.3779 165.2563,79.2689 165.2243,79.1579 C165.2043,79.0349 165.1953,78.9479 165.1953,78.8959 C165.1953,78.7949 165.2043,78.7119 165.2243,78.6499 C165.2563,78.5789 165.2823,78.5219 165.3023,78.4809 C165.4053,78.3059 165.5333,78.1939 165.6863,78.1419 C165.8403,78.0909 165.9423,78.0659 165.9933,78.0659 C166.0753,78.0559 166.1523,78.0609 166.2233,78.0819 Z M255.1555,51.2955 L255.1555,52.7655 L75.1555,52.7655 L75.1555,51.2955 L255.1555,51.2955 Z M95.3584,1.032 C95.7664,1.054 96.2164,1.118 96.7104,1.226 C97.7624,1.462 98.7284,1.902 99.6084,2.546 C100.5104,3.19 101.1864,4.006 101.6374,4.993 C101.9374,5.658 102.1204,6.292 102.1854,6.893 C102.2494,7.472 102.2924,7.88 102.3134,8.117 L98.0954,8.117 C98.0954,7.924 98.0634,7.644 97.9984,7.279 C97.9344,6.915 97.7524,6.528 97.4514,6.12 C97.2364,5.841 96.8824,5.552 96.3884,5.251 C95.8954,4.929 95.2294,4.768 94.3924,4.768 C94.3064,4.768 94.1454,4.779 93.9094,4.8 C93.6734,4.822 93.4154,4.875 93.1364,4.961 C92.8574,5.026 92.5674,5.144 92.2664,5.315 C91.9664,5.487 91.7084,5.722 91.4944,6.024 C91.3004,6.26 91.1824,6.485 91.1394,6.7 C91.0964,6.893 91.0754,7.065 91.0754,7.216 C91.0754,7.559 91.1394,7.849 91.2684,8.085 C91.4184,8.321 91.6334,8.546 91.9124,8.761 C92.1914,8.954 92.5244,9.137 92.9114,9.308 C93.3184,9.48 93.7804,9.673 94.2954,9.888 C95.8844,10.511 97.1724,11.026 98.1594,11.434 C99.1474,11.821 99.9634,12.249 100.6074,12.721 C100.9074,12.937 101.2724,13.269 101.7024,13.72 C102.1314,14.171 102.4644,14.825 102.7004,15.684 C102.7434,15.857 102.7964,16.114 102.8614,16.457 C102.9254,16.801 102.9584,17.198 102.9584,17.649 C102.9584,17.949 102.9144,18.422 102.8294,19.066 C102.7434,19.688 102.4964,20.354 102.0884,21.062 C101.7024,21.749 101.2404,22.317 100.7034,22.769 C100.1884,23.219 99.6084,23.584 98.9644,23.863 C98.3424,24.143 97.6764,24.335 96.9684,24.443 C96.2594,24.572 95.5404,24.636 94.8104,24.636 C94.5954,24.636 94.2204,24.614 93.6834,24.572 C93.1684,24.55 92.5784,24.454 91.9124,24.282 C91.2684,24.132 90.5924,23.885 89.8834,23.542 C89.1754,23.199 88.5314,22.715 87.9514,22.093 C87.7374,21.857 87.4684,21.491 87.1474,20.997 C86.8244,20.504 86.5454,19.871 86.3094,19.097 C86.1374,18.496 86.0404,17.971 86.0194,17.52 C85.9984,17.048 85.9764,16.693 85.9554,16.457 L90.1734,16.457 C90.1954,16.564 90.2274,16.801 90.2704,17.166 C90.3134,17.509 90.4104,17.863 90.5594,18.228 C90.8184,18.851 91.1504,19.345 91.5584,19.71 C91.9664,20.053 92.3844,20.311 92.8144,20.483 C93.2434,20.654 93.6404,20.762 94.0054,20.804 C94.3924,20.826 94.6824,20.837 94.8754,20.837 C96.0984,20.837 97.0004,20.59 97.5804,20.096 C98.1814,19.603 98.4924,19.044 98.5144,18.422 C98.5144,18.314 98.4924,18.185 98.4494,18.035 C98.4284,17.863 98.3524,17.66 98.2244,17.424 C97.9874,16.994 97.6124,16.639 97.0974,16.36 C96.6034,16.081 95.9164,15.759 95.0364,15.395 C94.6494,15.222 94.1774,15.029 93.6194,14.815 C93.0824,14.579 92.5244,14.332 91.9444,14.074 C91.3864,13.817 90.8394,13.548 90.3024,13.269 C89.7874,12.99 89.3584,12.721 89.0144,12.464 C88.8214,12.314 88.5854,12.11 88.3064,11.852 C88.0484,11.574 87.7904,11.24 87.5334,10.854 C87.2964,10.446 87.0924,9.984 86.9214,9.47 C86.7704,8.954 86.6954,8.353 86.6954,7.666 C86.6954,6.55 86.9214,5.584 87.3724,4.768 C87.8224,3.93 88.4024,3.233 89.1104,2.674 C89.8414,2.117 90.6674,1.698 91.5904,1.419 C92.5354,1.139 93.5014,1 94.4894,1 C94.6824,1 94.9714,1.011 95.3584,1.032 Z M276.4929,1.0002 C276.7949,1.0002 277.2129,1.0322 277.7489,1.0962 C278.3079,1.1402 278.9079,1.2572 279.5539,1.4512 C280.2189,1.6442 280.9059,1.9342 281.6139,2.3212 C282.3229,2.7072 282.9979,3.2332 283.6429,3.8992 C284.4149,4.6922 285.0059,5.5502 285.4129,6.4742 C285.8429,7.3762 286.1549,8.2462 286.3479,9.0832 C286.5399,9.9202 286.6579,10.6722 286.7009,11.3372 C286.7439,12.0022 286.7669,12.4962 286.7669,12.8182 C286.7669,13.2052 286.7339,13.8282 286.6699,14.6862 C286.6059,15.5452 286.4109,16.4892 286.0909,17.5202 C285.7679,18.5492 285.2519,19.5902 284.5449,20.6442 C283.8579,21.6732 282.8809,22.5532 281.6139,23.2842 C281.1849,23.5202 280.5399,23.8102 279.6819,24.1532 C278.8229,24.4742 277.7489,24.6352 276.4609,24.6352 C275.3659,24.6142 274.4229,24.4742 273.6269,24.2162 C272.8549,23.9812 272.2849,23.7672 271.9219,23.5742 C270.9769,23.1232 270.1829,22.5862 269.5379,21.9642 C268.8949,21.3202 268.3579,20.6442 267.9279,19.9352 C267.5209,19.2272 267.1989,18.5062 266.9609,17.7772 C266.7269,17.0472 266.5549,16.3602 266.4479,15.7162 C266.3399,15.0722 266.2749,14.4932 266.2539,13.9782 C266.2329,13.4632 266.2219,13.0762 266.2219,12.8182 C266.2219,12.4312 266.2539,11.7972 266.3179,10.9192 C266.3829,10.0172 266.5859,9.0402 266.9299,7.9882 C267.2739,6.9362 267.7999,5.8952 268.5079,4.8642 C269.2379,3.8122 270.2579,2.9332 271.5669,2.2242 C271.9959,1.9882 272.6179,1.7302 273.4349,1.4512 C274.2499,1.1502 275.2699,1.0002 276.4929,1.0002 Z M237.4001,1.0002 C237.7011,1.0002 238.1191,1.0322 238.6561,1.0962 C239.2151,1.1402 239.8151,1.2572 240.4591,1.4512 C241.1251,1.6442 241.8131,1.9342 242.5211,2.3212 C243.2301,2.7072 243.9051,3.2332 244.5501,3.8992 C245.3221,4.6922 245.9121,5.5502 246.3201,6.4742 C246.7491,7.3762 247.0621,8.2462 247.2551,9.0832 C247.4471,9.9202 247.5651,10.6722 247.6081,11.3372 C247.6511,12.0022 247.6741,12.4962 247.6741,12.8182 C247.6741,13.2052 247.6411,13.8282 247.5761,14.6862 C247.5131,15.5452 247.3181,16.4892 246.9971,17.5202 C246.6751,18.5492 246.1591,19.5902 245.4511,20.6442 C244.7651,21.6732 243.7871,22.5532 242.5211,23.2842 C242.0921,23.5202 241.4471,23.8102 240.5891,24.1532 C239.7301,24.4742 238.6561,24.6352 237.3681,24.6352 C236.2731,24.6142 235.3291,24.4742 234.5341,24.2162 C233.7621,23.9812 233.1921,23.7672 232.8281,23.5742 C231.8841,23.1232 231.0901,22.5862 230.4441,21.9642 C229.8011,21.3202 229.2651,20.6442 228.8341,19.9352 C228.4271,19.2272 228.1051,18.5062 227.8681,17.7772 C227.6331,17.0472 227.4611,16.3602 227.3541,15.7162 C227.2461,15.0722 227.1821,14.4932 227.1601,13.9782 C227.1401,13.4632 227.1291,13.0762 227.1291,12.8182 C227.1291,12.4312 227.1601,11.7972 227.2251,10.9192 C227.2891,10.0172 227.4931,9.0402 227.8371,7.9882 C228.1811,6.9362 228.7061,5.8952 229.4141,4.8642 C230.1451,3.8122 231.1641,2.9332 232.4741,2.2242 C232.9031,1.9882 233.5251,1.7302 234.3421,1.4512 C235.1571,1.1502 236.1771,1.0002 237.4001,1.0002 Z M198.0811,1.4507 C198.8551,1.4507 199.5311,1.4617 200.1101,1.4847 C200.6901,1.4847 201.2051,1.5037 201.6561,1.5477 C202.1061,1.5687 202.5161,1.6227 202.8801,1.7087 C203.2671,1.7947 203.6521,1.9017 204.0391,2.0307 C205.0491,2.3737 205.8431,2.8457 206.4231,3.4467 C207.0011,4.0277 207.4421,4.6277 207.7421,5.2507 C208.0431,5.8727 208.2351,6.4757 208.3221,7.0537 C208.4071,7.6337 208.4501,8.0957 208.4501,8.4397 C208.4501,8.5887 208.4401,8.8357 208.4181,9.1797 C208.3981,9.5017 208.3331,9.8667 208.2261,10.2757 C208.1601,10.5107 208.0751,10.7897 207.9681,11.1117 C207.8821,11.4117 207.7311,11.7447 207.5171,12.1097 C207.3031,12.4537 207.0231,12.8067 206.6801,13.1727 C206.3571,13.5377 205.9391,13.8807 205.4251,14.2027 C205.2951,14.3117 205.1661,14.3967 205.0371,14.4607 C204.9081,14.5257 204.7041,14.6217 204.4261,14.7497 L209.6431,24.1867 L204.5551,24.1867 L199.9171,15.4907 L196.7621,15.4907 L196.7621,24.1867 L192.3831,24.1867 L192.3831,1.4507 L198.0811,1.4507 Z M162.3064,1.4513 C163.0144,1.4513 163.7444,1.4613 164.4954,1.4843 C165.2684,1.5033 166.0094,1.6013 166.7174,1.7733 C167.4484,1.9233 168.1244,2.1803 168.7464,2.5453 C169.3904,2.9113 169.9274,3.4373 170.3564,4.1233 C170.5284,4.4033 170.7004,4.7893 170.8714,5.2843 C171.0654,5.7773 171.1614,6.4103 171.1614,7.1833 C171.1614,7.3323 171.1404,7.5593 171.0974,7.8603 C171.0764,8.1373 171.0114,8.4603 170.9044,8.8253 C170.7984,9.1913 170.6254,9.5663 170.3884,9.9533 C170.1754,10.3173 169.8734,10.6613 169.4874,10.9833 C169.1864,11.2403 168.8544,11.4453 168.4894,11.5943 C168.1454,11.7223 167.7914,11.8523 167.4264,11.9813 C167.8554,12.0873 168.1664,12.1743 168.3604,12.2393 C168.5754,12.2823 168.7794,12.3453 168.9724,12.4313 C169.2724,12.5613 169.6164,12.7433 170.0024,12.9803 C170.3884,13.2153 170.7544,13.5383 171.0974,13.9463 C171.4634,14.3533 171.7634,14.8583 171.9994,15.4583 C172.2574,16.0603 172.3854,16.7903 172.3854,17.6493 C172.3854,17.8833 172.3644,18.2163 172.3214,18.6473 C172.2784,19.0543 172.1494,19.5383 171.9344,20.0953 C171.7844,20.4603 171.5064,20.9443 171.0974,21.5443 C170.7114,22.1243 170.0774,22.6613 169.1974,23.1553 C168.7684,23.3903 168.3064,23.5833 167.8134,23.7353 C167.3414,23.8633 166.8034,23.9703 166.2024,24.0563 C165.6014,24.1213 164.9254,24.1643 164.1734,24.1863 L156.2204,24.1863 L156.2204,1.4513 L162.3064,1.4513 Z M136.9958,1.451 L136.9958,5.187 L130.9738,5.187 L130.9738,24.186 L126.5948,24.186 L126.5948,5.187 L120.6048,5.187 L120.6048,1.451 L136.9958,1.451 Z M9.09,1.451 L13.437,19.194 L17.687,1.451 L21.422,1.451 L25.674,19.194 L30.052,1.451 L34.046,1.451 L28.186,24.186 L23.226,24.186 L19.49,9.373 L15.82,24.186 L10.861,24.186 L5,1.451 L9.09,1.451 Z M67.5047,1.451 L67.5047,5.187 L57.5537,5.187 L57.5537,10.532 L66.6027,10.532 L66.6027,14.267 L57.5537,14.267 L57.5537,20.45 L67.8587,20.45 L67.8587,24.186 L53.1747,24.186 L53.1747,1.451 L67.5047,1.451 Z M311.2386,1.4509 L311.2386,24.1859 L306.8596,24.1859 L306.8596,1.4509 L311.2386,1.4509 Z M324.6346,1.4509 L316.1336,11.9809 L325.2146,24.1859 L319.6436,24.1859 L311.2706,12.1419 L319.6116,1.4509 L324.6346,1.4509 Z M237.3681,4.7362 C236.6821,4.7362 236.0801,4.8322 235.5641,5.0262 C235.0511,5.2182 234.6091,5.4642 234.2441,5.7662 C233.8811,6.0452 233.5791,6.3452 233.3431,6.6682 C233.1291,6.9672 232.9561,7.2262 232.8281,7.4412 C232.4211,8.1922 232.1191,9.0722 231.9271,10.0812 C231.7551,11.0692 231.6681,11.9812 231.6681,12.8182 C231.6681,13.1182 231.6801,13.5382 231.7001,14.0742 C231.7431,14.5892 231.8521,15.2222 232.0221,15.9742 C232.0881,16.2312 232.2051,16.6402 232.3771,17.1982 C232.5701,17.7342 232.8601,18.2822 233.2461,18.8402 C233.6541,19.3772 234.1911,19.8602 234.8561,20.2892 C235.5221,20.6972 236.3701,20.9012 237.4001,20.9012 C237.6371,20.9012 237.9271,20.8802 238.2711,20.8372 C238.6131,20.7932 238.9791,20.6972 239.3651,20.5472 C239.7511,20.3962 240.1481,20.1712 240.5571,19.8712 C240.9651,19.5472 241.3401,19.1292 241.6841,18.6152 C242.0261,18.0782 242.2961,17.4982 242.4881,16.8762 C242.7031,16.2532 242.8541,15.6622 242.9391,15.1052 C243.0251,14.5462 243.0781,14.0632 243.1011,13.6552 C243.1211,13.2262 243.1331,12.9472 243.1331,12.8182 C243.1331,12.2592 243.1011,11.7342 243.0361,11.2402 C242.9721,10.7252 242.8751,10.1992 242.7461,9.6622 C242.6821,9.3822 242.5541,8.9762 242.3591,8.4382 C242.1891,7.8802 241.8981,7.3332 241.4901,6.7962 C241.1041,6.2382 240.5771,5.7552 239.9121,5.3462 C239.2461,4.9392 238.3981,4.7362 237.3681,4.7362 Z M276.4609,4.7362 C275.7749,4.7362 275.1739,4.8322 274.6579,5.0262 C274.1439,5.2182 273.7019,5.4642 273.3379,5.7662 C272.9739,6.0452 272.6729,6.3452 272.4369,6.6682 C272.2219,6.9672 272.0499,7.2262 271.9219,7.4412 C271.5139,8.1922 271.2129,9.0722 271.0199,10.0812 C270.8479,11.0692 270.7619,11.9812 270.7619,12.8182 C270.7619,13.1182 270.7729,13.5382 270.7929,14.0742 C270.8359,14.5892 270.9449,15.2222 271.1159,15.9742 C271.1809,16.2312 271.2989,16.6402 271.4709,17.1982 C271.6629,17.7342 271.9529,18.2822 272.3399,18.8402 C272.7469,19.3772 273.2839,19.8602 273.9499,20.2892 C274.6159,20.6972 275.4639,20.9012 276.4929,20.9012 C276.7299,20.9012 277.0199,20.8802 277.3639,20.8372 C277.7059,20.7932 278.0719,20.6972 278.4579,20.5472 C278.8449,20.3962 279.2409,20.1712 279.6499,19.8712 C280.0579,19.5472 280.4339,19.1292 280.7769,18.6152 C281.1189,18.0782 281.3889,17.4982 281.5809,16.8762 C281.7969,16.2532 281.9469,15.6622 282.0329,15.1052 C282.1179,14.5462 282.1719,14.0632 282.1939,13.6552 C282.2149,13.2262 282.2259,12.9472 282.2259,12.8182 C282.2259,12.2592 282.1939,11.7342 282.1299,11.2402 C282.0649,10.7252 281.9689,10.1992 281.8399,9.6622 C281.7759,9.3822 281.6469,8.9762 281.4519,8.4382 C281.2819,7.8802 280.9909,7.3332 280.5829,6.7962 C280.1969,6.2382 279.6709,5.7552 279.0059,5.3462 C278.3399,4.9392 277.4909,4.7362 276.4609,4.7362 Z M162.5634,14.0413 L160.5034,14.0413 L160.5034,20.6443 L162.4674,20.6443 C163.4114,20.6443 164.1734,20.6323 164.7534,20.6123 C165.3334,20.5693 165.8374,20.4603 166.2674,20.2903 C166.6334,20.1383 166.9964,19.8493 167.3624,19.4193 C167.7484,18.9693 167.9414,18.2713 167.9414,17.3263 C167.9414,16.8323 167.8774,16.4243 167.7484,16.1033 C167.6194,15.7593 167.4904,15.5013 167.3624,15.3303 C167.2984,15.2443 167.2004,15.1363 167.0724,15.0083 C166.9434,14.8793 166.7614,14.7493 166.5244,14.6223 C166.0744,14.3643 165.5474,14.2133 164.9474,14.1703 C164.3674,14.1073 163.5734,14.0633 162.5634,14.0413 Z M198.0501,5.1877 L196.7621,5.1877 L196.7621,11.7557 L199.6271,11.7557 C199.9711,11.7557 200.3251,11.7447 200.6901,11.7227 C201.0561,11.6807 201.3981,11.6157 201.7211,11.5307 C202.0651,11.4227 202.3861,11.2737 202.6871,11.0787 C202.9871,10.8857 203.2441,10.6287 203.4591,10.3057 C203.6521,10.0057 203.7811,9.7047 203.8461,9.4047 C203.9321,9.0827 203.9751,8.7397 203.9751,8.3737 C203.9751,7.0657 203.3961,6.1427 202.2351,5.6057 C201.7421,5.3897 201.1841,5.2727 200.5621,5.2507 C199.9601,5.2077 199.1221,5.1877 198.0501,5.1877 Z M162.1134,4.9933 L160.5034,4.9933 L160.5034,10.5953 L162.3704,10.5953 C163.5944,10.5953 164.5284,10.5103 165.1724,10.3383 C165.8164,10.1463 166.2884,9.7483 166.5904,9.1473 C166.6534,9.0193 166.7174,8.8463 166.7824,8.6323 C166.8464,8.4173 166.8804,8.1373 166.8804,7.7943 C166.8804,7.6233 166.8574,7.3663 166.8144,7.0223 C166.7714,6.6783 166.5994,6.3343 166.3004,5.9923 C165.9134,5.5193 165.3974,5.2403 164.7534,5.1553 C164.1094,5.0463 163.2294,4.9933 162.1134,4.9933 Z" id="Combined-Shape" fill="#231F20"></path>
    </g>
</svg>