<?xml version="1.0" encoding="utf-8"?>
<!-- Generator: Adobe Illustrator 16.0.0, SVG Export Plug-In . SVG Version: 6.00 Build 0)  -->
<!DOCTYPE svg PUBLIC "-//W3C//DTD SVG 1.1//EN" "http://www.w3.org/Graphics/SVG/1.1/DTD/svg11.dtd">
<svg version="1.1" id="Layer_1" xmlns="http://www.w3.org/2000/svg" xmlns:xlink="http://www.w3.org/1999/xlink" x="0px" y="0px"
	 width="330px" height="90px" viewBox="0 0 330 90" enable-background="new 0 0 330 90" xml:space="preserve">
<title>westbrook-logo@x2</title>
<g id="westbrook-logo">
	<path id="Combined-Shape" fill="#FFFFFF" d="M115.585,81.141c0.389,0,0.717,0.051,0.983,0.154c0.277,0.092,0.477,0.179,0.6,0.26
		c0.43,0.246,0.763,0.554,0.999,0.923c0.246,0.358,0.425,0.723,0.538,1.09c0.123,0.37,0.194,0.708,0.215,1.017
		c0.02,0.297,0.031,0.506,0.031,0.629c0,0.328-0.031,0.666-0.093,1.015c-0.061,0.338-0.159,0.666-0.292,0.983
		c-0.123,0.308-0.292,0.6-0.507,0.877c-0.205,0.267-0.451,0.492-0.737,0.676c-0.175,0.113-0.354,0.205-0.538,0.275
		c-0.175,0.063-0.339,0.108-0.492,0.139c-0.154,0.041-0.292,0.068-0.415,0.078s-0.221,0.015-0.292,0.015
		c-0.123,0-0.328-0.021-0.615-0.062c-0.277-0.031-0.574-0.134-0.891-0.308c-0.339-0.185-0.626-0.41-0.861-0.676
		c-0.236-0.276-0.43-0.579-0.584-0.908c-0.143-0.327-0.251-0.67-0.323-1.028c-0.061-0.369-0.092-0.732-0.092-1.092
		c0-0.338,0.031-0.675,0.092-1.014c0.062-0.338,0.154-0.661,0.277-0.969c0.133-0.307,0.302-0.594,0.507-0.86
		c0.205-0.276,0.456-0.513,0.753-0.707c0.143-0.093,0.359-0.199,0.646-0.322C114.791,81.201,115.154,81.141,115.585,81.141z
		 M184.82,81.156c0.227,0.009,0.466,0.056,0.723,0.138c0.266,0.082,0.522,0.216,0.768,0.399c0.246,0.185,0.431,0.445,0.554,0.783
		c0.071,0.205,0.112,0.426,0.123,0.662c0.021,0.235,0.036,0.573,0.046,1.014v3.58c0.012,0.195,0.021,0.375,0.031,0.539
		c0.021,0.154,0.041,0.297,0.062,0.431c0.03,0.124,0.071,0.246,0.123,0.369h-1.092c-0.03-0.113-0.056-0.211-0.076-0.293
		c-0.022-0.08-0.036-0.153-0.047-0.216c-0.01-0.07-0.019-0.147-0.03-0.229c-0.011-0.082-0.021-0.18-0.031-0.292
		c-0.071,0.133-0.143,0.246-0.215,0.338s-0.164,0.189-0.276,0.292c-0.154,0.144-0.369,0.277-0.646,0.4
		c-0.277,0.132-0.65,0.198-1.121,0.198c-0.4,0-0.729-0.045-0.984-0.137c-0.246-0.094-0.44-0.185-0.586-0.277
		c-0.09-0.062-0.193-0.139-0.305-0.23c-0.104-0.104-0.201-0.227-0.293-0.369c-0.092-0.144-0.168-0.313-0.23-0.508
		c-0.061-0.204-0.092-0.439-0.092-0.706c0-0.103,0.01-0.231,0.031-0.383c0.02-0.165,0.065-0.334,0.137-0.509
		c0.072-0.174,0.175-0.354,0.308-0.536c0.144-0.187,0.333-0.354,0.569-0.509c0.225-0.153,0.492-0.287,0.799-0.4
		c0.318-0.111,0.641-0.21,0.968-0.292c0.339-0.081,0.672-0.153,0.999-0.213c0.328-0.063,0.62-0.114,0.876-0.155v-0.339
		c0-0.226-0.005-0.383-0.015-0.476c-0.01-0.103-0.036-0.211-0.077-0.321c-0.112-0.319-0.312-0.529-0.599-0.632
		c-0.277-0.113-0.564-0.17-0.861-0.17c-0.094,0-0.225,0.012-0.399,0.031c-0.175,0.01-0.354,0.058-0.538,0.139
		c-0.174,0.072-0.338,0.195-0.49,0.369c-0.146,0.164-0.242,0.404-0.293,0.723h-1.138c0-0.053,0.011-0.145,0.03-0.277
		c0.021-0.143,0.063-0.291,0.123-0.445c0.072-0.185,0.175-0.363,0.309-0.539c0.133-0.184,0.307-0.348,0.521-0.489
		c0.215-0.146,0.477-0.258,0.783-0.34c0.318-0.093,0.692-0.138,1.123-0.138C184.451,81.141,184.596,81.145,184.82,81.156z
		 M193.613,78.158v4.319c0.061-0.103,0.143-0.231,0.244-0.386c0.113-0.153,0.256-0.297,0.432-0.43
		c0.184-0.144,0.398-0.268,0.645-0.369c0.246-0.103,0.538-0.152,0.877-0.152c0.112,0,0.291,0.02,0.537,0.061
		c0.246,0.03,0.502,0.123,0.768,0.276c0.205,0.123,0.406,0.287,0.601,0.493c0.205,0.193,0.39,0.445,0.554,0.753
		c0.164,0.296,0.291,0.649,0.383,1.06c0.104,0.409,0.154,0.883,0.154,1.414c0,0.113-0.01,0.322-0.029,0.631
		c-0.012,0.297-0.063,0.608-0.154,0.938c-0.094,0.357-0.227,0.691-0.4,0.998c-0.174,0.297-0.384,0.559-0.63,0.783
		c-0.246,0.226-0.532,0.4-0.86,0.523c-0.317,0.133-0.666,0.199-1.045,0.199c-0.338,0-0.631-0.045-0.877-0.139
		c-0.236-0.092-0.435-0.204-0.599-0.338c-0.164-0.144-0.297-0.285-0.399-0.43c-0.103-0.143-0.185-0.271-0.246-0.385
		c0,0.093-0.006,0.242-0.016,0.447c-0.01,0.193-0.051,0.41-0.123,0.645h-1.091c0.071-0.266,0.112-0.558,0.123-0.877
		c0.009-0.271,0.013-0.631,0.015-1.076v-8.959H193.613z M206.66,81.14c0.399,0,0.748,0.062,1.043,0.185
		c0.3,0.113,0.551,0.251,0.756,0.415c0.215,0.162,0.384,0.338,0.507,0.522c0.133,0.175,0.235,0.322,0.308,0.445
		c0.185,0.358,0.313,0.754,0.383,1.184c0.082,0.42,0.123,0.824,0.123,1.215v0.307h-5.271c0,0.051,0.005,0.184,0.015,0.4
		c0.01,0.214,0.051,0.461,0.123,0.738c0.072,0.265,0.184,0.537,0.338,0.813c0.154,0.267,0.375,0.481,0.662,0.646
		c0.225,0.133,0.445,0.216,0.66,0.246c0.215,0.021,0.364,0.031,0.446,0.031s0.198-0.007,0.353-0.016
		c0.154-0.021,0.323-0.072,0.508-0.154c0.153-0.072,0.281-0.154,0.385-0.246c0.102-0.092,0.189-0.184,0.261-0.275
		c0.071-0.104,0.128-0.195,0.169-0.278c0.051-0.081,0.087-0.147,0.107-0.199l1.061,0.138c-0.031,0.093-0.082,0.222-0.154,0.385
		c-0.072,0.154-0.168,0.318-0.291,0.492c-0.123,0.175-0.283,0.343-0.477,0.507c-0.186,0.163-0.415,0.298-0.691,0.399
		c-0.115,0.051-0.279,0.103-0.492,0.153c-0.205,0.052-0.461,0.077-0.769,0.077c-0.112,0-0.269-0.01-0.461-0.031
		c-0.194-0.02-0.41-0.066-0.646-0.138c-0.226-0.071-0.461-0.179-0.707-0.323c-0.248-0.152-0.477-0.363-0.691-0.629
		c-0.104-0.123-0.205-0.271-0.309-0.446c-0.102-0.176-0.199-0.374-0.291-0.599c-0.082-0.236-0.148-0.503-0.2-0.799
		c-0.052-0.299-0.076-0.631-0.076-1c0-0.103,0.005-0.303,0.015-0.6c0.021-0.297,0.082-0.63,0.185-0.998
		c0.103-0.38,0.267-0.759,0.491-1.139c0.227-0.378,0.543-0.701,0.953-0.968c0.349-0.226,0.676-0.358,0.984-0.399
		C206.285,81.16,206.517,81.14,206.66,81.14z M134.012,79.126l-0.047,2.228h1.845l-0.015,0.922h-1.845l-0.061,3.92
		c-0.01,0.185-0.016,0.369-0.016,0.555v0.566c0.011,0.259,0.041,0.428,0.092,0.51c0.042,0.101,0.098,0.178,0.17,0.229
		c0.082,0.053,0.159,0.094,0.23,0.125c0.082,0.021,0.154,0.034,0.215,0.045h0.154c0.092,0,0.241-0.016,0.446-0.045
		c0.215-0.031,0.44-0.103,0.676-0.217l-0.015,1.016c-0.246,0.082-0.472,0.144-0.677,0.185c-0.194,0.041-0.425,0.06-0.691,0.06
		c-0.512,0-0.897-0.087-1.153-0.261c-0.246-0.185-0.415-0.383-0.507-0.598c-0.041-0.104-0.072-0.231-0.092-0.386
		c-0.021-0.152-0.031-0.349-0.031-0.584c0-0.205,0.005-0.41,0.015-0.613c0.011-0.205,0.021-0.41,0.031-0.615l0.092-3.891h-1.168
		l0.016-0.922h1.168l0.046-2.228H134.012z M216.403,79.126l-0.047,2.228h1.845l-0.015,0.922h-1.845l-0.062,3.92
		c-0.01,0.185-0.017,0.369-0.017,0.555v0.566c0.012,0.259,0.041,0.428,0.093,0.51c0.042,0.101,0.099,0.178,0.17,0.229
		c0.082,0.053,0.159,0.094,0.231,0.125c0.082,0.021,0.152,0.034,0.215,0.045h0.154c0.092,0,0.239-0.016,0.444-0.045
		c0.215-0.031,0.44-0.103,0.677-0.217l-0.016,1.016c-0.246,0.082-0.471,0.144-0.676,0.185c-0.195,0.041-0.426,0.06-0.692,0.06
		c-0.512,0-0.896-0.087-1.151-0.261c-0.246-0.185-0.416-0.383-0.508-0.598c-0.041-0.104-0.072-0.231-0.093-0.386
		c-0.021-0.152-0.03-0.349-0.03-0.584c0-0.205,0.006-0.41,0.016-0.613c0.01-0.205,0.02-0.41,0.031-0.615l0.092-3.891h-1.168
		l0.015-0.922h1.168l0.046-2.228H216.403z M159.955,78.159v10.912h-1.199V78.159H159.955z M177.045,81.354v0.83l-4.441,5.935h4.349
		v0.952h-5.687V88.18l4.365-5.888h-4.027v-0.938H177.045z M127.096,81.139c0.174,0,0.333,0.022,0.477,0.063
		c0.143,0.041,0.292,0.101,0.445,0.183v1.139c-0.051-0.021-0.179-0.078-0.384-0.17c-0.205-0.092-0.425-0.139-0.661-0.139
		c-0.215,0-0.41,0.051-0.584,0.155c-0.164,0.091-0.307,0.198-0.43,0.321c-0.113,0.123-0.205,0.246-0.277,0.369
		c-0.071,0.113-0.118,0.189-0.138,0.23c-0.184,0.37-0.292,0.749-0.323,1.139c-0.03,0.389-0.051,0.782-0.061,1.184v3.457h-1.153
		v-5.993c0-0.237-0.005-0.441-0.015-0.616c-0.011-0.173-0.026-0.337-0.046-0.492c-0.01-0.164-0.031-0.369-0.062-0.615h1.076
		c0.092,0.4,0.138,0.791,0.138,1.17v0.246c0,0.07-0.005,0.147-0.015,0.23c0.297-0.688,0.605-1.168,0.922-1.445
		C126.333,81.277,126.697,81.139,127.096,81.139z M103.028,78.221c0.379,0,0.712,0.005,0.999,0.014c0.297,0,0.558,0.012,0.783,0.032
		c0.236,0.021,0.446,0.05,0.631,0.091c0.194,0.032,0.379,0.078,0.553,0.139c0.666,0.235,1.153,0.627,1.46,1.168
		c0.318,0.533,0.476,1.138,0.476,1.814c0,0.111-0.01,0.275-0.03,0.492c-0.021,0.215-0.077,0.456-0.169,0.721
		c-0.093,0.257-0.231,0.518-0.415,0.785c-0.185,0.255-0.446,0.477-0.784,0.661c-0.236,0.133-0.492,0.235-0.769,0.306
		c-0.276,0.063-0.558,0.109-0.845,0.141c-0.287,0.029-0.574,0.051-0.86,0.061h-1.568v4.426h-1.26v-10.85H103.028z M224.118,78.158
		v4.088c0.041-0.053,0.088-0.112,0.14-0.185c0.061-0.071,0.138-0.153,0.229-0.245c0.144-0.125,0.364-0.267,0.661-0.431
		s0.697-0.247,1.199-0.247c0.072,0,0.188,0.012,0.353,0.032c0.175,0.009,0.364,0.051,0.569,0.123c0.205,0.06,0.41,0.159,0.615,0.292
		c0.213,0.133,0.398,0.316,0.553,0.552c0.092,0.146,0.164,0.292,0.215,0.447c0.052,0.153,0.087,0.327,0.107,0.521
		c0.031,0.195,0.047,0.421,0.047,0.677c0.01,0.246,0.015,0.533,0.015,0.86v4.427h-1.138v-4.934c-0.01-0.502-0.071-0.881-0.184-1.137
		c-0.103-0.256-0.267-0.456-0.492-0.6c-0.185-0.125-0.363-0.195-0.537-0.217c-0.164-0.02-0.282-0.029-0.354-0.029
		c-0.235,0-0.44,0.029-0.614,0.092c-0.175,0.061-0.326,0.134-0.461,0.216c-0.123,0.082-0.226,0.175-0.308,0.276
		c-0.082,0.092-0.147,0.174-0.2,0.244c-0.186,0.288-0.297,0.584-0.338,0.893c-0.041,0.307-0.066,0.625-0.077,0.953v4.242h-1.137
		V78.158H224.118z M153.684,78.219v1.046h-4.749v3.657h4.411v1.062h-4.411v4.026h4.857v1.061h-6.071V78.219H153.684z
		 M166.625,81.354v7.717h-1.2v-7.717H166.625z M185.911,84.891c-0.604,0.112-1.101,0.22-1.489,0.322
		c-0.38,0.102-0.693,0.21-0.938,0.323c-0.052,0.021-0.138,0.065-0.261,0.138c-0.113,0.062-0.231,0.15-0.354,0.262
		c-0.123,0.112-0.229,0.256-0.321,0.432c-0.093,0.163-0.14,0.361-0.14,0.598c0,0.442,0.144,0.779,0.431,1.016
		c0.297,0.225,0.65,0.336,1.061,0.336c0.328,0,0.635-0.065,0.922-0.198c0.297-0.144,0.538-0.358,0.723-0.646
		c0.133-0.215,0.225-0.451,0.276-0.707c0.051-0.256,0.082-0.625,0.092-1.105V84.891z M115.585,82.108
		c-0.297,0-0.543,0.052-0.738,0.153c-0.195,0.093-0.338,0.176-0.43,0.246c-0.256,0.205-0.456,0.451-0.6,0.738
		c-0.133,0.276-0.235,0.553-0.307,0.829c-0.061,0.267-0.097,0.509-0.108,0.724c-0.01,0.215-0.015,0.353-0.015,0.414
		s0.005,0.201,0.015,0.416c0.011,0.203,0.047,0.438,0.108,0.707c0.072,0.266,0.174,0.543,0.307,0.828
		c0.144,0.277,0.344,0.519,0.6,0.723c0.082,0.072,0.22,0.16,0.415,0.262c0.205,0.104,0.456,0.154,0.753,0.154
		c0.112,0,0.261-0.016,0.445-0.047c0.185-0.03,0.385-0.117,0.6-0.26c0.133-0.094,0.266-0.217,0.4-0.369
		c0.143-0.164,0.271-0.359,0.384-0.584c0.112-0.236,0.199-0.502,0.261-0.801c0.072-0.307,0.108-0.654,0.108-1.045
		c0-0.07-0.006-0.209-0.016-0.414c-0.01-0.216-0.051-0.456-0.123-0.723c-0.061-0.276-0.164-0.553-0.307-0.83
		c-0.144-0.275-0.343-0.518-0.6-0.723c-0.092-0.082-0.23-0.168-0.415-0.262C116.138,82.154,115.892,82.108,115.585,82.108z
		 M195.718,82.123c-0.082,0-0.194,0.01-0.338,0.031s-0.303,0.076-0.478,0.169c-0.348,0.175-0.654,0.497-0.922,0.97
		c-0.256,0.471-0.384,1.121-0.384,1.951v0.367c0.011,0.176,0.036,0.374,0.077,0.6c0.051,0.226,0.118,0.461,0.2,0.707
		c0.092,0.246,0.226,0.477,0.399,0.691c0.246,0.309,0.491,0.497,0.737,0.57c0.246,0.061,0.446,0.091,0.599,0.091
		c0.268,0,0.482-0.041,0.646-0.123c0.174-0.082,0.303-0.153,0.384-0.214c0.257-0.195,0.451-0.441,0.585-0.738
		c0.143-0.298,0.245-0.585,0.307-0.861c0.062-0.275,0.093-0.522,0.093-0.737c0.01-0.216,0.015-0.347,0.015-0.399
		c0-0.636-0.072-1.148-0.215-1.537c-0.133-0.398-0.287-0.707-0.461-0.922C196.645,82.338,196.23,82.133,195.718,82.123z
		 M206.613,82.092c-0.449,0-0.809,0.119-1.076,0.354c-0.266,0.227-0.471,0.482-0.613,0.77c-0.145,0.287-0.241,0.559-0.292,0.814
		c-0.041,0.256-0.067,0.414-0.077,0.477h4.042c-0.03-0.328-0.092-0.646-0.187-0.953c-0.08-0.318-0.233-0.604-0.459-0.861
		c-0.092-0.111-0.248-0.24-0.461-0.384C207.285,82.164,206.992,82.092,206.613,82.092z M103.075,79.266h-0.63v4.318h0.768
		c0.656,0,1.179-0.021,1.568-0.062c0.399-0.042,0.732-0.144,0.999-0.308c0.082-0.051,0.169-0.117,0.261-0.199
		c0.103-0.082,0.21-0.21,0.323-0.385c0.051-0.104,0.113-0.246,0.184-0.43c0.072-0.195,0.108-0.436,0.108-0.723
		c0-0.061-0.005-0.16-0.016-0.292c-0.01-0.133-0.041-0.282-0.092-0.444c-0.041-0.177-0.113-0.35-0.215-0.523
		c-0.102-0.184-0.246-0.344-0.43-0.477c-0.144-0.103-0.307-0.185-0.492-0.246c-0.174-0.072-0.374-0.123-0.6-0.154
		c-0.225-0.03-0.481-0.051-0.768-0.062C103.766,79.271,103.443,79.266,103.075,79.266z M166.223,78.082
		c0.074,0.02,0.121,0.035,0.14,0.046c0.226,0.092,0.364,0.229,0.415,0.415c0.052,0.173,0.077,0.296,0.077,0.369
		c0,0.234-0.082,0.429-0.246,0.584c-0.153,0.152-0.349,0.229-0.584,0.229c-0.113,0-0.226-0.019-0.338-0.06
		c-0.103-0.04-0.19-0.103-0.261-0.185c-0.102-0.103-0.169-0.211-0.201-0.322c-0.02-0.123-0.029-0.211-0.029-0.262
		c0-0.102,0.009-0.185,0.029-0.246c0.032-0.071,0.058-0.129,0.078-0.17c0.103-0.175,0.231-0.287,0.384-0.338
		c0.153-0.052,0.256-0.076,0.307-0.076C166.075,78.056,166.152,78.061,166.223,78.082z M255.155,51.295v1.471h-180v-1.471H255.155z
		 M95.358,1.032c0.408,0.022,0.858,0.086,1.352,0.194c1.052,0.236,2.018,0.676,2.898,1.32c0.902,0.644,1.578,1.46,2.029,2.447
		c0.3,0.665,0.483,1.299,0.548,1.9c0.064,0.579,0.107,0.987,0.128,1.224h-4.218c0-0.193-0.032-0.473-0.097-0.838
		c-0.064-0.364-0.246-0.751-0.547-1.159c-0.215-0.279-0.569-0.568-1.063-0.869c-0.493-0.322-1.159-0.483-1.996-0.483
		c-0.086,0-0.247,0.011-0.483,0.032c-0.236,0.022-0.494,0.075-0.773,0.161c-0.279,0.065-0.569,0.183-0.87,0.354
		c-0.3,0.172-0.558,0.407-0.772,0.709C91.3,6.26,91.183,6.485,91.139,6.7c-0.043,0.193-0.064,0.365-0.064,0.516
		c0,0.343,0.064,0.633,0.193,0.869c0.15,0.236,0.365,0.461,0.644,0.676c0.279,0.193,0.612,0.376,0.999,0.547
		c0.407,0.172,0.869,0.365,1.384,0.58c1.589,0.623,2.877,1.138,3.864,1.546c0.988,0.387,1.804,0.815,2.448,1.287
		c0.3,0.216,0.665,0.548,1.095,0.999c0.429,0.451,0.762,1.105,0.998,1.964c0.043,0.173,0.096,0.43,0.161,0.773
		c0.064,0.344,0.097,0.741,0.097,1.192c0,0.3-0.044,0.773-0.129,1.417c-0.086,0.622-0.333,1.288-0.741,1.996
		c-0.386,0.687-0.848,1.255-1.385,1.707c-0.515,0.45-1.095,0.815-1.739,1.094c-0.622,0.28-1.288,0.472-1.996,0.58
		c-0.709,0.129-1.428,0.193-2.158,0.193c-0.215,0-0.59-0.021-1.127-0.064c-0.515-0.022-1.105-0.118-1.771-0.29
		c-0.644-0.15-1.32-0.397-2.029-0.74c-0.708-0.343-1.352-0.827-1.932-1.449c-0.214-0.236-0.483-0.602-0.804-1.096
		c-0.323-0.493-0.602-1.126-0.838-1.9c-0.172-0.601-0.269-1.126-0.29-1.577c-0.021-0.472-0.043-0.827-0.064-1.063h4.218
		c0.022,0.107,0.054,0.344,0.097,0.709c0.043,0.343,0.14,0.697,0.289,1.062c0.259,0.623,0.591,1.117,0.999,1.482
		c0.408,0.343,0.826,0.601,1.256,0.773c0.429,0.171,0.826,0.279,1.191,0.321c0.387,0.022,0.677,0.033,0.87,0.033
		c1.223,0,2.125-0.247,2.705-0.741c0.601-0.493,0.912-1.052,0.934-1.674c0-0.108-0.022-0.237-0.065-0.387
		c-0.021-0.172-0.097-0.375-0.225-0.611c-0.237-0.43-0.612-0.785-1.127-1.064c-0.494-0.279-1.181-0.601-2.061-0.965
		c-0.387-0.173-0.859-0.366-1.417-0.58c-0.537-0.236-1.095-0.483-1.675-0.741c-0.558-0.257-1.105-0.526-1.642-0.805
		c-0.515-0.279-0.944-0.548-1.288-0.805c-0.193-0.15-0.429-0.354-0.708-0.612c-0.258-0.278-0.516-0.612-0.773-0.998
		c-0.237-0.408-0.441-0.87-0.612-1.384c-0.151-0.516-0.226-1.117-0.226-1.804c0-1.116,0.226-2.082,0.677-2.898
		c0.45-0.838,1.03-1.535,1.738-2.094c0.731-0.557,1.557-0.976,2.48-1.255C92.535,1.139,93.501,1,94.489,1
		C94.683,1,94.971,1.011,95.358,1.032z M276.492,1c0.303,0,0.721,0.032,1.257,0.096c0.56,0.044,1.159,0.161,1.805,0.355
		c0.665,0.193,1.353,0.483,2.06,0.87c0.709,0.386,1.385,0.912,2.029,1.578c0.772,0.793,1.363,1.651,1.771,2.575
		c0.43,0.902,0.741,1.772,0.935,2.609c0.192,0.837,0.311,1.589,0.354,2.254c0.043,0.665,0.066,1.159,0.066,1.481
		c0,0.387-0.033,1.01-0.098,1.868c-0.064,0.859-0.259,1.803-0.579,2.834c-0.323,1.029-0.839,2.07-1.546,3.124
		c-0.688,1.029-1.664,1.909-2.932,2.64c-0.428,0.236-1.073,0.526-1.932,0.869c-0.859,0.321-1.933,0.482-3.221,0.482
		c-1.096-0.021-2.038-0.161-2.834-0.419c-0.771-0.235-1.342-0.449-1.705-0.642c-0.945-0.451-1.738-0.988-2.384-1.61
		c-0.644-0.644-1.181-1.32-1.61-2.029c-0.406-0.708-0.729-1.429-0.967-2.158c-0.234-0.73-0.406-1.417-0.514-2.061
		s-0.172-1.223-0.193-1.738c-0.021-0.515-0.032-0.902-0.032-1.16c0-0.387,0.032-1.021,0.097-1.899
		c0.064-0.902,0.268-1.879,0.611-2.931c0.344-1.052,0.87-2.093,1.578-3.124c0.73-1.052,1.75-1.931,3.059-2.64
		c0.43-0.236,1.051-0.494,1.869-0.773C274.25,1.15,275.27,1,276.492,1z M237.4,1c0.301,0,0.719,0.032,1.256,0.096
		c0.559,0.044,1.158,0.161,1.803,0.355c0.666,0.193,1.354,0.483,2.063,0.87c0.709,0.386,1.384,0.912,2.029,1.578
		c0.771,0.793,1.361,1.651,1.77,2.575c0.429,0.902,0.742,1.772,0.935,2.609c0.192,0.837,0.31,1.589,0.353,2.254
		c0.043,0.665,0.066,1.159,0.066,1.481c0,0.387-0.033,1.01-0.098,1.868c-0.063,0.859-0.258,1.803-0.579,2.834
		c-0.321,1.029-0.838,2.07-1.546,3.124c-0.686,1.029-1.664,1.909-2.93,2.64c-0.43,0.236-1.074,0.526-1.933,0.869
		c-0.858,0.321-1.933,0.482-3.221,0.482c-1.095-0.021-2.039-0.161-2.834-0.419c-0.772-0.235-1.343-0.449-1.706-0.642
		c-0.943-0.451-1.738-0.988-2.384-1.61c-0.644-0.644-1.179-1.32-1.61-2.029c-0.406-0.708-0.729-1.429-0.966-2.158
		c-0.235-0.73-0.407-1.417-0.515-2.061s-0.172-1.223-0.193-1.738c-0.02-0.515-0.031-0.902-0.031-1.16
		c0-0.387,0.031-1.021,0.096-1.899c0.064-0.902,0.269-1.879,0.612-2.931c0.345-1.052,0.869-2.093,1.577-3.124
		c0.73-1.052,1.75-1.931,3.061-2.64c0.429-0.236,1.051-0.494,1.867-0.773C235.157,1.15,236.178,1,237.4,1z M198.081,1.451
		c0.774,0,1.45,0.011,2.029,0.034c0.579,0,1.095,0.019,1.546,0.063c0.449,0.021,0.859,0.075,1.224,0.161
		c0.388,0.086,0.772,0.193,1.159,0.322c1.01,0.343,1.805,0.815,2.384,1.416c0.578,0.581,1.019,1.181,1.319,1.804
		c0.301,0.622,0.493,1.225,0.58,1.803c0.085,0.58,0.128,1.042,0.128,1.386c0,0.149-0.011,0.396-0.032,0.74
		c-0.02,0.322-0.085,0.687-0.191,1.096c-0.066,0.235-0.151,0.514-0.258,0.836c-0.086,0.3-0.238,0.633-0.451,0.998
		c-0.215,0.344-0.494,0.697-0.838,1.063c-0.322,0.365-0.74,0.708-1.254,1.03c-0.131,0.109-0.26,0.194-0.389,0.258
		c-0.129,0.065-0.333,0.161-0.611,0.289l5.217,9.437h-5.088l-4.638-8.696h-3.155v8.696h-4.379V1.451H198.081z M162.307,1.451
		c0.708,0,1.438,0.01,2.189,0.033c0.773,0.019,1.514,0.117,2.221,0.289c0.731,0.15,1.408,0.407,2.029,0.772
		c0.645,0.366,1.182,0.892,1.61,1.578c0.172,0.28,0.344,0.666,0.515,1.161c0.194,0.493,0.291,1.126,0.291,1.899
		c0,0.149-0.021,0.376-0.064,0.677c-0.021,0.277-0.086,0.6-0.193,0.965c-0.105,0.366-0.279,0.741-0.516,1.128
		c-0.213,0.364-0.516,0.708-0.901,1.03c-0.301,0.257-0.633,0.462-0.998,0.611c-0.344,0.128-0.698,0.258-1.063,0.387
		c0.43,0.106,0.74,0.193,0.935,0.258c0.215,0.043,0.419,0.106,0.612,0.192c0.3,0.13,0.644,0.312,1.029,0.549
		c0.387,0.235,0.752,0.558,1.096,0.966c0.365,0.407,0.666,0.912,0.902,1.512c0.258,0.602,0.385,1.332,0.385,2.191
		c0,0.234-0.021,0.567-0.063,0.998c-0.043,0.407-0.172,0.891-0.387,1.448c-0.15,0.365-0.429,0.849-0.837,1.449
		c-0.387,0.58-1.021,1.117-1.9,1.611c-0.429,0.235-0.891,0.428-1.384,0.58c-0.472,0.128-1.011,0.235-1.611,0.321
		c-0.601,0.065-1.277,0.108-2.029,0.13h-7.953V1.451H162.307z M136.996,1.451v3.736h-6.022v18.999h-4.379V5.187h-5.99V1.451H136.996
		z M9.09,1.451l4.347,17.743l4.25-17.743h3.735l4.252,17.743l4.378-17.743h3.994l-5.86,22.735h-4.96L19.49,9.373l-3.67,14.813
		h-4.959L5,1.451H9.09z M67.505,1.451v3.736h-9.951v5.345h9.049v3.735h-9.049v6.183h10.305v3.736H53.175V1.451H67.505z
		 M311.238,1.451v22.735h-4.379V1.451H311.238z M324.635,1.451l-8.501,10.53l9.081,12.205h-5.571l-8.373-12.044l8.341-10.691
		H324.635z M237.368,4.736c-0.687,0-1.288,0.096-1.804,0.29c-0.514,0.192-0.955,0.438-1.32,0.74c-0.363,0.279-0.665,0.579-0.9,0.902
		c-0.215,0.299-0.388,0.558-0.516,0.773c-0.407,0.751-0.709,1.631-0.9,2.64c-0.173,0.988-0.26,1.9-0.26,2.737
		c0,0.3,0.012,0.72,0.032,1.256c0.043,0.515,0.151,1.148,0.321,1.9c0.066,0.257,0.184,0.666,0.355,1.224
		c0.193,0.536,0.483,1.084,0.869,1.642c0.408,0.537,0.945,1.02,1.609,1.449c0.666,0.408,1.515,0.612,2.545,0.612
		c0.236,0,0.527-0.021,0.871-0.064c0.342-0.044,0.707-0.14,1.094-0.29c0.386-0.151,0.783-0.376,1.191-0.676
		c0.408-0.324,0.783-0.742,1.127-1.256c0.342-0.537,0.612-1.117,0.805-1.739c0.215-0.623,0.365-1.214,0.451-1.771
		c0.086-0.559,0.139-1.042,0.162-1.45c0.02-0.429,0.031-0.708,0.031-0.837c0-0.559-0.031-1.084-0.097-1.578
		c-0.063-0.515-0.161-1.041-0.29-1.578c-0.064-0.28-0.191-0.686-0.387-1.224c-0.17-0.558-0.461-1.105-0.869-1.642
		c-0.387-0.558-0.913-1.041-1.578-1.45C239.246,4.939,238.398,4.736,237.368,4.736z M276.461,4.736c-0.686,0-1.287,0.096-1.803,0.29
		c-0.514,0.192-0.956,0.438-1.32,0.74c-0.363,0.279-0.665,0.579-0.9,0.902c-0.216,0.299-0.388,0.558-0.516,0.773
		c-0.408,0.751-0.709,1.631-0.902,2.64c-0.172,0.988-0.258,1.9-0.258,2.737c0,0.3,0.012,0.72,0.031,1.256
		c0.043,0.515,0.152,1.148,0.322,1.9c0.065,0.257,0.184,0.666,0.355,1.224c0.192,0.536,0.482,1.084,0.869,1.642
		c0.407,0.537,0.943,1.02,1.609,1.449c0.666,0.408,1.515,0.612,2.543,0.612c0.238,0,0.527-0.021,0.871-0.064
		c0.343-0.044,0.709-0.14,1.095-0.29c0.387-0.151,0.782-0.376,1.192-0.676c0.408-0.324,0.783-0.742,1.127-1.256
		c0.342-0.537,0.611-1.117,0.804-1.739c0.216-0.623,0.366-1.214,0.452-1.771c0.084-0.559,0.139-1.042,0.16-1.45
		c0.021-0.429,0.033-0.708,0.033-0.837c0-0.559-0.033-1.084-0.097-1.578c-0.065-0.515-0.161-1.041-0.29-1.578
		c-0.064-0.28-0.193-0.686-0.388-1.224c-0.171-0.558-0.462-1.105-0.869-1.642c-0.386-0.558-0.912-1.041-1.577-1.45
		C278.34,4.939,277.49,4.736,276.461,4.736z M162.563,14.042h-2.06v6.603h1.964c0.944,0,1.706-0.012,2.286-0.032
		c0.58-0.043,1.084-0.152,1.514-0.322c0.365-0.152,0.729-0.441,1.095-0.871c0.386-0.45,0.579-1.148,0.579-2.093
		c0-0.494-0.064-0.902-0.193-1.223c-0.129-0.344-0.258-0.602-0.386-0.773c-0.063-0.086-0.162-0.194-0.29-0.322
		c-0.129-0.129-0.311-0.259-0.548-0.386c-0.45-0.258-0.978-0.409-1.577-0.452C164.367,14.107,163.573,14.063,162.563,14.042z
		 M198.051,5.188h-1.289v6.568h2.865c0.344,0,0.698-0.011,1.063-0.033c0.367-0.042,0.709-0.107,1.031-0.192
		c0.344-0.108,0.666-0.257,0.967-0.452c0.3-0.193,0.557-0.45,0.771-0.773c0.193-0.3,0.322-0.601,0.387-0.901
		c0.086-0.322,0.129-0.665,0.129-1.031c0-1.308-0.578-2.231-1.739-2.768c-0.493-0.216-1.052-0.333-1.673-0.355
		C199.96,5.208,199.122,5.188,198.051,5.188z M162.113,4.993h-1.61v5.602h1.867c1.224,0,2.158-0.085,2.802-0.257
		c0.644-0.192,1.117-0.59,1.417-1.191c0.063-0.128,0.127-0.301,0.192-0.515c0.063-0.215,0.099-0.495,0.099-0.838
		c0-0.171-0.023-0.428-0.066-0.772c-0.043-0.344-0.215-0.688-0.514-1.03c-0.387-0.473-0.903-0.752-1.547-0.837
		C164.109,5.046,163.229,4.993,162.113,4.993z"/>
</g>
</svg>
