<?xml version="1.0" encoding="UTF-8"?>
<svg width="67px" height="67px" viewBox="0 0 67 67" version="1.1" xmlns="http://www.w3.org/2000/svg" xmlns:xlink="http://www.w3.org/1999/xlink">
    <title>maxxi-icon/address</title>
    <g id="maxxi-icon/address" stroke="none" stroke-width="1" fill="none" fill-rule="evenodd">
        <path d="M33.5,0 C52.0015391,0 67,14.9984609 67,33.5 C67,52.0015391 52.0015391,67 33.5,67 C14.9984609,67 0,52.0015391 0,33.5 C0,14.9984609 14.9984609,0 33.5,0 Z M33.5,2 C16.1030304,2 2,16.1030304 2,33.5 C2,50.8969696 16.1030304,65 33.5,65 C50.8969696,65 65,50.8969696 65,33.5 C65,16.1030304 50.8969696,2 33.5,2 Z M34,19 C37.9492078,19 41.1538462,22.2046383 41.1538462,26.1538462 C41.1538462,27.5470165 40.3863515,29.5548373 39.0280436,32.1275211 C38.7787191,32.5997505 38.5118229,33.0855487 38.2294251,33.5825873 L38.1220138,33.769 L45.0769231,33.7692308 C45.4449372,33.7692308 45.7795827,33.970881 45.95354,34.287982 L46.0053998,34.3978401 L50.9284767,46.7055324 C51.1766255,47.3259043 50.7589115,47.9977092 50.1157498,48.0704395 L50,48.0769231 L18,48.0769231 C17.331839,48.0769231 16.8632189,47.4395833 17.0345548,46.8154113 L17.0715233,46.7055324 L21.9946002,34.3978401 C22.1312772,34.0561476 22.442789,33.820328 22.8018161,33.7765811 L22.9230769,33.7692308 L29.8766967,33.7686263 C29.5548624,33.2066426 29.2523013,32.6585042 28.9719564,32.1275211 C27.6136485,29.5548373 26.8461538,27.5470165 26.8461538,26.1538462 C26.8461538,22.2046383 30.0507922,19 34,19 Z M31.0032651,35.6663541 L31.0043077,35.7692308 L23.599,35.769 L19.477,46.076 L48.522,46.076 L44.4,35.769 L36.933043,35.7700162 C36.5598938,36.3763259 36.1800539,36.9758318 35.8002308,37.5607593 L35.7053147,37.7066196 L35.7053147,37.7066196 L35.6121659,37.8491546 L35.0943089,38.6299525 L34,40.2212839 L33.1771537,39.0298025 L32.7413557,38.3844058 L32.1997692,37.5607593 C31.7983132,36.9425172 31.3968385,36.3079888 31.0032651,35.6663541 Z M34,21 C31.1553617,21 28.8461538,23.3092078 28.8461538,26.1538462 C28.8461538,26.9768686 29.3558445,28.424455 30.2685215,30.2710723 L30.4243474,30.582498 L30.7405833,31.1937336 C31.0599519,31.7986291 31.410834,32.4293997 31.7880907,33.0797903 C32.2860125,33.9382075 32.8113039,34.7995603 33.3434638,35.6395625 L33.8771539,36.4715484 L34,36.66 L34.6565362,35.6395625 L35.1856473,34.7933429 L35.1856473,34.7933429 L35.7056236,33.9382865 L36.2119093,33.0797903 C36.589166,32.4293997 36.9400481,31.7986291 37.2594167,31.1937336 C38.4666919,28.9071112 39.1538462,27.1094667 39.1538462,26.1538462 C39.1538462,23.3092078 36.8446383,21 34,21 Z M34,23.6923077 C35.3594702,23.6923077 36.4615385,24.794376 36.4615385,26.1538462 C36.4615385,27.5133163 35.3594702,28.6153846 34,28.6153846 C32.6405298,28.6153846 31.5384615,27.5133163 31.5384615,26.1538462 C31.5384615,24.794376 32.6405298,23.6923077 34,23.6923077 Z" id="Combined-Shape" fill="#111112" fill-rule="nonzero"></path>
    </g>
</svg>