<?xml version="1.0" encoding="UTF-8"?>
<svg width="67px" height="67px" viewBox="0 0 67 67" version="1.1" xmlns="http://www.w3.org/2000/svg" xmlns:xlink="http://www.w3.org/1999/xlink">
    <title>maxxi-icon/extractor-fans</title>
    <g id="maxxi-icon/extractor-fans" stroke="none" stroke-width="1" fill="none" fill-rule="evenodd">
        <path d="M33.5,0 C52.0015391,0 67,14.9984609 67,33.5 C67,52.0015391 52.0015391,67 33.5,67 C14.9984609,67 0,52.0015391 0,33.5 C0,14.9984609 14.9984609,0 33.5,0 Z M33.5,2 C16.1030304,2 2,16.1030304 2,33.5 C2,50.8969696 16.1030304,65 33.5,65 C50.8969696,65 65,50.8969696 65,33.5 C65,16.1030304 50.8969696,2 33.5,2 Z M47.9375,31.7498933 C48.3206757,31.7445809 48.6770864,31.9458988 48.8702557,32.2768649 C49.063425,32.6078311 49.063425,33.0171689 48.8702557,33.3481351 C48.6770864,33.6791012 48.3206757,33.8804191 47.9375,33.875 L47.9375,33.875 L46.875,33.875 L46.875,37.0625 C46.875,40.0132113 45.1267455,42.5525905 42.625,43.7529308 L42.625,43.7529308 L42.625,44.5 C42.625,45.6846216 43.5653784,46.625 44.75,46.625 L44.75,46.625 L44.75,48.75 C42.4156216,48.75 40.5,46.8343784 40.5,44.5 L40.5,44.5 L40.5,44.3920904 C40.1497384,44.4430755 39.8014764,44.5 39.4375,44.5 L39.4375,44.5 L26.6875,44.5 C26.3235245,44.5 25.9752618,44.4430755 25.625,44.3920904 L25.625,44.3920904 L25.625,44.5 C25.625,46.8343784 23.7093792,48.75 21.375,48.75 L21.375,48.75 L21.375,46.625 C22.5596208,46.625 23.5,45.6846216 23.5,44.5 L23.5,44.5 L23.5,43.7529308 C20.9982553,42.5525905 19.25,40.0132113 19.25,37.0625 L19.25,37.0625 L19.25,33.875 L18.1875,33.875 C17.8043243,33.8804191 17.4479136,33.6791012 17.2547443,33.3481351 C17.061575,33.0171689 17.061575,32.6078311 17.2547443,32.2768649 C17.4479136,31.9458988 17.8043243,31.7445809 18.1875,31.7498933 L18.1875,31.7498933 Z M44.75,33.875 L21.375,33.875 L21.375,37.0625 C21.375,40.0095201 23.7404799,42.375 26.6875,42.375 L26.6875,42.375 L39.4375,42.375 C42.3845201,42.375 44.75,40.0095201 44.75,37.0625 L44.75,37.0625 L44.75,33.875 Z M32,25.375 L32,28.5625 C32,28.930125 31.8122031,29.2697597 31.5019531,29.4631347 C31.3298281,29.5715097 31.133,29.625 30.9375,29.625 C30.778125,29.625 30.6172559,29.58934 30.4685059,29.51709 C29.3401309,28.96459 28.4125353,28.0391191 27.85791,26.9064941 C27.69641,26.5771191 27.7143397,26.1854219 27.9077149,25.8730469 C28.1032147,25.5627969 28.444875,25.375 28.8125,25.375 L28.8125,25.375 L32,25.375 Z M37.3125,25.375 C37.680125,25.375 38.021785,25.5627969 38.217285,25.8730469 C38.4106596,26.1832969 38.4307154,26.5771191 38.2670899,26.9064941 C37.7124649,28.0391191 36.7848691,28.96459 35.6564941,29.51709 C35.5077441,29.5893397 35.346875,29.625 35.1875,29.625 C34.992,29.625 34.7951719,29.5715097 34.6230469,29.4631347 C34.3127969,29.2697597 34.125,28.930125 34.125,28.5625 L34.125,28.5625 L34.125,25.375 Z M33.0625,23.25 C33.6493025,23.25 34.125,23.7256975 34.125,24.3125 C34.125,24.8993025 33.6493025,25.375 33.0625,25.375 C32.4756975,25.375 32,24.8993025 32,24.3125 C32,23.7256975 32.4756975,23.25 33.0625,23.25 Z M30.991455,19 C31.1686269,19.0092969 31.3416153,19.0651777 31.4978028,19.1618652 C31.8101778,19.3552402 32,19.694875 32,20.0625 L32,20.0625 L32,23.25 L28.8125,23.25 C28.444875,23.25 28.1032147,23.0622031 27.9077149,22.7519531 C27.7143397,22.4417031 27.6942853,22.0478809 27.85791,21.7185059 C28.41466,20.5858809 29.3401309,19.6604102 30.4685059,19.1079102 C30.6321309,19.0271602 30.8142831,18.9907031 30.991455,19 Z M35.133545,19 C35.3107168,18.9907031 35.4887187,19.0260977 35.6523437,19.1079102 C36.7807187,19.6604102 37.7083144,20.5858809 38.2629394,21.7185059 C38.4244402,22.0478809 38.4043845,22.4417031 38.2131347,22.7519531 C38.0197597,23.0622031 37.680125,23.25 37.3125,23.25 L37.3125,23.25 L34.125,23.25 L34.125,20.0625 C34.125,19.694875 34.3127969,19.3552402 34.6230469,19.1618652 C34.7792344,19.0641152 34.9563731,19.0092969 35.133545,19 Z" id="Combined-Shape" fill="#111112" fill-rule="nonzero"></path>
    </g>
</svg>