<?xml version="1.0" encoding="UTF-8"?>
<svg width="67px" height="67px" viewBox="0 0 67 67" version="1.1" xmlns="http://www.w3.org/2000/svg" xmlns:xlink="http://www.w3.org/1999/xlink">
    <title>maxxi-icon/en-suite bathrooms</title>
    <g id="maxxi-icon/en-suite-bathrooms" stroke="none" stroke-width="1" fill="none" fill-rule="evenodd">
        <path d="M33.5,0 C52.0015391,0 67,14.9984609 67,33.5 C67,52.0015391 52.0015391,67 33.5,67 C14.9984609,67 0,52.0015391 0,33.5 C0,14.9984609 14.9984609,0 33.5,0 Z M33.5,2 C16.1030304,2 2,16.1030304 2,33.5 C2,50.8969696 16.1030304,65 33.5,65 C50.8969696,65 65,50.8969696 65,33.5 C65,16.1030304 50.8969696,2 33.5,2 Z M40.5625,20 C43.4843431,20 45.875,22.3906571 45.875,25.3125 L45.875,25.3125 L45.875,30.625 L46.9375,30.625 C47.3206757,30.6195809 47.6770864,30.8208988 47.8702557,31.1518649 C48.063425,31.4828311 48.063425,31.8921689 47.8702557,32.2231351 C47.6770864,32.5541012 47.3206757,32.7554191 46.9375,32.75 L46.9375,32.75 L45.875,32.75 L45.875,35.9375 C45.875,38.8882112 44.1267455,41.4275905 41.625,42.6279308 L41.625,42.6279308 L41.625,43.375 C41.625,44.5596216 42.5653784,45.5 43.75,45.5 L43.75,45.5 L43.75,47.625 C41.4156216,47.625 39.5,45.7093784 39.5,43.375 L39.5,43.375 L39.5,43.2670904 C39.1497384,43.3180755 38.8014764,43.375 38.4375,43.375 L38.4375,43.375 L25.6875,43.375 C25.3235245,43.375 24.9752618,43.3180755 24.625,43.2670904 L24.625,43.2670904 L24.625,43.375 C24.625,45.7093784 22.7093792,47.625 20.375,47.625 L20.375,47.625 L20.375,45.5 C21.5596208,45.5 22.5,44.5596216 22.5,43.375 L22.5,43.375 L22.5,42.6279308 C19.9982553,41.4275905 18.25,38.8882112 18.25,35.9375 L18.25,35.9375 L18.25,32.75 L17.1875,32.75 C16.8043243,32.7554191 16.4479136,32.5541012 16.2547443,32.2231351 C16.061575,31.8921689 16.061575,31.4828311 16.2547443,31.1518649 C16.4479136,30.8208988 16.8043243,30.6195809 17.1875,30.625 L17.1875,30.625 L43.75,30.625 L43.75,25.3125 C43.75,23.5380929 42.3369069,22.125 40.5625,22.125 C39.1638122,22.125 38.0004597,23.0090971 37.5659185,24.25 L37.5659185,24.25 L39.5,24.25 L39.5,26.375 L33.125,26.375 L33.125,24.25 L35.35791,24.25 C35.8538978,21.8330346 38.0044803,20 40.5625,20 Z M43.75,32.75 L20.375,32.75 L20.375,35.9375 C20.375,38.8845201 22.7404799,41.25 25.6875,41.25 L25.6875,41.25 L38.4375,41.25 C41.3845201,41.25 43.75,38.8845201 43.75,35.9375 L43.75,35.9375 L43.75,32.75 Z" id="Combined-Shape" fill="#111112" fill-rule="nonzero"></path>
    </g>
</svg>