<?xml version="1.0" encoding="UTF-8"?>
<svg width="34px" height="34px" viewBox="0 0 34 34" version="1.1" xmlns="http://www.w3.org/2000/svg" xmlns:xlink="http://www.w3.org/1999/xlink">
    <!-- Generator: Sketch 64 (93537) - https://sketch.com -->
    <title>icon/24hr-patrol</title>
    <desc>Created with Sketch.</desc>
    <g id="icon/24hr-patrol" stroke="none" stroke-width="1" fill="none" fill-rule="evenodd">
        <path d="M13.6786458,14.05 C14.5557125,14.05 15.3450671,14.5377198 15.7360671,15.3227864 L15.7360671,15.3227864 L16.6315108,17.1166667 L19.8,17.1166667 L19.8,18.65 L16.1583333,18.65 C15.8685333,18.65 15.6028588,18.4854062 15.4725255,18.2247395 L15.4725255,18.2247395 L14.3614583,16.0055989 C14.231125,15.7433989 13.9715125,15.5833333 13.6786458,15.5833333 L13.6786458,15.5833333 L12.9,15.5833333 C12.4783333,15.5833333 12.1333333,15.9268 12.1333333,16.35 L12.1333333,16.35 L12.1333333,20.2492188 C12.1333333,20.4715522 12.2312031,20.6845417 12.3998698,20.8302083 L12.3998698,20.8302083 L14.9394531,23.0553387 C15.0421864,23.1458054 15.1181344,23.2619554 15.1610677,23.3907554 L15.1610677,23.3907554 L16.7333333,27.85 L15.1161458,27.85 L13.7714844,24.0705725 L11.390625,21.9832029 C10.889225,21.5492698 10.6,20.9162188 10.6,20.2492188 L10.6,20.2492188 L10.6,16.35 C10.6,16.3162955 10.6075412,16.2845277 10.6089844,16.2511719 L10.6089844,16.2511719 L8.91992191,17.428125 L7.4734375,20.8631511 L6.05989583,20.2701823 L7.59322917,16.6285156 C7.64970135,16.4943726 7.7431871,16.3790736 7.86276049,16.2960938 L7.86276049,16.2960938 L10.2718958,14.617 L10.357147,14.5440192 C10.7098608,14.2656515 11.1367674,14.0961938 11.5861366,14.0581789 L11.7799478,14.05 Z M11.3097656,23.25 C11.7329656,23.25 12.0764323,23.5934667 12.0764323,24.0166667 C12.0764323,24.2083333 11.9967708,24.3804025 11.8817708,24.5138025 L11.8817708,24.5138025 L11.8877605,24.5197917 L8.99179691,27.85 L6.95833333,27.85 L10.7317708,23.5135417 C10.8788272,23.3569975 11.0782323,23.25 11.3097656,23.25 Z M24.0166667,5.85 C26.8487283,5.85 29.15,8.15127199 29.15,10.9833333 C29.15,13.8153952 26.8487285,16.1166667 24.0166667,16.1166667 C23.0065826,16.1166667 22.0344918,15.8211411 21.2043056,15.2801758 L20.9814876,15.1265921 L20.9488866,14.9165583 L21.404095,14.2966362 L21.6137496,14.264489 C22.3059527,14.772501 23.1384498,15.05 24.0166667,15.05 C26.2667669,15.05 28.0833333,13.2334335 28.0833333,10.9833333 C28.0833333,8.73323315 26.2667669,6.91666667 24.0166667,6.91666667 C21.9724665,6.91666667 20.2694753,8.42131364 19.9904734,10.4127743 L19.986,10.45 L21.6535896,10.45 L19.4166667,13.1343075 L17.1797438,10.45 L18.915,10.45 L18.9234588,10.3680556 C19.2128428,7.96103652 21.1630282,6.07971351 23.5675599,5.8695471 L23.794279,5.85477492 L24.0166667,5.85 Z M12.9,9.45 C14.161998,9.45 15.2,10.4897112 15.2,11.75 C15.2,13.0102888 14.161998,14.05 12.9,14.05 C11.6387852,14.05 10.6,13.0112148 10.6,11.75 C10.6,10.4887852 11.6387852,9.45 12.9,9.45 Z M22.4833333,8.91666667 C23.1980773,8.91666667 23.7833333,9.50192272 23.7833333,10.2166667 C23.7833333,10.5209027 23.6929293,10.745965 23.4676925,11.1156925 C23.3164132,11.3622211 23.1249338,11.6238088 22.8952114,11.9057308 L22.829,11.983 L23.6333333,11.9833333 L23.7833333,12.1333333 L23.7833333,12.9 L23.6333333,13.05 L21.3333333,13.05 L21.1833333,12.9 L21.1833333,12.2621096 L21.2286911,12.1546386 L21.3406446,12.0456634 C21.3851754,12.0007733 21.4639382,11.9189441 21.5654646,11.8092868 L21.8180024,11.5288065 L22.0712375,11.2291679 C22.2677788,10.9914165 22.4384768,10.7572733 22.5526858,10.5642226 C22.6412231,10.4180323 22.7166667,10.2252319 22.7166667,10.2166667 C22.7166667,10.0838844 22.6161156,9.98333333 22.4833333,9.98333333 C22.3726814,9.98333333 22.2844123,10.0531604 22.258063,10.1532778 L22.25,10.2166667 L22.1,10.3666667 L21.3333333,10.3666667 L21.1833333,10.2166667 C21.1833333,9.50192272 21.7685894,8.91666667 22.4833333,8.91666667 Z M25.1666667,8.91666667 L25.3166667,9.06666667 L25.316,10.45 L25.783,10.45 L25.7833333,9.06666667 L25.9333333,8.91666667 L26.7,8.91666667 L26.85,9.06666667 L26.85,12.9 L26.7,13.05 L25.9333333,13.05 L25.7833333,12.9 L25.783,11.516 L24.7833333,11.5166667 C24.5469548,11.5166667 24.3474486,11.3644361 24.2771012,11.1522617 L24.2569556,11.0700666 L24.25,10.9833333 L24.25,9.06666667 L24.4,8.91666667 L25.1666667,8.91666667 Z M12.9,10.9833333 C12.4684148,10.9833333 12.1333333,11.3184148 12.1333333,11.75 C12.1333333,12.1815852 12.4684148,12.5166667 12.9,12.5166667 C13.3338686,12.5166667 13.6666667,12.1825112 13.6666667,11.75 C13.6666667,11.3174888 13.3338686,10.9833333 12.9,10.9833333 Z" id="Combined-Shape" fill="#000000"></path>
    </g>
</svg>