<?xml version="1.0" encoding="UTF-8"?>
<svg width="34px" height="34px" viewBox="0 0 34 34" version="1.1" xmlns="http://www.w3.org/2000/svg" xmlns:xlink="http://www.w3.org/1999/xlink">
    <!-- Generator: Sketch 64 (93537) - https://sketch.com -->
    <title>icon/alarm</title>
    <desc>Created with Sketch.</desc>
    <g id="icon/alarm" stroke="none" stroke-width="1" fill="none" fill-rule="evenodd">
        <path d="M16.3076923,7 L16.3076923,9.76923077 L17.6923077,9.76923077 L17.6923077,7 L16.3076923,7 Z M10.3933293,8.36027645 L9.41436302,9.33924275 L11.3722957,11.2971754 L12.351262,10.3182092 L10.3933293,8.36027645 Z M23.6066702,8.41436302 L21.6487382,10.3722957 L22.6277042,11.351262 L24.5856375,9.39332929 L23.6066702,8.41436302 Z M14.6878004,12.5384615 C13.6926785,12.5384615 12.8299887,13.2537198 12.6460337,14.2313701 L12.6460337,14.2394831 L10.8719953,25 L9.38461538,25 L9.38461538,26.3846154 L24.6153846,26.3846154 L24.6153846,25 L23.1280045,25 L21.353966,14.2394831 L21.353966,14.2313701 C21.1700115,13.2537208 20.3073215,12.5384615 19.3121996,12.5384615 L14.6878004,12.5384615 Z M8,13.9230769 L8,15.3076923 L10.7692308,15.3076923 L10.7692308,13.9230769 L8,13.9230769 Z M14.6878004,13.9230769 L19.3121996,13.9230769 C19.6490774,13.9230769 19.9311837,14.1560855 19.9936899,14.4882812 L21.7217545,25 L12.2782453,25 L14.0063101,14.4882812 C14.0688163,14.1560847 14.3509226,13.9230769 14.6878004,13.9230769 Z M23.2307692,13.9230769 L23.2307692,15.3076923 L26,15.3076923 L26,13.9230769 L23.2307692,13.9230769 Z" id="Shape" fill="#000000"></path>
    </g>
</svg>