<?xml version="1.0" encoding="UTF-8"?>
<svg width="34px" height="34px" viewBox="0 0 34 34" version="1.1" xmlns="http://www.w3.org/2000/svg" xmlns:xlink="http://www.w3.org/1999/xlink">
    <!-- Generator: Sketch 64 (93537) - https://sketch.com -->
    <title>icon/cctv</title>
    <desc>Created with Sketch.</desc>
    <g id="icon/cctv" stroke="none" stroke-width="1" fill="none" fill-rule="evenodd">
        <path d="M6.70591514,9.99995236 C6.31471516,10.0046234 6,10.3230584 6,10.7142857 L6,17.8571429 C6,18.1205411 6.14505363,18.3625373 6.37728594,18.4868224 C6.60951825,18.6111075 6.89130106,18.5975137 7.11049114,18.4514509 L10.2857143,16.3337054 L10.2857143,17.8571429 C10.2857537,18.2516156 10.6055272,18.5713891 11,18.5714286 L17.5625,18.5714286 C17.7794423,19.1739769 18.2545946,19.6491291 18.8571429,19.8660714 L18.8571429,23.5323657 C18.8571429,24.7076914 19.8246757,25.6752229 21,25.6752229 L25.99442,25.7142857 L26.00558,24.2857143 L21.00558,24.2466514 C21.00372,24.2466442 21.00186,24.2466442 21,24.2466514 C20.6038957,24.2466514 20.2857143,23.92847 20.2857143,23.5323657 L20.2857143,19.8660714 C20.8882629,19.6491291 21.3634143,19.1739769 21.5803571,18.5714286 L25.2857143,18.5714286 C25.6801871,18.5713891 25.9999606,18.2516156 26,17.8571429 L26,10.7142857 C25.9999606,10.3198129 25.6801871,9.99995236 25.2857143,9.99995236 L11,9.99995236 C10.6055272,9.99995236 10.2857537,10.3198129 10.2857143,10.7142857 L10.2857143,12.2377231 L7.11049114,10.1199777 C6.99079138,10.0401564 6.84977868,9.99833882 6.70591514,9.99995236 Z M11.7142857,11.4285714 L24.5714286,11.4285714 L24.5714286,17.1428571 L11.7142857,17.1428571 L11.7142857,15 L11.7142857,13.5714286 L11.7142857,11.4285714 Z M7.42857143,12.0479911 L10.2857143,13.953683 L10.2857143,14.6177456 L7.42857143,16.5234374 L7.42857143,12.0479911 Z" id="Shape" fill="#000000"></path>
    </g>
</svg>