<?xml version="1.0" encoding="UTF-8"?>
<svg width="34px" height="34px" viewBox="0 0 34 34" version="1.1" xmlns="http://www.w3.org/2000/svg" xmlns:xlink="http://www.w3.org/1999/xlink">
    <!-- Generator: Sketch 64 (93537) - https://sketch.com -->
    <title>icon/fence</title>
    <desc>Created with Sketch.</desc>
    <g id="icon/fence" stroke="none" stroke-width="1" fill="none" fill-rule="evenodd">
        <path d="M9.45,7 C9.64,7.01 9.8,7.1 9.91,7.25 L9.91,7.25 L11.25,9.06 L12.58,7.25 C12.8,6.94 13.32,6.94 13.55,7.25 L13.55,7.25 L14.88,9.06 L16.21,7.25 C16.44,6.94 16.96,6.94 17.19,7.25 L17.19,7.25 L18.52,9.06 L19.85,7.25 C20.08,6.94 20.6,6.94 20.82,7.25 L20.82,7.25 L22.15,9.06 L23.49,7.25 C23.71,6.94 24.23,6.94 24.46,7.25 L24.46,7.25 L26.28,9.72 C26.35,9.83 26.4,9.95 26.4,10.08 L26.4,10.08 L26.3996296,12.1285185 C26.3988889,12.1655556 26.3966667,12.21 26.39,12.25 L26.39,12.25 L26.4,22.99 C26.4,23.03 26.4,23.1 26.39,23.16 L26.39,23.16 L26.4,25.79 C26.4,26.12 26.12,26.39 25.79,26.39 L25.79,26.39 L18.59,26.39 C18.57,26.4 18.54,26.4 18.52,26.4 C18.49,26.4 18.45,26.4 18.419,26.39 L18.419,26.39 L14.95,26.39 C14.91,26.4 14.85,26.4 14.78,26.39 L14.78,26.39 L7.61,26.39 C7.28,26.39 7,26.12 7,25.79 L7,25.79 L7.00037037,23.0837037 C7.00111111,23.0488889 7.00333333,23.0066667 7.01,22.96 L7.01,22.96 L7,12.22 C7,12.18 7,12.12 7.01,12.05 L7.01,12.05 L7,10.08 C7,9.95 7.05,9.83 7.12,9.72 L7.12,9.72 L8.94,7.25 C9.06,7.09 9.25,7 9.45,7 Z M25.19,23.669 L22.76,23.669 L22.76,25.18 L25.19,25.18 L25.19,23.669 Z M21.55,23.669 L19.12,23.669 L19.12,25.18 L21.55,25.18 L21.55,23.669 Z M17.91,23.669 L15.49,23.669 L15.49,25.18 L17.91,25.18 L17.91,23.669 Z M14.28,23.669 L11.85,23.669 L11.85,25.18 L14.28,25.18 L14.28,23.669 Z M10.64,23.669 L8.21,23.669 L8.21,25.18 L10.64,25.18 L10.64,23.669 Z M25.19,12.76 L22.76,12.76 L22.76,22.46 L25.19,22.46 L25.19,12.76 Z M14.28,12.76 L11.85,12.76 L11.85,22.46 L14.28,22.46 L14.28,21.7 C14.27,21.37 14.54,21.09 14.87,21.09 C15.03,21.07 15.19,21.15 15.31,21.259 C15.419,21.38 15.49,21.54 15.49,21.7 L15.49,21.7 L15.49,22.46 L17.91,22.46 L17.91,21.7 C17.91,21.48 18.03,21.28 18.21,21.17 C18.4,21.06 18.63,21.06 18.82,21.17 C19.01,21.28 19.13,21.48 19.12,21.7 L19.12,21.7 L19.12,22.46 L21.55,22.46 L21.55,12.76 L19.12,12.76 L19.12,13.97 C19.13,14.18 19.01,14.39 18.82,14.5 C18.64,14.61 18.4,14.61 18.21,14.5 C18.03,14.39 17.91,14.19 17.91,13.97 L17.91,13.97 L17.91,12.76 L15.49,12.76 L15.49,13.97 C15.49,14.19 15.37,14.39 15.19,14.5 C15,14.61 14.77,14.61 14.58,14.5 C14.39,14.39 14.27,14.19 14.28,13.97 L14.28,13.97 L14.28,12.76 Z M10.64,12.76 L8.21,12.76 L8.21,22.46 L10.64,22.46 L10.64,12.76 Z M16.8499,12.8803 L16.8499,16.5503 L19.2099,16.5503 L16.5499,22.3903 L16.5499,18.2093 L14.1799,18.2093 L16.8499,12.8803 Z M23.97,8.63 L22.76,10.28 L22.76,11.55 L25.19,11.55 L25.19,10.28 L23.97,8.63 Z M20.34,8.63 L19.12,10.28 L19.12,11.55 L21.55,11.55 L21.55,10.28 L20.34,8.63 Z M13.06,8.63 L11.85,10.28 L11.85,11.55 L14.28,11.55 L14.28,10.28 L13.06,8.63 Z M16.7,8.63 L15.49,10.28 L15.49,11.55 L17.91,11.55 L17.91,10.28 L16.7,8.63 Z M9.43,8.63 L8.21,10.28 L8.21,11.55 L10.64,11.55 L10.64,10.28 L9.43,8.63 Z" id="Combined-Shape" fill="#000000"></path>
    </g>
</svg>