<?xml version="1.0" encoding="UTF-8"?>
<svg width="34px" height="34px" viewBox="0 0 34 34" version="1.1" xmlns="http://www.w3.org/2000/svg" xmlns:xlink="http://www.w3.org/1999/xlink">
    <!-- Generator: Sketch 64 (93537) - https://sketch.com -->
    <title>icon/gate</title>
    <desc>Created with Sketch.</desc>
    <g id="icon/gate" stroke="none" stroke-width="1" fill="none" fill-rule="evenodd">
        <path d="M9,9 C7.90332692,9 7,9.90332693 7,11 C7,11.5121064 7.20178045,11.97784 7.52343749,12.3333333 C7.20178508,12.6888231 7,13.1545437 7,13.6666667 L7,24.3333333 C7,24.7015079 7.29849208,25 7.66666667,25 L10.3333333,25 L23.6666667,25 L26.3333333,25 C26.7015079,25 27,24.7015079 27,24.3333333 L27,13.6666667 C27,13.1472887 26.7649693,12.7242648 26.4192707,12.4010416 C26.776816,12.0389016 27,11.5437025 27,11 C27,9.90332693 26.0966733,9 25,9 C23.9033267,9 23,9.90332693 23,11 C23,11.5147185 23.204072,11.9824105 23.5286453,12.3385416 C23.37496,12.5087855 23.23978,12.6966804 23.1510413,12.9114584 C22.5127613,12.7334648 21.7299307,12.2854959 20.864584,11.7630208 C19.7508861,11.0906007 18.4870371,10.3333333 17,10.3333333 C15.5129629,10.3333333 14.2129424,11.0863891 13.0755208,11.7604167 C12.1952072,12.282084 11.3960561,12.731648 10.8020833,12.9114584 C10.7058673,12.7197473 10.5680541,12.5557652 10.4140625,12.40625 C10.7746319,12.0436663 11,11.5463147 11,11 C11,9.90332693 10.0966731,9 9,9 Z M9,10.3333333 C9.37608627,10.3333333 9.66666667,10.6239137 9.66666667,11 C9.66666667,11.3760863 9.37608627,11.6666667 9,11.6666667 C8.62391373,11.6666667 8.33333333,11.3760863 8.33333333,11 C8.33333333,10.6239137 8.62391373,10.3333333 9,10.3333333 Z M25,10.3333333 C25.3760867,10.3333333 25.6666667,10.6239137 25.6666667,11 C25.6666667,11.3760863 25.3760867,11.6666667 25,11.6666667 C24.6239133,11.6666667 24.3333333,11.3760863 24.3333333,11 C24.3333333,10.6239137 24.6239133,10.3333333 25,10.3333333 Z M16.3333333,11.7526041 L16.3333333,23.6666667 L11,23.6666667 L11,14.15625 C11.9592691,13.9461401 12.8559432,13.4406911 13.7578125,12.90625 C14.6322937,12.3880389 15.5061477,11.9297739 16.3333333,11.7526041 Z M17.6666667,11.7552083 C18.4785895,11.9324725 19.3191565,12.3856523 20.1770833,12.9036459 C21.0711893,13.4434831 21.9948173,13.9555155 23,14.1614584 L23,23.6666667 L17.6666667,23.6666667 L17.6666667,11.7552083 Z M9,13 C9.37529147,13 9.66666667,13.2913752 9.66666667,13.6666667 L9.66666667,23.6666667 L8.33333333,23.6666667 L8.33333333,13.6666667 C8.33333333,13.2913752 8.62470853,13 9,13 Z M25,13 C25.375292,13 25.6666667,13.2913752 25.6666667,13.6666667 L25.6666667,23.6666667 L24.3333333,23.6666667 L24.3333333,13.6666667 C24.3333333,13.2913752 24.624708,13 25,13 Z M14.3333333,17 C13.9651435,17 13.6666667,17.2984768 13.6666667,17.6666667 C13.6666667,18.0348565 13.9651435,18.3333333 14.3333333,18.3333333 C14.7015232,18.3333333 15,18.0348565 15,17.6666667 C15,17.2984768 14.7015232,17 14.3333333,17 Z M19.6666667,17 C19.2984768,17 19,17.2984768 19,17.6666667 C19,18.0348565 19.2984768,18.3333333 19.6666667,18.3333333 C20.0348565,18.3333333 20.3333333,18.0348565 20.3333333,17.6666667 C20.3333333,17.2984768 20.0348565,17 19.6666667,17 Z" id="Shape" fill="#000000" fill-rule="nonzero"></path>
    </g>
</svg>