<?xml version="1.0" encoding="UTF-8"?>
<svg width="34px" height="34px" viewBox="0 0 34 34" version="1.1" xmlns="http://www.w3.org/2000/svg" xmlns:xlink="http://www.w3.org/1999/xlink">
    <!-- Generator: Sketch 64 (93537) - https://sketch.com -->
    <title>icon/security-room</title>
    <desc>Created with Sketch.</desc>
    <g id="icon/security-room" stroke="none" stroke-width="1" fill="none" fill-rule="evenodd">
        <path d="M10.321,12.662 L11.554,19.438 C11.618,19.787 11.913,20.032 12.267,20.032 L12.267,20.032 L17.159,20.032 L19.699,26.802 L18.341,27.311 L16.155,21.48 L12.267,21.48 C11.221,21.48 10.316,20.725 10.129,19.698 L10.129,19.698 L8.896,12.922 L10.321,12.662 Z M7.425,15.558 L8.44,21.143 C8.63,22.182 9.524,22.927 10.578,22.927 L10.578,22.927 L14.676,22.927 L14.676,24.375 L11.78,24.375 L11.78,27.272 L10.332,27.272 L10.332,24.353 C8.694,24.24 7.312,23.038 7.015,21.404 L7.015,21.404 L6,15.818 L7.425,15.558 Z M26.6085,8.0266 C26.8085,8.0266 27.0095,8.0676 27.2055,8.1476 C27.2835,8.1776 27.3695,8.2256 27.4655,8.2956 C27.6275,8.4026 27.7625,8.5366 27.8735,8.7036 C27.9395,8.7956 27.9875,8.8816 28.0175,8.9616 C28.0975,9.1566 28.1385,9.3566 28.1385,9.5566 L28.1385,9.5566 L28.1385,15.9766 C28.1385,16.2766 28.0435,16.5806 27.8725,16.8316 C27.7475,17.0076 27.6135,17.1406 27.4605,17.2416 C27.3905,17.2926 27.3055,17.3356 27.2195,17.3786 C27.0095,17.4666 26.8095,17.5076 26.6085,17.5076 L26.6085,17.5076 L21.7085,17.5076 L21.7085,18.1166 L24.4685,18.1166 L24.4685,19.3376 L17.7485,19.3376 L17.7485,18.1166 L20.4885,18.1166 L20.4885,17.5076 L15.5985,17.5076 C14.7735,17.5076 14.0785,16.8066 14.0785,15.9766 L14.0785,15.9766 L14.0785,9.5566 C14.0785,9.3376 14.1145,9.1426 14.1895,8.9596 C14.2385,8.8606 14.2825,8.7746 14.3355,8.6996 C14.4345,8.5526 14.5675,8.4186 14.7415,8.2946 C14.9955,8.1216 15.2985,8.0266 15.5985,8.0266 L15.5985,8.0266 Z M26.6085,9.2466 L15.5985,9.2466 C15.4215,9.2466 15.2885,9.3796 15.2885,9.5566 L15.2885,9.5566 L15.2885,15.9766 C15.2885,16.1536 15.4215,16.2866 15.5985,16.2866 L15.5985,16.2866 L26.6085,16.2866 C26.7855,16.2866 26.9185,16.1536 26.9185,15.9766 L26.9185,15.9766 L26.9185,9.5566 C26.9185,9.3796 26.7855,9.2466 26.6085,9.2466 L26.6085,9.2466 Z M21.1082,9.8662 C21.7252,9.8662 22.4752,10.0592 22.8352,10.1512 C23.2552,10.2592 23.5482,10.6312 23.5482,11.0562 L23.5482,11.0562 L23.5482,12.5762 C23.5482,13.0182 23.4272,13.4532 23.1882,13.8702 C22.9852,14.2102 22.7222,14.5212 22.4252,14.7712 C22.0012,15.1502 21.5782,15.3862 21.4582,15.4502 C21.4062,15.4822 21.3652,15.4962 21.3542,15.4992 L21.3542,15.4992 L21.1082,15.6112 L20.8472,15.4932 C20.8252,15.4842 20.3092,15.2482 19.7872,14.7782 C19.4772,14.5152 19.2132,14.2042 19.0282,13.8812 C18.7832,13.4732 18.6582,13.0332 18.6582,12.5762 L18.6582,12.5762 L18.6582,11.0562 C18.6582,10.6262 18.9592,10.2452 19.3742,10.1512 C19.8882,10.0192 20.5532,9.8662 21.1082,9.8662 Z M21.1082,11.0762 C20.9062,11.0762 20.5442,11.1322 20.0912,11.2332 L20.0912,11.2332 L19.9992,11.2562 C19.9582,11.2672 19.9172,11.2772 19.8782,11.2872 L19.8782,11.2872 L19.8782,12.5762 C19.8782,13.0132 20.1172,13.4502 20.5892,13.8752 C20.7382,13.9962 20.8542,14.0832 20.9422,14.1422 C20.9812,14.1652 21.0222,14.1862 21.0592,14.2042 C21.0742,14.2122 21.0872,14.2192 21.1002,14.2262 C21.2182,14.1632 21.3772,14.0752 21.6202,13.8642 C21.8842,13.6312 22.3282,13.1552 22.3282,12.5762 L22.3282,12.5762 L22.3282,11.2832 C21.9112,11.1792 21.3842,11.0762 21.1082,11.0762 Z M9.608,7 C10.799,7 11.78,7.981 11.78,9.172 C11.78,10.363 10.799,11.344 9.608,11.344 C8.417,11.344 7.436,10.363 7.436,9.172 C7.436,7.981 8.417,7 9.608,7 Z M9.608,8.448 C9.2,8.448 8.884,8.764 8.884,9.172 C8.884,9.581 9.2,9.896 9.608,9.896 C10.017,9.896 10.332,9.581 10.332,9.172 C10.332,8.764 10.017,8.448 9.608,8.448 Z" id="Combined-Shape" fill="#000000"></path>
    </g>
</svg>