<?xml version="1.0" encoding="UTF-8"?>
<svg width="34px" height="34px" viewBox="0 0 34 34" version="1.1" xmlns="http://www.w3.org/2000/svg" xmlns:xlink="http://www.w3.org/1999/xlink">
    <!-- Generator: Sketch 64 (93537) - https://sketch.com -->
    <title>icon/systems</title>
    <desc>Created with Sketch.</desc>
    <g id="icon/systems" stroke="none" stroke-width="1" fill="none" fill-rule="evenodd">
        <path d="M9,9 C7.90329147,9 7,9.90329147 7,11 L7,20.3333333 C7,21.4300413 7.90329147,22.3333333 9,22.3333333 L16.3255208,22.3333333 C16.3251359,22.5482867 16.3246528,22.769184 16.3255208,23.0156253 C16.3266643,23.3424333 16.3264836,23.4202947 16.3281251,23.6666667 L12.3333333,23.6666667 L12.3333333,25 L21.6666667,25 L21.6666667,23.6666667 L17.6614584,23.6666667 C17.6598009,23.4201827 17.6600163,23.3395693 17.6588541,23.010416 C17.6579896,22.7649307 17.658472,22.545796 17.6588541,22.3333333 L25,22.3333333 C26.096708,22.3333333 27,21.4300413 27,20.3333333 L27,11 C27,9.90329147 26.096708,9 25,9 L9,9 Z M9,10.3333333 L25,10.3333333 C25.375292,10.3333333 25.6666667,10.6247085 25.6666667,11 L25.6666667,20.3333333 C25.6666667,20.7086253 25.375292,21 25,21 L9,21 C8.62470853,21 8.33333333,20.7086253 8.33333333,20.3333333 L8.33333333,11 C8.33333333,10.6247085 8.62470853,10.3333333 9,10.3333333 Z M17,11.6666667 C16.1547012,11.6666667 15.1060995,11.9297084 14.5338541,12.0755208 C14.0290803,12.2040657 13.6666667,12.6693669 13.6666667,13.1901041 L13.6666667,15.3880208 C13.6666667,16.7588923 14.4820455,17.7832556 15.2265625,18.4375 C15.9710796,19.0917444 16.71875,19.4375 16.71875,19.4375 L17.0052083,19.5703125 L17.2890625,19.4348959 C17.2890625,19.4348959 18.0338608,19.0772143 18.7760416,18.4192708 C19.5182228,17.761328 20.3333333,16.7433643 20.3333333,15.3880208 L20.3333333,13.1901041 C20.3333333,12.6689047 19.973432,12.2047055 19.4661459,12.0755208 C18.8939005,11.9297084 17.8452988,11.6666667 17,11.6666667 Z M17,13 C17.4914635,13 18.4367947,13.2056833 19,13.34375 L19,15.3880208 C19,16.195344 18.4817773,16.8978185 17.8906251,17.4218749 C17.4418167,17.8197436 17.1842859,17.934086 16.9947917,18.0364584 C16.8050096,17.9364983 16.552062,17.8287996 16.1067708,17.4375 C15.5179545,16.9200777 15,16.2211495 15,15.3880208 L15,13.34375 C15.5632053,13.2056833 16.5085365,13 17,13 Z" id="Shape" fill="#000000" fill-rule="nonzero"></path>
    </g>
</svg>