<?xml version="1.0" encoding="UTF-8"?>
<svg width="34px" height="34px" viewBox="0 0 34 34" version="1.1" xmlns="http://www.w3.org/2000/svg" xmlns:xlink="http://www.w3.org/1999/xlink">
    <!-- Generator: Sketch 64 (93537) - https://sketch.com -->
    <title>icon/vechile-patrol</title>
    <desc>Created with Sketch.</desc>
    <g id="icon/vechile-patrol" stroke="none" stroke-width="1" fill="none" fill-rule="evenodd">
        <path d="M17.149,7.55489131 L17.924,11.5558913 L17.408,11.6558913 L17.408,13.1288913 L18.204,13.1288913 C19.094,13.1288913 19.937,13.5258913 20.507,14.2098913 L20.507,14.2098913 L23.434,17.7228913 L26.829,18.6918913 C28.113,19.0598913 29.006,20.2378913 29.006,21.5748913 L29.006,21.5748913 L29.006,23.6288913 C29.006,24.4478913 28.326,25.1288913 27.506,25.1288913 L27.506,25.1288913 L26.006,25.1288913 C26.006,26.7758913 24.654,28.1288913 23.006,28.1288913 C21.358,28.1288913 20.006,26.7758913 20.006,25.1288913 L20.006,25.1288913 L14.006,25.1288913 C14.006,26.7758913 12.654,28.1288913 11.006,28.1288913 C9.364,28.1288913 8.019,26.7858913 8.009,25.1468913 L8.009,25.1468913 L7.233,25.1408913 C6.006,25.1298913 5,24.1168913 5,22.8908913 L5,22.8908913 L5,22.8878913 L5.006,17.6288913 L11.006,17.6288913 L11.006,15.3788913 C11.006,14.1448913 12.022,13.1288913 13.256,13.1288913 L13.256,13.1288913 L16.124,13.1288913 L16.124,11.7478913 C16.058,11.7368913 15.995,11.7248913 15.929,11.6998913 L15.929,11.6998913 L15.937,11.5958913 L15.906,11.6908913 C15.893,11.6868913 15.881,11.6828913 15.865,11.6748913 C15.558,11.5018913 15.32,11.2258913 15.209,10.9128913 L15.209,10.9128913 L14.88,9.32789131 C14.75,8.61989131 15.218,7.93189131 15.923,7.79089131 L15.923,7.79089131 L17.149,7.55489131 Z M23.006,23.6288913 C22.169,23.6288913 21.506,24.2908913 21.506,25.1288913 C21.506,25.9658913 22.169,26.6288913 23.006,26.6288913 C23.843,26.6288913 24.506,25.9658913 24.506,25.1288913 C24.506,24.2908913 23.843,23.6288913 23.006,23.6288913 Z M11.006,23.6288913 C10.169,23.6288913 9.506,24.2908913 9.506,25.1288913 C9.506,25.9658913 10.169,26.6288913 11.006,26.6288913 C11.843,26.6288913 12.506,25.9658913 12.506,25.1288913 C12.506,24.2908913 11.843,23.6288913 11.006,23.6288913 Z M22.906,19.1288913 L6.506,19.1288913 L6.5,22.8908913 C6.5,23.3128913 6.825,23.6378913 7.244,23.6408913 L7.244,23.6408913 L8.416,23.6498913 C8.935,22.7478913 9.898,22.1288913 11.006,22.1288913 C12.106,22.1288913 13.062,22.7378913 13.584,23.6288913 L13.584,23.6288913 L20.428,23.6288913 C20.95,22.7378913 21.906,22.1288913 23.006,22.1288913 C24.106,22.1288913 25.062,22.7378913 25.584,23.6288913 L25.584,23.6288913 L27.506,23.6288913 L27.506,21.5748913 C27.506,20.9008913 27.067,20.3178913 26.419,20.1338913 L26.419,20.1338913 L22.906,19.1288913 Z M15.506,14.6288913 L13.256,14.6288913 C12.834,14.6288913 12.506,14.9558913 12.506,15.3788913 L12.506,15.3788913 L12.506,17.6288913 L15.506,17.6288913 L15.506,14.6288913 Z M18.204,14.6288913 L17.006,14.6288913 L17.006,17.6288913 L21.406,17.6288913 L19.356,15.1678913 C19.07,14.8248913 18.649,14.6288913 18.204,14.6288913 L18.204,14.6288913 Z M18.8962407,10.3432617 L18.9855,10.3458913 L24.4645,10.7598913 C24.5675,10.7738913 24.6685,10.7938913 24.7735,10.8558913 L24.7735,10.8558913 L24.8285,10.8968913 C24.9505,10.9818913 25.0405,11.1078913 25.0845,11.2578913 L25.0845,11.2578913 L25.1025,11.3188913 L25.0975,11.3788913 C25.1095,11.4638913 25.1165,11.5738913 25.0755,11.6888913 L25.0755,11.6888913 L25.0335,11.7728913 C25.0035,11.8178913 24.9775,11.8438913 24.9635,11.8558913 C24.9365,11.9018913 24.8855,11.9808913 24.7955,12.0398913 L24.7955,12.0398913 L24.6945,12.0838913 C24.5975,12.1278913 24.5015,12.1498913 24.4035,12.1498913 C24.3905,12.1498913 24.3775,12.1498913 24.3645,12.1488913 L24.3645,12.1488913 L18.8145,11.7148913 C18.4865,11.6498913 18.2595,11.3958913 18.2405,11.0798913 L18.2405,11.0798913 L18.2375,10.9378913 L18.2485,10.9148913 C18.2805,10.7128913 18.4165,10.5278913 18.6195,10.4248913 C18.6285,10.4178913 18.6655,10.3938913 18.7175,10.3768913 C18.8085,10.3488913 18.8955,10.3358913 18.9855,10.3458913 Z M16.394,8.66689131 L16.102,8.72489131 C15.905,8.75789131 15.779,8.94489131 15.813,9.15089131 L15.813,9.15089131 L16.094,10.5678913 C16.136,10.7678913 16.316,10.8968913 16.52,10.8578913 L16.52,10.8578913 L16.812,10.8008913 L16.394,8.66689131 Z M22.836,5.03119131 C22.991,4.98619131 23.135,4.99019131 23.285,5.04119131 C23.424,5.10219131 23.49,5.17919131 23.534,5.22919131 C23.666,5.37419131 23.731,5.53419131 23.727,5.70419131 C23.728,5.98619131 23.544,6.24419131 23.27,6.34419131 L23.27,6.34419131 L18.836,8.02619131 C18.767,8.05019131 18.696,8.06019131 18.624,8.06019131 C18.47,8.06019131 18.317,8.00719131 18.194,7.90819131 C18.133,7.86119131 18.098,7.80319131 18.08,7.77019131 C17.964,7.60919131 17.916,7.42919131 17.944,7.25519131 C17.976,7.05719131 18.095,6.88919131 18.279,6.78019131 C18.301,6.75819131 18.334,6.73719131 18.377,6.71919131 L18.377,6.71919131 Z" id="Combined-Shape" fill="#000000"></path>
    </g>
</svg>